
CASCADE Topology V3, (c) Open Cascade
Locations 0
Curve2ds 60
1 6.2831853071795862 0 0 1 
1 0 0 0 1 
1 9.4247779607693793 6.3499999999999996 -1 0 
1 3.1415926535897931 0 0 1 
1 3.1415926535897931 0 0 1 
1 9.4247779607693793 0 -1 0 
1 6.2831853071795862 0 0 1 
1 0 0 0 1 
1 9.4247779607693793 6.3499999999999996 -1 0 
1 3.1415926535897931 0 0 1 
1 3.1415926535897931 0 0 1 
1 9.4247779607693793 0 -1 0 
1 6.2831853071795862 0 0 1 
1 0 0 0 1 
1 9.4247779607693793 6.3499999999999996 -1 0 
1 3.1415926535897931 0 0 1 
1 3.1415926535897931 0 0 1 
1 9.4247779607693793 0 -1 0 
1 6.2831853071795862 0 0 1 
1 0 0 0 1 
1 9.4247779607693793 6.3499999999999996 -1 0 
1 3.1415926535897931 0 0 1 
1 3.1415926535897931 0 0 1 
1 9.4247779607693793 0 -1 0 
1 6.2831853071795862 0 0 1 
1 0 0 0 1 
1 9.4247779607693793 6.3499999999999996 -1 0 
1 3.1415926535897931 0 0 1 
1 3.1415926535897931 0 0 1 
1 9.4247779607693793 0 -1 0 
1 6.2831853071795871 0 -1 0 
1 6.2831853071795862 0 -1 0 
1 6.2831853071795862 0 -1 0 
1 6.2831853071795862 0 -1 0 
1 6.2831853071795862 0 -1 0 
1 3.1415926535897931 0 -1 0 
1 3.1415926535897931 0 -1 0 
1 3.1415926535897931 0 -1 0 
1 3.1415926535897931 0 -1 0 
1 3.1415926535897931 0 -1 0 
1 3.1415926535897931 6.3499999999999996 -1 0 
1 3.1415926535897931 6.3499999999999996 -1 0 
1 6.2831853071795871 6.3499999999999996 -1 0 
1 6.2831853071795862 6.3499999999999996 -1 0 
1 6.2831853071795862 6.3499999999999996 -1 0 
1 6.2831853071795862 6.3499999999999996 -1 0 
1 6.2831853071795862 6.3499999999999996 -1 0 
1 3.1415926535897931 6.3499999999999996 -1 0 
1 3.1415926535897931 6.3499999999999996 -1 0 
1 3.1415926535897931 6.3499999999999996 -1 0 
1 1.5707963267948966 0 0 1 
1 2.3561944901923408 0 0 1 
1 1.5707963267948966 0 0 1 
1 0 0 0 1 
1 6.2831853071795862 0 0 1 
1 4.7123889803846897 0 0 1 
1 4.7123889803846897 0 0 1 
1 3.1415926535897931 0 0 1 
1 3.1415926535897931 0 0 1 
1 2.3561944901923439 0 0 1 
Curves 60
1 -23.215600000000009 57.150000000000006 3.1749999999999998 -0 -0 -1 
2 -19.050000000000008 57.150000000000006 -3.1749999999999998 0 0 1 1 0 -0 -0 1 0 4.1656000000000022
1 -14.884400000000007 57.150000000000006 3.1749999999999998 -0 -0 -1 
2 -19.050000000000008 57.150000000000006 3.1749999999999998 0 0 1 1 0 -0 -0 1 0 4.1656000000000022
1 -23.215599999999995 19.050000000000008 3.1749999999999998 -0 -0 -1 
2 -19.049999999999994 19.050000000000008 -3.1749999999999998 0 0 1 1 0 -0 -0 1 0 4.1656000000000022
1 -14.884399999999992 19.050000000000008 3.1749999999999998 -0 -0 -1 
2 -19.049999999999994 19.050000000000008 3.1749999999999998 0 0 1 1 0 -0 -0 1 0 4.1656000000000022
1 -23.215599999999995 -19.049999999999994 3.1749999999999998 -0 -0 -1 
2 -19.049999999999994 -19.049999999999994 -3.1749999999999998 0 0 1 1 0 -0 -0 1 0 4.1656000000000022
1 -14.884399999999992 -19.049999999999994 3.1749999999999998 -0 -0 -1 
2 -19.049999999999994 -19.049999999999994 3.1749999999999998 0 0 1 1 0 -0 -0 1 0 4.1656000000000022
1 14.884399999999998 -19.049999999999994 3.1749999999999998 -0 -0 -1 
2 19.050000000000004 -19.049999999999994 -3.1749999999999998 0 0 1 1 0 -0 -0 1 0 4.1656000000000057
1 23.215600000000009 -19.049999999999994 3.1749999999999998 -0 -0 -1 
2 19.050000000000004 -19.049999999999994 3.1749999999999998 0 0 1 1 0 -0 -0 1 0 4.1656000000000057
1 52.984400000000008 -19.049999999999979 3.1749999999999998 -0 -0 -1 
2 57.150000000000006 -19.049999999999979 -3.1749999999999998 0 0 1 1 0 -0 -0 1 0 4.1655999999999986
1 61.315600000000003 -19.049999999999979 3.1749999999999998 -0 -0 -1 
2 57.150000000000006 -19.049999999999979 3.1749999999999998 0 0 1 1 0 -0 -0 1 0 4.1655999999999986
2 -0.3287820151336408 75.40625 3.1749999999999998 0 0 1 -1 0 0 0 -1 0 0.79375000000000739
1 -37.306249999999991 76.200000000000003 3.1749999999999998 -1 -0 -0 
2 -37.306249999999991 75.40625 3.1749999999999998 0 0 1 -1 0 0 0 -1 0 0.79375000000000273
1 -38.099999999999994 -37.306250000000006 3.1749999999999998 -0 -1 -0 
2 -37.306249999999984 -37.306250000000006 3.1749999999999998 0 0 1 -1 0 0 0 -1 0 0.79375000000000961
1 75.40625 -38.099999999999994 3.1749999999999998 1 1.2312554337641752e-16 -0 
2 75.40625 -37.306249999999991 3.1749999999999998 0 0 1 -1 0 0 0 -1 0 0.79375000000000961
1 76.200000000000017 -0.32878201513365779 3.1749999999999998 -0 1 -0 
2 75.40625 -0.3287820151336579 3.1749999999999998 0 0 1 -1 0 0 0 -1 0 0.79375000000000961
1 0.23248399243318343 75.967516007566829 3.1749999999999998 -0.70710678118654746 0.70710678118654746 -0 
2 57.150000000000006 -19.049999999999979 3.1749999999999998 0 0 1 1 0 -0 -0 1 0 4.1655999999999986
2 19.050000000000004 -19.049999999999994 3.1749999999999998 0 0 1 1 0 -0 -0 1 0 4.1656000000000057
2 -19.049999999999994 -19.049999999999994 3.1749999999999998 0 0 1 1 0 -0 -0 1 0 4.1656000000000022
2 -19.049999999999994 19.050000000000008 3.1749999999999998 0 0 1 1 0 -0 -0 1 0 4.1656000000000022
2 -19.050000000000008 57.150000000000006 3.1749999999999998 0 0 1 1 0 -0 -0 1 0 4.1656000000000022
2 -19.049999999999994 19.050000000000008 -3.1749999999999998 0 0 1 1 0 -0 -0 1 0 4.1656000000000022
2 19.050000000000004 -19.049999999999994 -3.1749999999999998 0 0 1 1 0 -0 -0 1 0 4.1656000000000057
2 -0.3287820151336408 75.40625 -3.1749999999999998 0 0 1 -1 0 0 0 -1 0 0.79375000000000739
1 0.23248399243318343 75.967516007566829 -3.1749999999999998 -0.70710678118654746 0.70710678118654746 -0 
2 75.40625 -0.3287820151336579 -3.1749999999999998 0 0 1 -1 0 0 0 -1 0 0.79375000000000961
1 76.200000000000017 -0.32878201513365779 -3.1749999999999998 -0 1 -0 
2 75.40625 -37.306249999999991 -3.1749999999999998 0 0 1 -1 0 0 0 -1 0 0.79375000000000961
1 75.40625 -38.099999999999994 -3.1749999999999998 1 1.2312554337641752e-16 -0 
2 -37.306249999999984 -37.306250000000006 -3.1749999999999998 0 0 1 -1 0 0 0 -1 0 0.79375000000000961
1 -38.099999999999994 -37.306250000000006 -3.1749999999999998 -0 -1 -0 
2 -37.306249999999991 75.40625 -3.1749999999999998 0 0 1 -1 0 0 0 -1 0 0.79375000000000273
1 -37.306249999999991 76.200000000000003 -3.1749999999999998 -1 -0 -0 
2 57.150000000000006 -19.049999999999979 -3.1749999999999998 0 0 1 1 0 -0 -0 1 0 4.1655999999999986
2 -19.049999999999994 -19.049999999999994 -3.1749999999999998 0 0 1 1 0 -0 -0 1 0 4.1656000000000022
2 -19.050000000000008 57.150000000000006 -3.1749999999999998 0 0 1 1 0 -0 -0 1 0 4.1656000000000022
1 -0.3287820151336408 76.200000000000003 3.1749999999999998 -0 -0 -1 
1 0.23248399243318343 75.967516007566829 3.1749999999999998 -0 -0 -1 
1 -37.306249999999991 76.200000000000003 3.1749999999999998 -0 -0 -1 
1 -38.099999999999994 75.40625 3.1749999999999998 -0 -0 -1 
1 -38.099999999999994 -37.306250000000006 3.1749999999999998 -0 -0 -1 
1 -37.306249999999984 -38.100000000000009 3.1749999999999998 -0 -0 -1 
1 75.40625 -38.099999999999994 3.1749999999999998 -0 -0 -1 
1 76.200000000000017 -37.306249999999991 3.1749999999999998 -0 -0 -1 
1 76.200000000000017 -0.32878201513365779 3.1749999999999998 -0 -0 -1 
1 75.967516007566829 0.23248399243317178 3.1749999999999998 -0 -0 -1 
Polygon3D 0
PolygonOnTriangulations 0
Surfaces 22
2 -19.050000000000008 57.150000000000006 3.1749999999999998 -0 -0 -1 -1 0 0 0 1 -0 4.1656000000000022
2 -19.050000000000008 57.150000000000006 3.1749999999999998 -0 -0 -1 -1 0 0 0 1 -0 4.1656000000000022
1 -0.3287820151336408 75.40625 -3.1749999999999998 -0 0 -1 -1 0 0 0 1 0 
1 -0.3287820151336408 75.40625 3.1749999999999998 -0 0 -1 -1 0 0 0 1 0 
2 -19.049999999999994 19.050000000000008 3.1749999999999998 -0 -0 -1 -1 0 0 0 1 -0 4.1656000000000022
2 -19.049999999999994 19.050000000000008 3.1749999999999998 -0 -0 -1 -1 0 0 0 1 -0 4.1656000000000022
2 -19.049999999999994 -19.049999999999994 3.1749999999999998 -0 -0 -1 -1 0 0 0 1 -0 4.1656000000000022
2 -19.049999999999994 -19.049999999999994 3.1749999999999998 -0 -0 -1 -1 0 0 0 1 -0 4.1656000000000022
2 19.050000000000004 -19.049999999999994 3.1749999999999998 -0 -0 -1 -1 0 0 0 1 -0 4.1656000000000057
2 19.050000000000004 -19.049999999999994 3.1749999999999998 -0 -0 -1 -1 0 0 0 1 -0 4.1656000000000057
2 57.150000000000006 -19.049999999999979 3.1749999999999998 -0 -0 -1 -1 0 0 0 1 -0 4.1655999999999986
2 57.150000000000006 -19.049999999999979 3.1749999999999998 -0 -0 -1 -1 0 0 0 1 -0 4.1655999999999986
2 -0.3287820151336408 75.40625 3.1749999999999998 -0 -0 -1 -1 0 0 0 1 -0 0.79375000000000739
1 -37.306249999999991 76.200000000000003 3.1749999999999998 0 -1 0 0 -0 -1 1 0 0 
2 -37.306249999999991 75.40625 3.1749999999999998 -0 -0 -1 -1 0 0 0 1 -0 0.79375000000000273
1 -38.099999999999994 -37.306250000000006 3.1749999999999998 1 0 0 0 0 -1 -0 1 0 
2 -37.306249999999984 -37.306250000000006 3.1749999999999998 -0 -0 -1 -1 0 0 0 1 -0 0.79375000000000961
1 75.40625 -38.099999999999994 3.1749999999999998 -1.2312554337641752e-16 1 0 -1 -1.2312554337641752e-16 0 0 0 1 
2 75.40625 -37.306249999999991 3.1749999999999998 -0 -0 -1 -1 0 0 0 1 -0 0.79375000000000961
1 76.200000000000017 -0.32878201513365779 3.1749999999999998 -1 0 0 0 0 1 0 1 -0 
2 75.40625 -0.3287820151336579 3.1749999999999998 -0 -0 -1 -1 0 0 0 1 -0 0.79375000000000961
1 0.23248399243318343 75.967516007566829 3.1749999999999998 -0.70710678118654757 -0.70710678118654757 0 0.70710678118654757 -0.70710678118654757 0 0 0 1 
Triangulations 0

TShapes 156
Ve
1e-07
-23.2156 57.15 3.175
0 0

0101101
*
Ve
1e-07
-23.2156 57.15 -3.175
0 0

0101101
*
Ed
 1e-07 1 1 0
1  1 0 -0 6.35
2  1 1 0 -0 6.35
2  2 2 0 -0 6.35
4 CN 1 0 2 0
0

0101000
+156 0 -155 0 *
Ve
1e-07
-14.8844 57.15 -3.175
0 0

0101101
*
Ed
 1e-07 1 1 0
1  2 0 3.14159265358979 6.28318530717959
2  3 1 0 3.14159265358979 6.28318530717959
4 C0 1 0 3 0
0

0101000
+155 0 -153 0 *
Ve
1e-07
-14.8844 57.15 3.175
0 0

0101101
*
Ed
 1e-07 1 1 0
1  3 0 -0 6.35
2  4 1 0 -0 6.35
2  5 2 0 -0 6.35
4 CN 1 0 2 0
0

0101000
+151 0 -153 0 *
Ed
 1e-07 1 1 0
1  4 0 3.14159265358979 6.28318530717959
2  6 1 0 3.14159265358979 6.28318530717959
4 C0 1 0 4 0
0

0101000
+156 0 -151 0 *
Wi

0101100
+154 0 +152 0 -150 0 -149 0 *
Fa
0  1e-07 1 0

0111000
+148 0 *
Ve
1e-07
-23.2156 19.05 3.175
0 0

0101101
*
Ve
1e-07
-23.2156 19.05 -3.175
0 0

0101101
*
Ed
 1e-07 1 1 0
1  5 0 -0 6.35
2  7 5 0 -0 6.35
2  8 6 0 -0 6.35
4 CN 5 0 6 0
0

0101000
+146 0 -145 0 *
Ve
1e-07
-14.8844 19.05 -3.175
0 0

0101101
*
Ed
 1e-07 1 1 0
1  6 0 3.14159265358979 6.28318530717959
2  9 5 0 3.14159265358979 6.28318530717959
4 C0 5 0 3 0
0

0101000
+145 0 -143 0 *
Ve
1e-07
-14.8844 19.05 3.175
0 0

0101101
*
Ed
 1e-07 1 1 0
1  7 0 -0 6.35
2  10 5 0 -0 6.35
2  11 6 0 -0 6.35
4 CN 5 0 6 0
0

0101000
+141 0 -143 0 *
Ed
 1e-07 1 1 0
1  8 0 3.14159265358979 6.28318530717959
2  12 5 0 3.14159265358979 6.28318530717959
4 C0 5 0 4 0
0

0101000
+146 0 -141 0 *
Wi

0101100
+144 0 +142 0 -140 0 -139 0 *
Fa
0  1e-07 5 0

0111000
+138 0 *
Ve
1e-07
-23.2156 -19.05 3.175
0 0

0101101
*
Ve
1e-07
-23.2156 -19.05 -3.175
0 0

0101101
*
Ed
 1e-07 1 1 0
1  9 0 -0 6.35
2  13 7 0 -0 6.35
2  14 8 0 -0 6.35
4 CN 7 0 8 0
0

0101000
+136 0 -135 0 *
Ve
1e-07
-14.8844 -19.05 -3.175
0 0

0101101
*
Ed
 1e-07 1 1 0
1  10 0 3.14159265358979 6.28318530717959
2  15 7 0 3.14159265358979 6.28318530717959
4 C0 7 0 3 0
0

0101000
+135 0 -133 0 *
Ve
1e-07
-14.8844 -19.05 3.175
0 0

0101101
*
Ed
 1e-07 1 1 0
1  11 0 -0 6.35
2  16 7 0 -0 6.35
2  17 8 0 -0 6.35
4 CN 7 0 8 0
0

0101000
+131 0 -133 0 *
Ed
 1e-07 1 1 0
1  12 0 3.14159265358979 6.28318530717959
2  18 7 0 3.14159265358979 6.28318530717959
4 C0 7 0 4 0
0

0101000
+136 0 -131 0 *
Wi

0101100
+134 0 +132 0 -130 0 -129 0 *
Fa
0  1e-07 7 0

0111000
+128 0 *
Ve
1e-07
14.8844 -19.05 3.175
0 0

0101101
*
Ve
1e-07
14.8844 -19.05 -3.175
0 0

0101101
*
Ed
 1e-07 1 1 0
1  13 0 -0 6.35
2  19 9 0 -0 6.35
2  20 10 0 -0 6.35
4 CN 9 0 10 0
0

0101000
+126 0 -125 0 *
Ve
1e-07
23.2156 -19.05 -3.175
0 0

0101101
*
Ed
 1e-07 1 1 0
1  14 0 3.14159265358979 6.28318530717959
2  21 9 0 3.14159265358979 6.28318530717959
4 C0 9 0 3 0
0

0101000
+125 0 -123 0 *
Ve
1e-07
23.2156 -19.05 3.175
0 0

0101101
*
Ed
 1e-07 1 1 0
1  15 0 -0 6.35
2  22 9 0 -0 6.35
2  23 10 0 -0 6.35
4 CN 9 0 10 0
0

0101000
+121 0 -123 0 *
Ed
 1e-07 1 1 0
1  16 0 3.14159265358979 6.28318530717959
2  24 9 0 3.14159265358979 6.28318530717959
4 C0 9 0 4 0
0

0101000
+126 0 -121 0 *
Wi

0101100
+124 0 +122 0 -120 0 -119 0 *
Fa
0  1e-07 9 0

0111000
+118 0 *
Ve
1e-07
52.9844 -19.05 3.175
0 0

0101101
*
Ve
1e-07
52.9844 -19.05 -3.175
0 0

0101101
*
Ed
 1e-07 1 1 0
1  17 0 -0 6.35
2  25 11 0 -0 6.35
2  26 12 0 -0 6.35
4 CN 11 0 12 0
0

0101000
+116 0 -115 0 *
Ve
1e-07
61.3156 -19.05 -3.175
0 0

0101101
*
Ed
 1e-07 1 1 0
1  18 0 3.14159265358979 6.28318530717959
2  27 11 0 3.14159265358979 6.28318530717959
4 C0 11 0 3 0
0

0101000
+115 0 -113 0 *
Ve
1e-07
61.3156 -19.05 3.175
0 0

0101101
*
Ed
 1e-07 1 1 0
1  19 0 -0 6.35
2  28 11 0 -0 6.35
2  29 12 0 -0 6.35
4 CN 11 0 12 0
0

0101000
+111 0 -113 0 *
Ed
 1e-07 1 1 0
1  20 0 3.14159265358979 6.28318530717959
2  30 11 0 3.14159265358979 6.28318530717959
4 C0 11 0 4 0
0

0101000
+116 0 -111 0 *
Wi

0101100
+114 0 +112 0 -110 0 -109 0 *
Fa
0  1e-07 11 0

0111000
+108 0 *
Ve
1e-07
0.232483992433183 75.9675160075668 3.175
0 0

0101101
*
Ve
1e-07
-0.328782015133641 76.2 3.175
0 0

0101101
*
Ed
 1e-07 1 1 0
1  21 0 3.92699081698725 4.71238898038469
2  31 13 0 3.92699081698725 4.71238898038469
4 C0 4 0 13 0
0

0101000
+106 0 -105 0 *
Ve
1e-07
-37.30625 76.2 3.175
0 0

0101101
*
Ed
 1e-07 1 1 0
1  22 0 -36.9774679848664 -0
4 C0 4 0 14 0
0

0101000
+105 0 -103 0 *
Ve
1e-07
-38.1 75.40625 3.175
0 0

0101101
*
Ed
 1e-07 1 1 0
1  23 0 4.71238898038469 6.28318530717959
2  32 15 0 4.71238898038469 6.28318530717959
4 C0 4 0 15 0
0

0101000
+103 0 -101 0 *
Ve
1e-07
-38.1 -37.30625 3.175
0 0

0101101
*
Ed
 1e-07 1 1 0
1  24 0 -112.7125 -0
4 C0 4 0 16 0
0

0101000
+101 0 -99 0 *
Ve
1e-07
-37.30625 -38.1 3.175
0 0

0101101
*
Ed
 1e-07 1 1 0
1  25 0 0 1.5707963267949
2  33 17 0 0 1.5707963267949
4 C0 4 0 17 0
0

0101000
+99 0 -97 0 *
Ve
1e-07
75.40625 -38.1 3.175
0 0

0101101
*
Ed
 1e-07 1 1 0
1  26 0 -112.7125 0
4 C0 4 0 18 0
0

0101000
+97 0 -95 0 *
Ve
1e-07
76.2 -37.30625 3.175
0 0

0101101
*
Ed
 1e-07 1 1 0
1  27 0 1.5707963267949 3.14159265358979
2  34 19 0 1.5707963267949 3.14159265358979
4 C0 4 0 19 0
0

0101000
+95 0 -93 0 *
Ve
1e-07
76.2 -0.328782015133658 3.175
0 0

0101101
*
Ed
 1e-07 1 1 0
1  28 0 -36.9774679848663 0
4 C0 4 0 20 0
0

0101000
+93 0 -91 0 *
Ve
1e-07
75.9675160075668 0.232483992433172 3.175
0 0

0101101
*
Ed
 1e-07 1 1 0
1  29 0 3.14159265358979 3.92699081698724
2  35 21 0 3.14159265358979 3.92699081698724
4 C0 4 0 21 0
0

0101000
+91 0 -89 0 *
Ed
 1e-07 1 1 0
1  30 0 -107.105509422563 0
4 C0 4 0 22 0
0

0101000
+89 0 -106 0 *
Wi

0101100
+104 0 +102 0 +100 0 +98 0 +96 0 +94 0 +92 0 +90 0 +88 0 +87 0 
*
Ed
 1e-07 1 1 0
1  31 0 0 3.14159265358979
2  36 12 0 0 3.14159265358979
4 C0 4 0 12 0
0

0101000
+111 0 -116 0 *
Wi

0101100
-109 0 -85 0 *
Ed
 1e-07 1 1 0
1  32 0 0 3.14159265358979
2  37 10 0 0 3.14159265358979
4 C0 4 0 10 0
0

0101000
+121 0 -126 0 *
Wi

0101100
-119 0 -83 0 *
Ed
 1e-07 1 1 0
1  33 0 0 3.14159265358979
2  38 8 0 0 3.14159265358979
4 C0 4 0 8 0
0

0101000
+131 0 -136 0 *
Wi

0101100
-129 0 -81 0 *
Ed
 1e-07 1 1 0
1  34 0 0 3.14159265358979
2  39 6 0 0 3.14159265358979
4 C0 4 0 6 0
0

0101000
+141 0 -146 0 *
Wi

0101100
-139 0 -79 0 *
Ed
 1e-07 1 1 0
1  35 0 0 3.14159265358979
2  40 2 0 0 3.14159265358979
4 C0 4 0 2 0
0

0101000
+151 0 -156 0 *
Wi

0101100
-149 0 -77 0 *
Fa
0  1e-07 4 0

0111000
-86 0 -84 0 -82 0 -80 0 -78 0 -76 0 *
Ed
 1e-07 1 1 0
1  36 0 0 3.14159265358979
2  41 6 0 0 3.14159265358979
4 C0 3 0 6 0
0

0101000
+143 0 -145 0 *
Wi

0101100
+142 0 +74 0 *
Ed
 1e-07 1 1 0
1  37 0 0 3.14159265358979
2  42 10 0 0 3.14159265358979
4 C0 3 0 10 0
0

0101000
+123 0 -125 0 *
Wi

0101100
+122 0 +72 0 *
Ve
1e-07
0.232483992433183 75.9675160075668 -3.175
0 0

0101101
*
Ve
1e-07
-0.328782015133641 76.2 -3.175
0 0

0101101
*
Ed
 1e-07 1 1 0
1  38 0 3.92699081698725 4.71238898038469
2  43 13 0 3.92699081698725 4.71238898038469
4 C0 3 0 13 0
0

0101000
+70 0 -69 0 *
Ve
1e-07
75.9675160075668 0.232483992433172 -3.175
0 0

0101101
*
Ed
 1e-07 1 1 0
1  39 0 -107.105509422563 0
4 C0 3 0 22 0
0

0101000
+67 0 -70 0 *
Ve
1e-07
76.2 -0.328782015133658 -3.175
0 0

0101101
*
Ed
 1e-07 1 1 0
1  40 0 3.14159265358979 3.92699081698724
2  44 21 0 3.14159265358979 3.92699081698724
4 C0 3 0 21 0
0

0101000
+65 0 -67 0 *
Ve
1e-07
76.2 -37.30625 -3.175
0 0

0101101
*
Ed
 1e-07 1 1 0
1  41 0 -36.9774679848663 0
4 C0 3 0 20 0
0

0101000
+63 0 -65 0 *
Ve
1e-07
75.40625 -38.1 -3.175
0 0

0101101
*
Ed
 1e-07 1 1 0
1  42 0 1.5707963267949 3.14159265358979
2  45 19 0 1.5707963267949 3.14159265358979
4 C0 3 0 19 0
0

0101000
+61 0 -63 0 *
Ve
1e-07
-37.30625 -38.1 -3.175
0 0

0101101
*
Ed
 1e-07 1 1 0
1  43 0 -112.7125 0
4 C0 3 0 18 0
0

0101000
+59 0 -61 0 *
Ve
1e-07
-38.1 -37.30625 -3.175
0 0

0101101
*
Ed
 1e-07 1 1 0
1  44 0 0 1.5707963267949
2  46 17 0 0 1.5707963267949
4 C0 3 0 17 0
0

0101000
+57 0 -59 0 *
Ve
1e-07
-38.1 75.40625 -3.175
0 0

0101101
*
Ed
 1e-07 1 1 0
1  45 0 -112.7125 -0
4 C0 3 0 16 0
0

0101000
+55 0 -57 0 *
Ve
1e-07
-37.30625 76.2 -3.175
0 0

0101101
*
Ed
 1e-07 1 1 0
1  46 0 4.71238898038469 6.28318530717959
2  47 15 0 4.71238898038469 6.28318530717959
4 C0 3 0 15 0
0

0101000
+53 0 -55 0 *
Ed
 1e-07 1 1 0
1  47 0 -36.9774679848664 -0
4 C0 3 0 14 0
0

0101000
+69 0 -53 0 *
Wi

0101100
-68 0 -66 0 -64 0 -62 0 -60 0 -58 0 -56 0 -54 0 -52 0 -51 0 
*
Ed
 1e-07 1 1 0
1  48 0 0 3.14159265358979
2  48 12 0 0 3.14159265358979
4 C0 3 0 12 0
0

0101000
+113 0 -115 0 *
Wi

0101100
+112 0 +49 0 *
Ed
 1e-07 1 1 0
1  49 0 0 3.14159265358979
2  49 8 0 0 3.14159265358979
4 C0 3 0 8 0
0

0101000
+133 0 -135 0 *
Wi

0101100
+132 0 +47 0 *
Ed
 1e-07 1 1 0
1  50 0 0 3.14159265358979
2  50 2 0 0 3.14159265358979
4 C0 3 0 2 0
0

0101000
+153 0 -155 0 *
Wi

0101100
+152 0 +45 0 *
Fa
0  1e-07 3 0

0111000
+73 0 +71 0 +50 0 +48 0 +46 0 +44 0 *
Ed
 1e-07 1 1 0
1  51 0 -0 6.35
2  51 13 0 -0 6.35
4 G1 13 0 14 0
0

0101000
+105 0 -69 0 *
Ed
 1e-07 1 1 0
1  52 0 -0 6.35
2  52 13 0 -0 6.35
4 G1 13 0 22 0
0

0101000
+106 0 -70 0 *
Wi

0101100
+68 0 -42 0 -104 0 +41 0 *
Fa
0  1e-07 13 0

0111000
+40 0 *
Ed
 1e-07 1 1 0
1  53 0 -0 6.35
2  53 15 0 -0 6.35
4 G1 14 0 15 0
0

0101000
+103 0 -53 0 *
Wi

0101100
+51 0 -38 0 -102 0 +42 0 *
Fa
0  1e-07 14 0

0111000
-37 0 *
Ed
 1e-07 1 1 0
1  54 0 -0 6.35
2  54 15 0 -0 6.35
4 G1 15 0 16 0
0

0101000
+101 0 -55 0 *
Wi

0101100
+52 0 -35 0 -100 0 +38 0 *
Fa
0  1e-07 15 0

0111000
+34 0 *
Ed
 1e-07 1 1 0
1  55 0 -0 6.35
2  55 17 0 -0 6.35
4 G1 16 0 17 0
0

0101000
+99 0 -57 0 *
Wi

0101100
+54 0 -32 0 -98 0 +35 0 *
Fa
0  1e-07 16 0

0111000
-31 0 *
Ed
 1e-07 1 1 0
1  56 0 -0 6.35
2  56 17 0 -0 6.35
4 G1 17 0 18 0
0

0101000
+97 0 -59 0 *
Wi

0101100
+56 0 -29 0 -96 0 +32 0 *
Fa
0  1e-07 17 0

0111000
+28 0 *
Ed
 1e-07 1 1 0
1  57 0 -0 6.35
2  57 19 0 -0 6.35
4 G1 18 0 19 0
0

0101000
+95 0 -61 0 *
Wi

0101100
+58 0 -26 0 -94 0 +29 0 *
Fa
0  1e-07 18 0

0111000
-25 0 *
Ed
 1e-07 1 1 0
1  58 0 -0 6.35
2  58 19 0 -0 6.35
4 G1 19 0 20 0
0

0101000
+93 0 -63 0 *
Wi

0101100
+60 0 -23 0 -92 0 +26 0 *
Fa
0  1e-07 19 0

0111000
+22 0 *
Ed
 1e-07 1 1 0
1  59 0 -0 6.35
2  59 21 0 -0 6.35
4 G1 20 0 21 0
0

0101000
+91 0 -65 0 *
Wi

0101100
+62 0 -20 0 -90 0 +23 0 *
Fa
0  1e-07 20 0

0111000
-19 0 *
Ed
 1e-07 1 1 0
1  60 0 -0 6.35
2  60 21 0 -0 6.35
4 G1 21 0 22 0
0

0101000
+89 0 -67 0 *
Wi

0101100
+64 0 -17 0 -88 0 +20 0 *
Fa
0  1e-07 21 0

0111000
+16 0 *
Wi

0101100
+66 0 -41 0 -87 0 +17 0 *
Fa
0  1e-07 22 0

0111000
-14 0 *
Wi

0101100
+49 0 -114 0 -85 0 +110 0 *
Fa
0  1e-07 12 0

0111000
+12 0 *
Wi

0101100
+72 0 -124 0 -83 0 +120 0 *
Fa
0  1e-07 10 0

0111000
+10 0 *
Wi

0101100
+47 0 -134 0 -81 0 +130 0 *
Fa
0  1e-07 8 0

0111000
+8 0 *
Wi

0101100
+74 0 -144 0 -79 0 +140 0 *
Fa
0  1e-07 6 0

0111000
+6 0 *
Wi

0101100
+45 0 -154 0 -77 0 +150 0 *
Fa
0  1e-07 2 0

0111000
+4 0 *
Sh

0101100
-147 0 -137 0 -127 0 -117 0 -107 0 -75 0 +43 0 +39 0 -36 0 +33 0 
-30 0 +27 0 -24 0 +21 0 -18 0 +15 0 -13 0 -11 0 -9 0 -7 0 
-5 0 -3 0 *
So

0100000
+2 0 *

+1 0 