
CASCADE Topology V3, (c) Open Cascade
Locations 0
Curve2ds 88
1 6.2831853071795862 0 0 1 
1 0 0 0 1 
1 9.4247779607693793 6.3499999999999996 -1 0 
1 3.1415926535897931 0 0 1 
1 3.1415926535897931 0 0 1 
1 9.4247779607693793 0 -1 0 
1 6.2831853071795862 0 0 1 
1 0 0 0 1 
1 9.4247779607693793 6.3499999999999996 -1 0 
1 3.1415926535897931 0 0 1 
1 3.1415926535897931 0 0 1 
1 9.4247779607693793 0 -1 0 
1 6.2831853071795862 0 0 1 
1 0 0 0 1 
1 9.4247779607693793 6.3499999999999996 -1 0 
1 3.1415926535897931 0 0 1 
1 3.1415926535897931 0 0 1 
1 9.4247779607693793 0 -1 0 
1 6.2831853071795862 0 0 1 
1 0 0 0 1 
1 9.4247779607693793 6.3499999999999996 -1 0 
1 3.1415926535897931 0 0 1 
1 3.1415926535897931 0 0 1 
1 9.4247779607693793 0 -1 0 
1 6.2831853071795862 0 0 1 
1 0 0 0 1 
1 9.4247779607693793 6.3499999999999996 -1 0 
1 3.1415926535897931 0 0 1 
1 3.1415926535897931 0 0 1 
1 9.4247779607693793 0 -1 0 
1 6.2831853071795862 0 0 1 
1 0 0 0 1 
1 9.4247779607693793 6.3499999999999996 -1 0 
1 3.1415926535897931 0 0 1 
1 3.1415926535897931 0 0 1 
1 9.4247779607693793 0 -1 0 
1 6.2831853071795862 0 0 1 
1 0 0 0 1 
1 9.4247779607693793 6.3499999999999996 -1 0 
1 3.1415926535897931 0 0 1 
1 3.1415926535897931 0 0 1 
1 9.4247779607693793 0 -1 0 
1 3.1415926535897931 0 -1 0 
1 3.1415926535897931 0 -1 0 
1 3.1415926535897931 0 -1 0 
1 3.1415926535897931 0 -1 0 
1 9.4247779607693793 0 -1 0 
1 9.4247779607693793 0 -1 0 
1 9.4247779607693793 0 -1 0 
1 9.4247779607693793 0 -1 0 
1 3.1415926535897931 0 -1 0 
1 3.1415926535897913 0 -1 0 
1 3.1415926535897931 0 -1 0 
1 3.1415926535897931 0 -1 0 
1 3.1415926535897931 0 -1 0 
1 3.1415926535897931 0 -1 0 
1 3.1415926535897931 0 -1 0 
1 3.1415926535897931 6.3499999999999996 -1 0 
1 3.1415926535897931 6.3499999999999996 -1 0 
1 3.1415926535897913 6.3499999999999996 -1 0 
1 3.1415926535897931 6.3499999999999996 -1 0 
1 9.4247779607693793 6.3499999999999996 -1 0 
1 9.4247779607693793 6.3499999999999996 -1 0 
1 9.4247779607693793 6.3499999999999996 -1 0 
1 9.4247779607693793 6.3499999999999996 -1 0 
1 3.1415926535897931 6.3499999999999996 -1 0 
1 3.1415926535897931 6.3499999999999996 -1 0 
1 3.1415926535897931 6.3499999999999996 -1 0 
1 3.1415926535897931 6.3499999999999996 -1 0 
1 3.1415926535897931 6.3499999999999996 -1 0 
1 3.1415926535897931 6.3499999999999996 -1 0 
1 3.1415926535897931 6.3499999999999996 -1 0 
1 0 0 0 1 
1 0.46364760900080609 0 0 1 
1 6.2831853071795862 0 0 1 
1 5.8195376981787801 0 0 1 
1 5.8195376981788005 0 0 1 
1 4.7123889803846808 0 0 1 
1 4.7123889803846941 0 0 1 
1 3.6052402625905953 0 0 1 
1 3.6052402625905953 0 0 1 
1 3.1415926535897887 0 0 1 
1 3.1415926535897976 0 0 1 
1 2.677945044588991 0 0 1 
1 2.677945044588991 0 0 1 
1 1.5707963267948877 0 0 1 
1 1.5707963267949012 0 0 1 
1 0.46364760900078611 0 0 1 
Curves 90
1 -4.1655999999999871 76.200000000000003 3.1749999999999998 -0 -0 -1 
2 1.749714114281781e-14 76.200000000000003 -3.1749999999999998 0 0 1 1 0 -0 -0 1 0 4.165600000000004
1 4.1656000000000217 76.200000000000003 3.1749999999999998 -0 -0 -1 
2 1.749714114281781e-14 76.200000000000003 3.1749999999999998 0 0 1 1 0 -0 -0 1 0 4.165600000000004
1 -4.1655999999999826 38.100000000000001 3.1749999999999998 -0 -0 -1 
2 1.749714114281781e-14 38.100000000000001 -3.1749999999999998 0 0 1 1 0 -0 -0 1 0 4.1655999999999995
1 4.1656000000000173 38.100000000000001 3.1749999999999998 -0 -0 -1 
2 1.749714114281781e-14 38.100000000000001 3.1749999999999998 0 0 1 1 0 -0 -0 1 0 4.1655999999999995
1 -4.1655999999999826 0 3.1749999999999998 -0 -0 -1 
2 1.7347234759768071e-14 0 -3.1749999999999998 0 0 1 1 0 -0 -0 1 0 4.1655999999999995
1 4.1656000000000173 5.101388706528214e-16 3.1749999999999998 -0 -0 -1 
2 1.7347234759768071e-14 0 3.1749999999999998 0 0 1 1 0 -0 -0 1 0 4.1655999999999995
1 33.934399999999997 0 3.1749999999999998 -0 -0 -1 
2 38.100000000000001 0 -3.1749999999999998 0 0 1 1 0 -0 -0 1 0 4.1655999999999986
1 42.265599999999999 5.101388706528212e-16 3.1749999999999998 -0 -0 -1 
2 38.100000000000001 0 3.1749999999999998 0 0 1 1 0 -0 -0 1 0 4.1655999999999986
1 -4.1655999999999826 -38.100000000000001 3.1749999999999998 -0 -0 -1 
2 1.749714114281781e-14 -38.100000000000001 -3.1749999999999998 0 0 1 1 0 -0 -0 1 0 4.1655999999999995
1 4.1656000000000173 -38.100000000000001 3.1749999999999998 -0 -0 -1 
2 1.749714114281781e-14 -38.100000000000001 3.1749999999999998 0 0 1 1 0 -0 -0 1 0 4.1655999999999995
1 -42.265599999999999 0 3.1749999999999998 -0 -0 -1 
2 -38.100000000000001 0 -3.1749999999999998 0 0 1 1 0 -0 -0 1 0 4.1655999999999986
1 -33.934399999999997 5.101388706528212e-16 3.1749999999999998 -0 -0 -1 
2 -38.100000000000001 0 3.1749999999999998 0 0 1 1 0 -0 -0 1 0 4.1655999999999986
1 -4.1655999999999889 -76.200000000000003 3.1749999999999998 -0 -0 -1 
2 1.749714114281781e-14 -76.200000000000003 -3.1749999999999998 0 0 1 1 0 -0 -0 1 0 4.1656000000000066
1 4.1656000000000235 -76.200000000000003 3.1749999999999998 -0 -0 -1 
2 1.749714114281781e-14 -76.200000000000003 3.1749999999999998 0 0 1 1 0 -0 -0 1 0 4.1656000000000066
2 1.749714114281781e-14 38.100000000000001 3.1749999999999998 0 0 1 1 0 -0 -0 1 0 4.1655999999999995
2 38.100000000000001 0 3.1749999999999998 0 0 1 1 0 -0 -0 1 0 4.1655999999999986
2 -38.100000000000001 0 3.1749999999999998 0 0 1 1 0 -0 -0 1 0 4.1655999999999986
2 -56.356249999999989 18.862621042859541 3.1749999999999998 0 0 1 1 0 -0 -0 1 0 0.79375000000000273
1 -57.149999999999984 -18.862621042859537 3.1749999999999998 1.8393238903916678e-16 -1 -0 
2 -56.356249999999989 -18.862621042859541 3.1749999999999998 0 0 1 1 0 -0 -0 1 0 0.79375000000000273
1 -19.26938710428594 -94.811225791428086 3.1749999999999998 0.44721359549995793 -0.89442719099991586 -0 
2 -18.559435521429755 -94.456250000000011 3.1749999999999998 0 0 1 1 0 -0 -0 1 0 0.79374999999999585
1 18.559435521429787 -95.249999999999986 3.1749999999999998 1 3.7387418900187947e-16 -0 
2 18.559435521429791 -94.456249999999983 3.1749999999999998 0 0 1 1 0 -0 -0 1 0 0.79374999999999585
1 57.066201582856209 -19.217596834287633 3.1749999999999998 0.44721359549995798 0.89442719099991574 -0 
2 56.356250000000017 -18.862621042859541 3.1749999999999998 0 0 1 1 0 -0 -0 1 0 0.79375000000000273
1 57.15000000000002 18.862621042859537 3.1749999999999998 -1.8393238903916678e-16 1 -0 
2 56.356250000000017 18.862621042859541 3.1749999999999998 0 0 1 1 0 -0 -0 1 0 0.79375000000000273
1 19.269387104285975 94.8112257914281 3.1749999999999998 -0.44721359549995787 0.89442719099991586 -0 
2 18.559435521429791 94.456250000000011 3.1749999999999998 0 0 1 1 0 -0 -0 1 0 0.79374999999999585
1 -18.559435521429752 95.25 3.1749999999999998 -1 -3.7387418900187947e-16 -0 
2 -18.559435521429755 94.456250000000011 3.1749999999999998 0 0 1 1 0 -0 -0 1 0 0.79374999999999585
1 -57.066201582856174 19.217596834287633 3.1749999999999998 -0.44721359549995798 -0.89442719099991574 -0 
2 1.749714114281781e-14 -76.200000000000003 3.1749999999999998 0 0 1 1 0 -0 -0 1 0 4.1656000000000066
2 1.749714114281781e-14 -38.100000000000001 3.1749999999999998 0 0 1 1 0 -0 -0 1 0 4.1655999999999995
2 1.7347234759768071e-14 0 3.1749999999999998 0 0 1 1 0 -0 -0 1 0 4.1655999999999995
2 1.749714114281781e-14 76.200000000000003 3.1749999999999998 0 0 1 1 0 -0 -0 1 0 4.165600000000004
2 -56.356249999999989 18.862621042859541 -3.1749999999999998 0 0 1 1 0 -0 -0 1 0 0.79375000000000273
1 -57.066201582856174 19.217596834287633 -3.1749999999999998 -0.44721359549995798 -0.89442719099991574 -0 
2 -18.559435521429755 94.456250000000011 -3.1749999999999998 0 0 1 1 0 -0 -0 1 0 0.79374999999999585
1 -18.559435521429752 95.25 -3.1749999999999998 -1 -3.7387418900187947e-16 -0 
2 18.559435521429791 94.456250000000011 -3.1749999999999998 0 0 1 1 0 -0 -0 1 0 0.79374999999999585
1 19.269387104285975 94.8112257914281 -3.1749999999999998 -0.44721359549995787 0.89442719099991586 -0 
2 56.356250000000017 18.862621042859541 -3.1749999999999998 0 0 1 1 0 -0 -0 1 0 0.79375000000000273
1 57.15000000000002 18.862621042859537 -3.1749999999999998 -1.8393238903916678e-16 1 -0 
2 56.356250000000017 -18.862621042859541 -3.1749999999999998 0 0 1 1 0 -0 -0 1 0 0.79375000000000273
1 57.066201582856209 -19.217596834287633 -3.1749999999999998 0.44721359549995798 0.89442719099991574 -0 
2 18.559435521429791 -94.456249999999983 -3.1749999999999998 0 0 1 1 0 -0 -0 1 0 0.79374999999999585
1 18.559435521429787 -95.249999999999986 -3.1749999999999998 1 3.7387418900187947e-16 -0 
2 -18.559435521429755 -94.456250000000011 -3.1749999999999998 0 0 1 1 0 -0 -0 1 0 0.79374999999999585
1 -19.26938710428594 -94.811225791428086 -3.1749999999999998 0.44721359549995793 -0.89442719099991586 -0 
2 -56.356249999999989 -18.862621042859541 -3.1749999999999998 0 0 1 1 0 -0 -0 1 0 0.79375000000000273
1 -57.149999999999984 -18.862621042859537 -3.1749999999999998 1.8393238903916678e-16 -1 -0 
2 1.749714114281781e-14 -76.200000000000003 -3.1749999999999998 0 0 1 1 0 -0 -0 1 0 4.1656000000000066
2 -38.100000000000001 0 -3.1749999999999998 0 0 1 1 0 -0 -0 1 0 4.1655999999999986
2 1.749714114281781e-14 -38.100000000000001 -3.1749999999999998 0 0 1 1 0 -0 -0 1 0 4.1655999999999995
2 38.100000000000001 0 -3.1749999999999998 0 0 1 1 0 -0 -0 1 0 4.1655999999999986
2 1.7347234759768071e-14 0 -3.1749999999999998 0 0 1 1 0 -0 -0 1 0 4.1655999999999995
2 1.749714114281781e-14 38.100000000000001 -3.1749999999999998 0 0 1 1 0 -0 -0 1 0 4.1655999999999995
2 1.749714114281781e-14 76.200000000000003 -3.1749999999999998 0 0 1 1 0 -0 -0 1 0 4.165600000000004
1 -57.149999999999984 18.862621042859537 3.1749999999999998 -0 -0 -1 
1 -57.066201582856174 19.217596834287633 3.1749999999999998 -0 -0 -1 
1 -57.149999999999984 -18.862621042859537 3.1749999999999998 -0 -0 -1 
1 -57.066201582856174 -19.217596834287633 3.1749999999999998 -0 -0 -1 
1 -19.26938710428594 -94.811225791428086 3.1749999999999998 -0 -0 -1 
1 -18.559435521429748 -95.25 3.1749999999999998 -0 -0 -1 
1 18.559435521429787 -95.249999999999986 3.1749999999999998 -0 -0 -1 
1 19.269387104285975 -94.811225791428072 3.1749999999999998 -0 -0 -1 
1 57.066201582856209 -19.217596834287633 3.1749999999999998 -0 -0 -1 
1 57.150000000000034 -18.862621042859537 3.1749999999999998 -0 -0 -1 
1 57.15000000000002 18.862621042859537 3.1749999999999998 -0 -0 -1 
1 57.066201582856209 19.217596834287633 3.1749999999999998 -0 -0 -1 
1 19.269387104285975 94.8112257914281 3.1749999999999998 -0 -0 -1 
1 18.559435521429783 95.250000000000014 3.1749999999999998 -0 -0 -1 
1 -18.559435521429752 95.25 3.1749999999999998 -0 -0 -1 
1 -19.26938710428594 94.811225791428086 3.1749999999999998 -0 -0 -1 
Polygon3D 0
PolygonOnTriangulations 0
Surfaces 32
2 1.749714114281781e-14 76.200000000000003 3.1749999999999998 -0 -0 -1 -1 0 0 0 1 -0 4.165600000000004
2 1.749714114281781e-14 76.200000000000003 3.1749999999999998 -0 -0 -1 -1 0 0 0 1 -0 4.165600000000004
1 -56.356249999999989 18.862621042859541 -3.1749999999999998 0 0 1 1 0 -0 -0 1 0 
1 -56.356249999999989 18.862621042859541 3.1749999999999998 0 0 1 1 0 -0 -0 1 0 
2 1.749714114281781e-14 38.100000000000001 3.1749999999999998 -0 -0 -1 -1 0 0 0 1 -0 4.1655999999999995
2 1.749714114281781e-14 38.100000000000001 3.1749999999999998 -0 -0 -1 -1 0 0 0 1 -0 4.1655999999999995
2 1.7347234759768071e-14 0 3.1749999999999998 -0 -0 -1 -1 0 0 0 1 -0 4.1655999999999995
2 1.7347234759768071e-14 0 3.1749999999999998 -0 -0 -1 -1 0 0 0 1 -0 4.1655999999999995
2 38.100000000000001 0 3.1749999999999998 -0 -0 -1 -1 0 0 0 1 -0 4.1655999999999986
2 38.100000000000001 0 3.1749999999999998 -0 -0 -1 -1 0 0 0 1 -0 4.1655999999999986
2 1.749714114281781e-14 -38.100000000000001 3.1749999999999998 -0 -0 -1 -1 0 0 0 1 -0 4.1655999999999995
2 1.749714114281781e-14 -38.100000000000001 3.1749999999999998 -0 -0 -1 -1 0 0 0 1 -0 4.1655999999999995
2 -38.100000000000001 0 3.1749999999999998 -0 -0 -1 -1 0 0 0 1 -0 4.1655999999999986
2 -38.100000000000001 0 3.1749999999999998 -0 -0 -1 -1 0 0 0 1 -0 4.1655999999999986
2 1.749714114281781e-14 -76.200000000000003 3.1749999999999998 -0 -0 -1 -1 0 0 0 1 -0 4.1656000000000066
2 1.749714114281781e-14 -76.200000000000003 3.1749999999999998 -0 -0 -1 -1 0 0 0 1 -0 4.1656000000000066
2 -56.356249999999989 18.862621042859541 3.1749999999999998 -0 -0 -1 -1 0 0 0 1 -0 0.79375000000000273
1 -57.149999999999984 -18.862621042859537 3.1749999999999998 1 1.8393238903916678e-16 -0 -1.8393238903916678e-16 1 0 0 0 1 
2 -56.356249999999989 -18.862621042859541 3.1749999999999998 -0 -0 -1 -1 0 0 0 1 -0 0.79375000000000273
1 -19.26938710428594 -94.811225791428086 3.1749999999999998 0.89442719099991597 0.44721359549995798 -0 -0.44721359549995798 0.89442719099991597 0 0 0 1 
2 -18.559435521429755 -94.456250000000011 3.1749999999999998 -0 -0 -1 -1 0 0 0 1 -0 0.79374999999999585
1 18.559435521429787 -95.249999999999986 3.1749999999999998 -3.7387418900187947e-16 1 0 -1 -3.7387418900187947e-16 0 0 0 1 
2 18.559435521429791 -94.456249999999983 3.1749999999999998 -0 -0 -1 -1 0 0 0 1 -0 0.79374999999999585
1 57.066201582856209 -19.217596834287633 3.1749999999999998 -0.89442719099991586 0.44721359549995804 0 -0.44721359549995804 -0.89442719099991586 0 0 0 1 
2 56.356250000000017 -18.862621042859541 3.1749999999999998 -0 -0 -1 -1 0 0 0 1 -0 0.79375000000000273
1 57.15000000000002 18.862621042859537 3.1749999999999998 -1 -1.8393238903916678e-16 0 1.8393238903916678e-16 -1 0 0 0 1 
2 56.356250000000017 18.862621042859541 3.1749999999999998 -0 -0 -1 -1 0 0 0 1 -0 0.79375000000000273
1 19.269387104285975 94.8112257914281 3.1749999999999998 -0.89442719099991597 -0.44721359549995782 0 0.44721359549995782 -0.89442719099991597 0 0 0 1 
2 18.559435521429791 94.456250000000011 3.1749999999999998 -0 -0 -1 -1 0 0 0 1 -0 0.79374999999999585
1 -18.559435521429752 95.25 3.1749999999999998 3.7387418900187947e-16 -1 0 1 3.7387418900187947e-16 0 -0 0 1 
2 -18.559435521429755 94.456250000000011 3.1749999999999998 -0 -0 -1 -1 0 0 0 1 -0 0.79374999999999585
1 -57.066201582856174 19.217596834287633 3.1749999999999998 0.89442719099991586 -0.44721359549995804 0 0.44721359549995804 0.89442719099991586 0 -0 0 1 
Triangulations 0

TShapes 230
Ve
1e-07
-4.16559999999999 76.2 3.175
0 0

0101101
*
Ve
1e-07
-4.16559999999999 76.2 -3.175
0 0

0101101
*
Ed
 1e-07 1 1 0
1  1 0 -0 6.35
2  1 1 0 -0 6.35
2  2 2 0 -0 6.35
4 CN 1 0 2 0
0

0101000
+230 0 -229 0 *
Ve
1e-07
4.16560000000002 76.2 -3.175
0 0

0101101
*
Ed
 1e-07 1 1 0
1  2 0 3.14159265358979 6.28318530717959
2  3 1 0 3.14159265358979 6.28318530717959
4 C0 1 0 3 0
0

0101000
+229 0 -227 0 *
Ve
1e-07
4.16560000000002 76.2 3.175
0 0

0101101
*
Ed
 1e-07 1 1 0
1  3 0 -0 6.35
2  4 1 0 -0 6.35
2  5 2 0 -0 6.35
4 CN 1 0 2 0
0

0101000
+225 0 -227 0 *
Ed
 1e-07 1 1 0
1  4 0 3.14159265358979 6.28318530717959
2  6 1 0 3.14159265358979 6.28318530717959
4 C0 1 0 4 0
0

0101000
+230 0 -225 0 *
Wi

0101100
+228 0 +226 0 -224 0 -223 0 *
Fa
0  1e-07 1 0

0111000
+222 0 *
Ve
1e-07
-4.16559999999998 38.1 3.175
0 0

0101101
*
Ve
1e-07
-4.16559999999998 38.1 -3.175
0 0

0101101
*
Ed
 1e-07 1 1 0
1  5 0 -0 6.35
2  7 5 0 -0 6.35
2  8 6 0 -0 6.35
4 CN 5 0 6 0
0

0101000
+220 0 -219 0 *
Ve
1e-07
4.16560000000002 38.1 -3.175
0 0

0101101
*
Ed
 1e-07 1 1 0
1  6 0 3.14159265358979 6.28318530717959
2  9 5 0 3.14159265358979 6.28318530717959
4 C0 5 0 3 0
0

0101000
+219 0 -217 0 *
Ve
1e-07
4.16560000000002 38.1 3.175
0 0

0101101
*
Ed
 1e-07 1 1 0
1  7 0 -0 6.35
2  10 5 0 -0 6.35
2  11 6 0 -0 6.35
4 CN 5 0 6 0
0

0101000
+215 0 -217 0 *
Ed
 1e-07 1 1 0
1  8 0 3.14159265358979 6.28318530717959
2  12 5 0 3.14159265358979 6.28318530717959
4 C0 5 0 4 0
0

0101000
+220 0 -215 0 *
Wi

0101100
+218 0 +216 0 -214 0 -213 0 *
Fa
0  1e-07 5 0

0111000
+212 0 *
Ve
1e-07
-4.16559999999998 0 3.175
0 0

0101101
*
Ve
1e-07
-4.16559999999998 0 -3.175
0 0

0101101
*
Ed
 1e-07 1 1 0
1  9 0 -0 6.35
2  13 7 0 -0 6.35
2  14 8 0 -0 6.35
4 CN 7 0 8 0
0

0101000
+210 0 -209 0 *
Ve
1e-07
4.16560000000002 5.10138870652821e-16 -3.175
0 0

0101101
*
Ed
 1e-07 1 1 0
1  10 0 3.14159265358979 6.28318530717959
2  15 7 0 3.14159265358979 6.28318530717959
4 C0 7 0 3 0
0

0101000
+209 0 -207 0 *
Ve
1e-07
4.16560000000002 5.10138870652821e-16 3.175
0 0

0101101
*
Ed
 1e-07 1 1 0
1  11 0 -0 6.35
2  16 7 0 -0 6.35
2  17 8 0 -0 6.35
4 CN 7 0 8 0
0

0101000
+205 0 -207 0 *
Ed
 1e-07 1 1 0
1  12 0 3.14159265358979 6.28318530717959
2  18 7 0 3.14159265358979 6.28318530717959
4 C0 7 0 4 0
0

0101000
+210 0 -205 0 *
Wi

0101100
+208 0 +206 0 -204 0 -203 0 *
Fa
0  1e-07 7 0

0111000
+202 0 *
Ve
1e-07
33.9344 0 3.175
0 0

0101101
*
Ve
1e-07
33.9344 0 -3.175
0 0

0101101
*
Ed
 1e-07 1 1 0
1  13 0 -0 6.35
2  19 9 0 -0 6.35
2  20 10 0 -0 6.35
4 CN 9 0 10 0
0

0101000
+200 0 -199 0 *
Ve
1e-07
42.2656 5.10138870652821e-16 -3.175
0 0

0101101
*
Ed
 1e-07 1 1 0
1  14 0 3.14159265358979 6.28318530717959
2  21 9 0 3.14159265358979 6.28318530717959
4 C0 9 0 3 0
0

0101000
+199 0 -197 0 *
Ve
1e-07
42.2656 5.10138870652821e-16 3.175
0 0

0101101
*
Ed
 1e-07 1 1 0
1  15 0 -0 6.35
2  22 9 0 -0 6.35
2  23 10 0 -0 6.35
4 CN 9 0 10 0
0

0101000
+195 0 -197 0 *
Ed
 1e-07 1 1 0
1  16 0 3.14159265358979 6.28318530717959
2  24 9 0 3.14159265358979 6.28318530717959
4 C0 9 0 4 0
0

0101000
+200 0 -195 0 *
Wi

0101100
+198 0 +196 0 -194 0 -193 0 *
Fa
0  1e-07 9 0

0111000
+192 0 *
Ve
1e-07
-4.16559999999998 -38.1 3.175
0 0

0101101
*
Ve
1e-07
-4.16559999999998 -38.1 -3.175
0 0

0101101
*
Ed
 1e-07 1 1 0
1  17 0 -0 6.35
2  25 11 0 -0 6.35
2  26 12 0 -0 6.35
4 CN 11 0 12 0
0

0101000
+190 0 -189 0 *
Ve
1e-07
4.16560000000002 -38.1 -3.175
0 0

0101101
*
Ed
 1e-07 1 1 0
1  18 0 3.14159265358979 6.28318530717959
2  27 11 0 3.14159265358979 6.28318530717959
4 C0 11 0 3 0
0

0101000
+189 0 -187 0 *
Ve
1e-07
4.16560000000002 -38.1 3.175
0 0

0101101
*
Ed
 1e-07 1 1 0
1  19 0 -0 6.35
2  28 11 0 -0 6.35
2  29 12 0 -0 6.35
4 CN 11 0 12 0
0

0101000
+185 0 -187 0 *
Ed
 1e-07 1 1 0
1  20 0 3.14159265358979 6.28318530717959
2  30 11 0 3.14159265358979 6.28318530717959
4 C0 11 0 4 0
0

0101000
+190 0 -185 0 *
Wi

0101100
+188 0 +186 0 -184 0 -183 0 *
Fa
0  1e-07 11 0

0111000
+182 0 *
Ve
1e-07
-42.2656 0 3.175
0 0

0101101
*
Ve
1e-07
-42.2656 0 -3.175
0 0

0101101
*
Ed
 1e-07 1 1 0
1  21 0 -0 6.35
2  31 13 0 -0 6.35
2  32 14 0 -0 6.35
4 CN 13 0 14 0
0

0101000
+180 0 -179 0 *
Ve
1e-07
-33.9344 5.10138870652821e-16 -3.175
0 0

0101101
*
Ed
 1e-07 1 1 0
1  22 0 3.14159265358979 6.28318530717959
2  33 13 0 3.14159265358979 6.28318530717959
4 C0 13 0 3 0
0

0101000
+179 0 -177 0 *
Ve
1e-07
-33.9344 5.10138870652821e-16 3.175
0 0

0101101
*
Ed
 1e-07 1 1 0
1  23 0 -0 6.35
2  34 13 0 -0 6.35
2  35 14 0 -0 6.35
4 CN 13 0 14 0
0

0101000
+175 0 -177 0 *
Ed
 1e-07 1 1 0
1  24 0 3.14159265358979 6.28318530717959
2  36 13 0 3.14159265358979 6.28318530717959
4 C0 13 0 4 0
0

0101000
+180 0 -175 0 *
Wi

0101100
+178 0 +176 0 -174 0 -173 0 *
Fa
0  1e-07 13 0

0111000
+172 0 *
Ve
1e-07
-4.16559999999999 -76.2 3.175
0 0

0101101
*
Ve
1e-07
-4.16559999999999 -76.2 -3.175
0 0

0101101
*
Ed
 1e-07 1 1 0
1  25 0 -0 6.35
2  37 15 0 -0 6.35
2  38 16 0 -0 6.35
4 CN 15 0 16 0
0

0101000
+170 0 -169 0 *
Ve
1e-07
4.16560000000002 -76.2 -3.175
0 0

0101101
*
Ed
 1e-07 1 1 0
1  26 0 3.14159265358979 6.28318530717959
2  39 15 0 3.14159265358979 6.28318530717959
4 C0 15 0 3 0
0

0101000
+169 0 -167 0 *
Ve
1e-07
4.16560000000002 -76.2 3.175
0 0

0101101
*
Ed
 1e-07 1 1 0
1  27 0 -0 6.35
2  40 15 0 -0 6.35
2  41 16 0 -0 6.35
4 CN 15 0 16 0
0

0101000
+165 0 -167 0 *
Ed
 1e-07 1 1 0
1  28 0 3.14159265358979 6.28318530717959
2  42 15 0 3.14159265358979 6.28318530717959
4 C0 15 0 4 0
0

0101000
+170 0 -165 0 *
Wi

0101100
+168 0 +166 0 -164 0 -163 0 *
Fa
0  1e-07 15 0

0111000
+162 0 *
Ed
 1e-07 1 1 0
1  29 0 0 3.14159265358979
2  43 6 0 0 3.14159265358979
4 C0 4 0 6 0
0

0101000
+215 0 -220 0 *
Wi

0101100
-213 0 -160 0 *
Ed
 1e-07 1 1 0
1  30 0 0 3.14159265358979
2  44 10 0 0 3.14159265358979
4 C0 4 0 10 0
0

0101000
+195 0 -200 0 *
Wi

0101100
-193 0 -158 0 *
Ed
 1e-07 1 1 0
1  31 0 0 3.14159265358979
2  45 14 0 0 3.14159265358979
4 C0 4 0 14 0
0

0101000
+175 0 -180 0 *
Wi

0101100
-173 0 -156 0 *
Ve
1e-07
-57.0662015828562 19.2175968342876 3.175
0 0

0101101
*
Ve
1e-07
-57.15 18.8626210428595 3.175
0 0

0101101
*
Ed
 1e-07 1 1 0
1  32 0 2.67794504458899 3.14159265358979
2  46 17 0 2.67794504458899 3.14159265358979
4 C0 4 0 17 0
0

0101000
+154 0 -153 0 *
Ve
1e-07
-57.15 -18.8626210428595 3.175
0 0

0101101
*
Ed
 1e-07 1 1 0
1  33 0 -37.7252420857191 0
4 C0 4 0 18 0
0

0101000
+153 0 -151 0 *
Ve
1e-07
-57.0662015828562 -19.2175968342876 3.175
0 0

0101101
*
Ed
 1e-07 1 1 0
1  34 0 3.14159265358979 3.6052402625906
2  47 19 0 3.14159265358979 3.6052402625906
4 C0 4 0 19 0
0

0101000
+151 0 -149 0 *
Ve
1e-07
-19.2693871042859 -94.8112257914281 3.175
0 0

0101101
*
Ed
 1e-07 1 1 0
1  35 0 -84.5162465070313 0
4 C0 4 0 20 0
0

0101000
+149 0 -147 0 *
Ve
1e-07
-18.5594355214297 -95.25 3.175
0 0

0101101
*
Ed
 1e-07 1 1 0
1  36 0 3.60524026259058 4.7123889803847
2  48 21 0 3.60524026259058 4.7123889803847
4 C0 4 0 21 0
0

0101000
+147 0 -145 0 *
Ve
1e-07
18.5594355214298 -95.25 3.175
0 0

0101101
*
Ed
 1e-07 1 1 0
1  37 0 -37.1188710428595 0
4 C0 4 0 22 0
0

0101000
+145 0 -143 0 *
Ve
1e-07
19.269387104286 -94.8112257914281 3.175
0 0

0101101
*
Ed
 1e-07 1 1 0
1  38 0 4.71238898038469 5.81953769817878
2  49 23 0 4.71238898038469 5.81953769817878
4 C0 4 0 23 0
0

0101000
+143 0 -141 0 *
Ve
1e-07
57.0662015828562 -19.2175968342876 3.175
0 0

0101101
*
Ed
 1e-07 1 1 0
1  39 0 -84.5162465070313 0
4 C0 4 0 24 0
0

0101000
+141 0 -139 0 *
Ve
1e-07
57.15 -18.8626210428595 3.175
0 0

0101101
*
Ed
 1e-07 1 1 0
1  40 0 5.81953769817878 6.28318530717959
2  50 25 0 5.81953769817878 6.28318530717959
4 C0 4 0 25 0
0

0101000
+139 0 -137 0 *
Ve
1e-07
57.15 18.8626210428595 3.175
0 0

0101101
*
Ed
 1e-07 1 1 0
1  41 0 -37.7252420857191 0
4 C0 4 0 26 0
0

0101000
+137 0 -135 0 *
Ve
1e-07
57.0662015828562 19.2175968342876 3.175
0 0

0101101
*
Ed
 1e-07 1 1 0
1  42 0 0 0.463647609000802
2  51 27 0 0 0.463647609000802
4 C0 4 0 27 0
0

0101000
+135 0 -133 0 *
Ve
1e-07
19.269387104286 94.8112257914281 3.175
0 0

0101101
*
Ed
 1e-07 1 1 0
1  43 0 -84.5162465070313 0
4 C0 4 0 28 0
0

0101000
+133 0 -131 0 *
Ve
1e-07
18.5594355214298 95.25 3.175
0 0

0101101
*
Ed
 1e-07 1 1 0
1  44 0 0.463647609000802 1.57079632679491
2  52 29 0 0.463647609000802 1.57079632679491
4 C0 4 0 29 0
0

0101000
+131 0 -129 0 *
Ve
1e-07
-18.5594355214298 95.25 3.175
0 0

0101101
*
Ed
 1e-07 1 1 0
1  45 0 -37.1188710428595 -0
4 C0 4 0 30 0
0

0101000
+129 0 -127 0 *
Ve
1e-07
-19.2693871042859 94.8112257914281 3.175
0 0

0101101
*
Ed
 1e-07 1 1 0
1  46 0 1.57079632679489 2.67794504458901
2  53 31 0 1.57079632679489 2.67794504458901
4 C0 4 0 31 0
0

0101000
+127 0 -125 0 *
Ed
 1e-07 1 1 0
1  47 0 -84.5162465070313 -0
4 C0 4 0 32 0
0

0101000
+125 0 -154 0 *
Wi

0101100
+152 0 +150 0 +148 0 +146 0 +144 0 +142 0 +140 0 +138 0 +136 0 +134 0 
+132 0 +130 0 +128 0 +126 0 +124 0 +123 0 *
Ed
 1e-07 1 1 0
1  48 0 0 3.14159265358979
2  54 16 0 0 3.14159265358979
4 C0 4 0 16 0
0

0101000
+165 0 -170 0 *
Wi

0101100
-163 0 -121 0 *
Ed
 1e-07 1 1 0
1  49 0 0 3.14159265358979
2  55 12 0 0 3.14159265358979
4 C0 4 0 12 0
0

0101000
+185 0 -190 0 *
Wi

0101100
-183 0 -119 0 *
Ed
 1e-07 1 1 0
1  50 0 0 3.14159265358979
2  56 8 0 0 3.14159265358979
4 C0 4 0 8 0
0

0101000
+205 0 -210 0 *
Wi

0101100
-203 0 -117 0 *
Ed
 1e-07 1 1 0
1  51 0 0 3.14159265358979
2  57 2 0 0 3.14159265358979
4 C0 4 0 2 0
0

0101000
+225 0 -230 0 *
Wi

0101100
-223 0 -115 0 *
Fa
0  1e-07 4 0

0111000
+159 0 +157 0 +155 0 +122 0 +120 0 +118 0 +116 0 +114 0 *
Ve
1e-07
-57.0662015828562 19.2175968342876 -3.175
0 0

0101101
*
Ve
1e-07
-57.15 18.8626210428595 -3.175
0 0

0101101
*
Ed
 1e-07 1 1 0
1  52 0 2.67794504458899 3.14159265358979
2  58 17 0 2.67794504458899 3.14159265358979
4 C0 3 0 17 0
0

0101000
+112 0 -111 0 *
Ve
1e-07
-19.2693871042859 94.8112257914281 -3.175
0 0

0101101
*
Ed
 1e-07 1 1 0
1  53 0 -84.5162465070313 -0
4 C0 3 0 32 0
0

0101000
+109 0 -112 0 *
Ve
1e-07
-18.5594355214298 95.25 -3.175
0 0

0101101
*
Ed
 1e-07 1 1 0
1  54 0 1.57079632679489 2.67794504458901
2  59 31 0 1.57079632679489 2.67794504458901
4 C0 3 0 31 0
0

0101000
+107 0 -109 0 *
Ve
1e-07
18.5594355214298 95.25 -3.175
0 0

0101101
*
Ed
 1e-07 1 1 0
1  55 0 -37.1188710428595 -0
4 C0 3 0 30 0
0

0101000
+105 0 -107 0 *
Ve
1e-07
19.269387104286 94.8112257914281 -3.175
0 0

0101101
*
Ed
 1e-07 1 1 0
1  56 0 0.463647609000802 1.57079632679491
2  60 29 0 0.463647609000802 1.57079632679491
4 C0 3 0 29 0
0

0101000
+103 0 -105 0 *
Ve
1e-07
57.0662015828562 19.2175968342876 -3.175
0 0

0101101
*
Ed
 1e-07 1 1 0
1  57 0 -84.5162465070313 0
4 C0 3 0 28 0
0

0101000
+101 0 -103 0 *
Ve
1e-07
57.15 18.8626210428595 -3.175
0 0

0101101
*
Ed
 1e-07 1 1 0
1  58 0 0 0.463647609000802
2  61 27 0 0 0.463647609000802
4 C0 3 0 27 0
0

0101000
+99 0 -101 0 *
Ve
1e-07
57.15 -18.8626210428595 -3.175
0 0

0101101
*
Ed
 1e-07 1 1 0
1  59 0 -37.7252420857191 0
4 C0 3 0 26 0
0

0101000
+97 0 -99 0 *
Ve
1e-07
57.0662015828562 -19.2175968342876 -3.175
0 0

0101101
*
Ed
 1e-07 1 1 0
1  60 0 5.81953769817878 6.28318530717959
2  62 25 0 5.81953769817878 6.28318530717959
4 C0 3 0 25 0
0

0101000
+95 0 -97 0 *
Ve
1e-07
19.269387104286 -94.8112257914281 -3.175
0 0

0101101
*
Ed
 1e-07 1 1 0
1  61 0 -84.5162465070313 0
4 C0 3 0 24 0
0

0101000
+93 0 -95 0 *
Ve
1e-07
18.5594355214298 -95.25 -3.175
0 0

0101101
*
Ed
 1e-07 1 1 0
1  62 0 4.71238898038469 5.81953769817878
2  63 23 0 4.71238898038469 5.81953769817878
4 C0 3 0 23 0
0

0101000
+91 0 -93 0 *
Ve
1e-07
-18.5594355214297 -95.25 -3.175
0 0

0101101
*
Ed
 1e-07 1 1 0
1  63 0 -37.1188710428595 0
4 C0 3 0 22 0
0

0101000
+89 0 -91 0 *
Ve
1e-07
-19.2693871042859 -94.8112257914281 -3.175
0 0

0101101
*
Ed
 1e-07 1 1 0
1  64 0 3.60524026259058 4.7123889803847
2  64 21 0 3.60524026259058 4.7123889803847
4 C0 3 0 21 0
0

0101000
+87 0 -89 0 *
Ve
1e-07
-57.0662015828562 -19.2175968342876 -3.175
0 0

0101101
*
Ed
 1e-07 1 1 0
1  65 0 -84.5162465070313 0
4 C0 3 0 20 0
0

0101000
+85 0 -87 0 *
Ve
1e-07
-57.15 -18.8626210428595 -3.175
0 0

0101101
*
Ed
 1e-07 1 1 0
1  66 0 3.14159265358979 3.6052402625906
2  65 19 0 3.14159265358979 3.6052402625906
4 C0 3 0 19 0
0

0101000
+83 0 -85 0 *
Ed
 1e-07 1 1 0
1  67 0 -37.7252420857191 0
4 C0 3 0 18 0
0

0101000
+111 0 -83 0 *
Wi

0101100
-110 0 -108 0 -106 0 -104 0 -102 0 -100 0 -98 0 -96 0 -94 0 -92 0 
-90 0 -88 0 -86 0 -84 0 -82 0 -81 0 *
Ed
 1e-07 1 1 0
1  68 0 0 3.14159265358979
2  66 16 0 0 3.14159265358979
4 C0 3 0 16 0
0

0101000
+167 0 -169 0 *
Wi

0101100
+166 0 +79 0 *
Ed
 1e-07 1 1 0
1  69 0 0 3.14159265358979
2  67 14 0 0 3.14159265358979
4 C0 3 0 14 0
0

0101000
+177 0 -179 0 *
Wi

0101100
+176 0 +77 0 *
Ed
 1e-07 1 1 0
1  70 0 0 3.14159265358979
2  68 12 0 0 3.14159265358979
4 C0 3 0 12 0
0

0101000
+187 0 -189 0 *
Wi

0101100
+186 0 +75 0 *
Ed
 1e-07 1 1 0
1  71 0 0 3.14159265358979
2  69 10 0 0 3.14159265358979
4 C0 3 0 10 0
0

0101000
+197 0 -199 0 *
Wi

0101100
+196 0 +73 0 *
Ed
 1e-07 1 1 0
1  72 0 0 3.14159265358979
2  70 8 0 0 3.14159265358979
4 C0 3 0 8 0
0

0101000
+207 0 -209 0 *
Wi

0101100
+206 0 +71 0 *
Ed
 1e-07 1 1 0
1  73 0 0 3.14159265358979
2  71 6 0 0 3.14159265358979
4 C0 3 0 6 0
0

0101000
+217 0 -219 0 *
Wi

0101100
+216 0 +69 0 *
Ed
 1e-07 1 1 0
1  74 0 0 3.14159265358979
2  72 2 0 0 3.14159265358979
4 C0 3 0 2 0
0

0101000
+227 0 -229 0 *
Wi

0101100
+226 0 +67 0 *
Fa
0  1e-07 3 0

0111000
-80 0 -78 0 -76 0 -74 0 -72 0 -70 0 -68 0 -66 0 *
Ed
 1e-07 1 1 0
1  75 0 -0 6.35
2  73 17 0 -0 6.35
4 G1 17 0 18 0
0

0101000
+153 0 -111 0 *
Ed
 1e-07 1 1 0
1  76 0 -0 6.35
2  74 17 0 -0 6.35
4 G1 17 0 32 0
0

0101000
+154 0 -112 0 *
Wi

0101100
+110 0 -64 0 -152 0 +63 0 *
Fa
0  1e-07 17 0

0111000
+62 0 *
Ed
 1e-07 1 1 0
1  77 0 -0 6.35
2  75 19 0 -0 6.35
4 G1 18 0 19 0
0

0101000
+151 0 -83 0 *
Wi

0101100
+81 0 -60 0 -150 0 +64 0 *
Fa
0  1e-07 18 0

0111000
-59 0 *
Ed
 1e-07 1 1 0
1  78 0 -0 6.35
2  76 19 0 -0 6.35
4 G1 19 0 20 0
0

0101000
+149 0 -85 0 *
Wi

0101100
+82 0 -57 0 -148 0 +60 0 *
Fa
0  1e-07 19 0

0111000
+56 0 *
Ed
 1e-07 1 1 0
1  79 0 -0 6.35
2  77 21 0 -0 6.35
4 G1 20 0 21 0
0

0101000
+147 0 -87 0 *
Wi

0101100
+84 0 -54 0 -146 0 +57 0 *
Fa
0  1e-07 20 0

0111000
-53 0 *
Ed
 1e-07 1 1 0
1  80 0 -0 6.35
2  78 21 0 -0 6.35
4 G1 21 0 22 0
0

0101000
+145 0 -89 0 *
Wi

0101100
+86 0 -51 0 -144 0 +54 0 *
Fa
0  1e-07 21 0

0111000
+50 0 *
Ed
 1e-07 1 1 0
1  81 0 -0 6.35
2  79 23 0 -0 6.35
4 G1 22 0 23 0
0

0101000
+143 0 -91 0 *
Wi

0101100
+88 0 -48 0 -142 0 +51 0 *
Fa
0  1e-07 22 0

0111000
-47 0 *
Ed
 1e-07 1 1 0
1  82 0 -0 6.35
2  80 23 0 -0 6.35
4 G1 23 0 24 0
0

0101000
+141 0 -93 0 *
Wi

0101100
+90 0 -45 0 -140 0 +48 0 *
Fa
0  1e-07 23 0

0111000
+44 0 *
Ed
 1e-07 1 1 0
1  83 0 -0 6.35
2  81 25 0 -0 6.35
4 G1 24 0 25 0
0

0101000
+139 0 -95 0 *
Wi

0101100
+92 0 -42 0 -138 0 +45 0 *
Fa
0  1e-07 24 0

0111000
-41 0 *
Ed
 1e-07 1 1 0
1  84 0 -0 6.35
2  82 25 0 -0 6.35
4 G1 25 0 26 0
0

0101000
+137 0 -97 0 *
Wi

0101100
+94 0 -39 0 -136 0 +42 0 *
Fa
0  1e-07 25 0

0111000
+38 0 *
Ed
 1e-07 1 1 0
1  85 0 -0 6.35
2  83 27 0 -0 6.35
4 G1 26 0 27 0
0

0101000
+135 0 -99 0 *
Wi

0101100
+96 0 -36 0 -134 0 +39 0 *
Fa
0  1e-07 26 0

0111000
-35 0 *
Ed
 1e-07 1 1 0
1  86 0 -0 6.35
2  84 27 0 -0 6.35
4 G1 27 0 28 0
0

0101000
+133 0 -101 0 *
Wi

0101100
+98 0 -33 0 -132 0 +36 0 *
Fa
0  1e-07 27 0

0111000
+32 0 *
Ed
 1e-07 1 1 0
1  87 0 -0 6.35
2  85 29 0 -0 6.35
4 G1 28 0 29 0
0

0101000
+131 0 -103 0 *
Wi

0101100
+100 0 -30 0 -130 0 +33 0 *
Fa
0  1e-07 28 0

0111000
-29 0 *
Ed
 1e-07 1 1 0
1  88 0 -0 6.35
2  86 29 0 -0 6.35
4 G1 29 0 30 0
0

0101000
+129 0 -105 0 *
Wi

0101100
+102 0 -27 0 -128 0 +30 0 *
Fa
0  1e-07 29 0

0111000
+26 0 *
Ed
 1e-07 1 1 0
1  89 0 -0 6.35
2  87 31 0 -0 6.35
4 G1 30 0 31 0
0

0101000
+127 0 -107 0 *
Wi

0101100
+104 0 -24 0 -126 0 +27 0 *
Fa
0  1e-07 30 0

0111000
-23 0 *
Ed
 1e-07 1 1 0
1  90 0 -0 6.35
2  88 31 0 -0 6.35
4 G1 31 0 32 0
0

0101000
+125 0 -109 0 *
Wi

0101100
+106 0 -21 0 -124 0 +24 0 *
Fa
0  1e-07 31 0

0111000
+20 0 *
Wi

0101100
+108 0 -63 0 -123 0 +21 0 *
Fa
0  1e-07 32 0

0111000
-18 0 *
Wi

0101100
+79 0 -168 0 -121 0 +164 0 *
Fa
0  1e-07 16 0

0111000
+16 0 *
Wi

0101100
+77 0 -178 0 -156 0 +174 0 *
Fa
0  1e-07 14 0

0111000
+14 0 *
Wi

0101100
+75 0 -188 0 -119 0 +184 0 *
Fa
0  1e-07 12 0

0111000
+12 0 *
Wi

0101100
+73 0 -198 0 -158 0 +194 0 *
Fa
0  1e-07 10 0

0111000
+10 0 *
Wi

0101100
+71 0 -208 0 -117 0 +204 0 *
Fa
0  1e-07 8 0

0111000
+8 0 *
Wi

0101100
+69 0 -218 0 -160 0 +214 0 *
Fa
0  1e-07 6 0

0111000
+6 0 *
Wi

0101100
+67 0 -228 0 -115 0 +224 0 *
Fa
0  1e-07 2 0

0111000
+4 0 *
Sh

0101100
-221 0 -211 0 -201 0 -191 0 -181 0 -171 0 -161 0 +113 0 -65 0 +61 0 
-58 0 +55 0 -52 0 +49 0 -46 0 +43 0 -40 0 +37 0 -34 0 +31 0 
-28 0 +25 0 -22 0 +19 0 -17 0 -15 0 -13 0 -11 0 -9 0 -7 0 
-5 0 -3 0 *
So

0100000
+2 0 *

+1 0 