
CASCADE Topology V3, (c) Open Cascade
Locations 0
Curve2ds 80
1 6.2831853071795862 0 0 1 
1 0 0 0 1 
1 9.4247779607693793 6.3499999999999996 -1 0 
1 3.1415926535897931 0 0 1 
1 3.1415926535897931 0 0 1 
1 9.4247779607693793 0 -1 0 
1 6.2831853071795862 0 0 1 
1 0 0 0 1 
1 9.4247779607693793 6.3499999999999996 -1 0 
1 3.1415926535897931 0 0 1 
1 3.1415926535897931 0 0 1 
1 9.4247779607693793 0 -1 0 
1 6.2831853071795862 0 0 1 
1 0 0 0 1 
1 9.4247779607693793 6.3499999999999996 -1 0 
1 3.1415926535897931 0 0 1 
1 3.1415926535897931 0 0 1 
1 9.4247779607693793 0 -1 0 
1 6.2831853071795862 0 0 1 
1 0 0 0 1 
1 9.4247779607693793 6.3499999999999996 -1 0 
1 3.1415926535897931 0 0 1 
1 3.1415926535897931 0 0 1 
1 9.4247779607693793 0 -1 0 
1 6.2831853071795862 0 0 1 
1 0 0 0 1 
1 9.4247779607693793 6.3499999999999996 -1 0 
1 3.1415926535897931 0 0 1 
1 3.1415926535897931 0 0 1 
1 9.4247779607693793 0 -1 0 
1 6.2831853071795862 0 0 1 
1 0 0 0 1 
1 9.4247779607693793 6.3499999999999996 -1 0 
1 3.1415926535897931 0 0 1 
1 3.1415926535897931 0 0 1 
1 9.4247779607693793 0 -1 0 
1 6.2831853071795862 0 0 1 
1 0 0 0 1 
1 9.4247779607693793 6.3499999999999996 -1 0 
1 3.1415926535897931 0 0 1 
1 3.1415926535897931 0 0 1 
1 9.4247779607693793 0 -1 0 
1 3.1415926535897931 0 -1 0 
1 3.1415926535897931 0 -1 0 
1 3.1415926535897931 0 -1 0 
1 9.4247779607693793 0 -1 0 
1 3.1415926535897931 0 -1 0 
1 3.1415926535897931 0 -1 0 
1 3.1415926535897931 0 -1 0 
1 3.1415926535897931 0 -1 0 
1 9.4247779607693793 0 -1 0 
1 3.1415926535897931 0 -1 0 
1 3.1415926535897931 0 -1 0 
1 3.1415926535897931 0 -1 0 
1 3.1415926535897931 0 -1 0 
1 9.4247779607693793 6.3499999999999996 -1 0 
1 9.4247779607693793 6.3499999999999996 -1 0 
1 3.1415926535897931 6.3499999999999996 -1 0 
1 3.1415926535897931 6.3499999999999996 -1 0 
1 3.1415926535897931 6.3499999999999996 -1 0 
1 3.1415926535897931 6.3499999999999996 -1 0 
1 3.1415926535897931 6.3499999999999996 -1 0 
1 3.1415926535897931 6.3499999999999996 -1 0 
1 3.1415926535897931 6.3499999999999996 -1 0 
1 3.1415926535897931 6.3499999999999996 -1 0 
1 3.1415926535897931 6.3499999999999996 -1 0 
1 3.1415926535897931 6.3499999999999996 -1 0 
1 3.1415926535897931 6.3499999999999996 -1 0 
1 3.1415926535897754 0 0 1 
1 4.7123889803847074 0 0 1 
1 3.1415926535897931 0 0 1 
1 2.677945044588987 0 0 1 
1 2.677945044588991 0 0 1 
1 1.5707963267948921 0 0 1 
1 1.5707963267949012 0 0 1 
1 0.46364760900078811 0 0 1 
1 0.46364760900082208 0 0 1 
1 0 0 0 1 
1 6.2831853071795862 0 0 1 
1 4.7123889803846541 0 0 1 
Curves 78
1 -4.165600000000004 57.149999999999984 3.1749999999999998 -0 -0 -1 
2 0 57.149999999999984 -3.1749999999999998 0 0 1 1 0 -0 -0 1 0 4.165600000000004
1 4.165600000000004 57.149999999999984 3.1749999999999998 -0 -0 -1 
2 0 57.149999999999984 3.1749999999999998 0 0 1 1 0 -0 -0 1 0 4.165600000000004
1 -4.1655999999999995 19.04999999999999 3.1749999999999998 -0 -0 -1 
2 0 19.04999999999999 -3.1749999999999998 0 0 1 1 0 -0 -0 1 0 4.1655999999999995
1 4.1655999999999995 19.04999999999999 3.1749999999999998 -0 -0 -1 
2 0 19.04999999999999 3.1749999999999998 0 0 1 1 0 -0 -0 1 0 4.1655999999999995
1 -4.1655999999999995 -19.050000000000011 3.1749999999999998 -0 -0 -1 
2 0 -19.050000000000011 -3.1749999999999998 0 0 1 1 0 -0 -0 1 0 4.1655999999999995
1 4.1655999999999995 -19.050000000000011 3.1749999999999998 -0 -0 -1 
2 0 -19.050000000000011 3.1749999999999998 0 0 1 1 0 -0 -0 1 0 4.1655999999999995
1 -23.215599999999988 -57.15000000000002 3.1749999999999998 -0 -0 -1 
2 -19.04999999999999 -57.15000000000002 -3.1749999999999998 0 0 1 1 0 -0 -0 1 0 4.1655999999999986
1 -14.884399999999992 -57.15000000000002 3.1749999999999998 -0 -0 -1 
2 -19.04999999999999 -57.15000000000002 3.1749999999999998 0 0 1 1 0 -0 -0 1 0 4.1655999999999986
1 -61.315599999999989 -57.15000000000002 3.1749999999999998 -0 -0 -1 
2 -57.149999999999984 -57.15000000000002 -3.1749999999999998 0 0 1 1 0 -0 -0 1 0 4.1655999999999986
1 -52.984399999999994 -57.15000000000002 3.1749999999999998 -0 -0 -1 
2 -57.149999999999984 -57.15000000000002 3.1749999999999998 0 0 1 1 0 -0 -0 1 0 4.1655999999999986
1 14.884400000000012 -57.15000000000002 3.1749999999999998 -0 -0 -1 
2 19.050000000000011 -57.15000000000002 -3.1749999999999998 0 0 1 1 0 -0 -0 1 0 4.1655999999999986
1 23.215600000000009 -57.15000000000002 3.1749999999999998 -0 -0 -1 
2 19.050000000000011 -57.15000000000002 3.1749999999999998 0 0 1 1 0 -0 -0 1 0 4.1655999999999986
1 52.984400000000015 -57.15000000000002 3.1749999999999998 -0 -0 -1 
2 57.150000000000006 -57.15000000000002 -3.1749999999999998 0 0 1 1 0 -0 -0 1 0 4.1655999999999986
1 61.315600000000011 -57.15000000000002 3.1749999999999998 -0 -0 -1 
2 57.150000000000006 -57.15000000000002 3.1749999999999998 0 0 1 1 0 -0 -0 1 0 4.1655999999999986
2 0 19.04999999999999 3.1749999999999998 0 0 1 1 0 -0 -0 1 0 4.1655999999999995
2 -19.04999999999999 -57.15000000000002 3.1749999999999998 0 0 1 1 0 -0 -0 1 0 4.1655999999999986
2 19.050000000000011 -57.15000000000002 3.1749999999999998 0 0 1 1 0 -0 -0 1 0 4.1655999999999986
2 75.406250000000014 -75.406250000000028 3.1749999999999998 0 0 1 1 0 -0 -0 1 0 0.79374999999999585
1 76.200000000000003 -38.28737895714049 3.1749999999999998 -3.7387418900187957e-16 1 -0 
2 75.40625 -38.28737895714049 3.1749999999999998 0 0 1 1 0 -0 -0 1 0 0.79374999999999585
1 19.269387104285961 75.761225791428089 3.1749999999999998 -0.44721359549995787 0.89442719099991586 -0 
2 18.559435521429773 75.40625 3.1749999999999998 0 0 1 1 0 -0 -0 1 0 0.79374999999999929
1 -18.559435521429766 76.199999999999989 3.1749999999999998 -1 -3.7387418900187947e-16 -0 
2 -18.559435521429769 75.40625 3.1749999999999998 0 0 1 1 0 -0 -0 1 0 0.79374999999999585
1 -76.116201582856178 -37.93240316571238 3.1749999999999998 -0.44721359549995793 -0.89442719099991586 -0 
2 -75.40625 -38.287378957140483 3.1749999999999998 0 0 1 1 0 -0 -0 1 0 0.79374999999999585
1 -76.199999999999989 -75.40625 3.1749999999999998 3.7387418900187957e-16 -1 -0 
2 -75.40625 -75.406250000000014 3.1749999999999998 0 0 1 1 0 -0 -0 1 0 0.79374999999999585
1 75.40625 -76.200000000000031 3.1749999999999998 1 -9.2020142944480436e-17 -0 
2 57.150000000000006 -57.15000000000002 3.1749999999999998 0 0 1 1 0 -0 -0 1 0 4.1655999999999986
2 -57.149999999999984 -57.15000000000002 3.1749999999999998 0 0 1 1 0 -0 -0 1 0 4.1655999999999986
2 0 -19.050000000000011 3.1749999999999998 0 0 1 1 0 -0 -0 1 0 4.1655999999999995
2 0 57.149999999999984 3.1749999999999998 0 0 1 1 0 -0 -0 1 0 4.165600000000004
2 75.406250000000014 -75.406250000000028 -3.1749999999999998 0 0 1 1 0 -0 -0 1 0 0.79374999999999585
1 75.40625 -76.200000000000031 -3.1749999999999998 1 -9.2020142944480436e-17 -0 
2 -75.40625 -75.406250000000014 -3.1749999999999998 0 0 1 1 0 -0 -0 1 0 0.79374999999999585
1 -76.199999999999989 -75.40625 -3.1749999999999998 3.7387418900187957e-16 -1 -0 
2 -75.40625 -38.287378957140483 -3.1749999999999998 0 0 1 1 0 -0 -0 1 0 0.79374999999999585
1 -76.116201582856178 -37.93240316571238 -3.1749999999999998 -0.44721359549995793 -0.89442719099991586 -0 
2 -18.559435521429769 75.40625 -3.1749999999999998 0 0 1 1 0 -0 -0 1 0 0.79374999999999585
1 -18.559435521429766 76.199999999999989 -3.1749999999999998 -1 -3.7387418900187947e-16 -0 
2 18.559435521429773 75.40625 -3.1749999999999998 0 0 1 1 0 -0 -0 1 0 0.79374999999999929
1 19.269387104285961 75.761225791428089 -3.1749999999999998 -0.44721359549995787 0.89442719099991586 -0 
2 75.40625 -38.28737895714049 -3.1749999999999998 0 0 1 1 0 -0 -0 1 0 0.79374999999999585
1 76.200000000000003 -38.28737895714049 -3.1749999999999998 -3.7387418900187957e-16 1 -0 
2 57.150000000000006 -57.15000000000002 -3.1749999999999998 0 0 1 1 0 -0 -0 1 0 4.1655999999999986
2 19.050000000000011 -57.15000000000002 -3.1749999999999998 0 0 1 1 0 -0 -0 1 0 4.1655999999999986
2 -57.149999999999984 -57.15000000000002 -3.1749999999999998 0 0 1 1 0 -0 -0 1 0 4.1655999999999986
2 -19.04999999999999 -57.15000000000002 -3.1749999999999998 0 0 1 1 0 -0 -0 1 0 4.1655999999999986
2 0 -19.050000000000011 -3.1749999999999998 0 0 1 1 0 -0 -0 1 0 4.1655999999999995
2 0 19.04999999999999 -3.1749999999999998 0 0 1 1 0 -0 -0 1 0 4.1655999999999995
2 0 57.149999999999984 -3.1749999999999998 0 0 1 1 0 -0 -0 1 0 4.165600000000004
1 76.200000000000017 -75.406250000000014 3.1749999999999998 -0 -0 -1 
1 75.40625 -76.200000000000031 3.1749999999999998 -0 -0 -1 
1 76.200000000000003 -38.28737895714049 3.1749999999999998 -0 -0 -1 
1 76.116201582856178 -37.932403165712401 3.1749999999999998 -0 -0 -1 
1 19.269387104285958 75.761225791428089 3.1749999999999998 -0 -0 -1 
1 18.559435521429769 76.200000000000003 3.1749999999999998 -0 -0 -1 
1 -18.559435521429766 76.199999999999989 3.1749999999999998 -0 -0 -1 
1 -19.269387104285951 75.761225791428075 3.1749999999999998 -0 -0 -1 
1 -76.116201582856178 -37.93240316571238 3.1749999999999998 -0 -0 -1 
1 -76.200000000000003 -38.287378957140483 3.1749999999999998 -0 -0 -1 
1 -76.199999999999989 -75.40625 3.1749999999999998 -0 -0 -1 
1 -75.406249999999972 -76.200000000000017 3.1749999999999998 -0 -0 -1 
Polygon3D 0
PolygonOnTriangulations 0
Surfaces 28
2 0 57.149999999999984 3.1749999999999998 -0 -0 -1 -1 0 0 0 1 -0 4.165600000000004
2 0 57.149999999999984 3.1749999999999998 -0 -0 -1 -1 0 0 0 1 -0 4.165600000000004
1 75.406250000000014 -75.406250000000028 -3.1749999999999998 0 0 1 1 0 -0 -0 1 0 
1 75.406250000000014 -75.406250000000028 3.1749999999999998 0 0 1 1 0 -0 -0 1 0 
2 0 19.04999999999999 3.1749999999999998 -0 -0 -1 -1 0 0 0 1 -0 4.1655999999999995
2 0 19.04999999999999 3.1749999999999998 -0 -0 -1 -1 0 0 0 1 -0 4.1655999999999995
2 0 -19.050000000000011 3.1749999999999998 -0 -0 -1 -1 0 0 0 1 -0 4.1655999999999995
2 0 -19.050000000000011 3.1749999999999998 -0 -0 -1 -1 0 0 0 1 -0 4.1655999999999995
2 -19.04999999999999 -57.15000000000002 3.1749999999999998 -0 -0 -1 -1 0 0 0 1 -0 4.1655999999999986
2 -19.04999999999999 -57.15000000000002 3.1749999999999998 -0 -0 -1 -1 0 0 0 1 -0 4.1655999999999986
2 -57.149999999999984 -57.15000000000002 3.1749999999999998 -0 -0 -1 -1 0 0 0 1 -0 4.1655999999999986
2 -57.149999999999984 -57.15000000000002 3.1749999999999998 -0 -0 -1 -1 0 0 0 1 -0 4.1655999999999986
2 19.050000000000011 -57.15000000000002 3.1749999999999998 -0 -0 -1 -1 0 0 0 1 -0 4.1655999999999986
2 19.050000000000011 -57.15000000000002 3.1749999999999998 -0 -0 -1 -1 0 0 0 1 -0 4.1655999999999986
2 57.150000000000006 -57.15000000000002 3.1749999999999998 -0 -0 -1 -1 0 0 0 1 -0 4.1655999999999986
2 57.150000000000006 -57.15000000000002 3.1749999999999998 -0 -0 -1 -1 0 0 0 1 -0 4.1655999999999986
2 75.406250000000014 -75.406250000000028 3.1749999999999998 -0 -0 -1 -1 0 0 0 1 -0 0.79374999999999585
1 76.200000000000003 -38.28737895714049 3.1749999999999998 -1 -3.7387418900187957e-16 0 3.7387418900187957e-16 -1 0 0 0 1 
2 75.40625 -38.28737895714049 3.1749999999999998 -0 -0 -1 -1 0 0 0 1 -0 0.79374999999999585
1 19.269387104285961 75.761225791428089 3.1749999999999998 -0.89442719099991597 -0.44721359549995793 0 0.44721359549995793 -0.89442719099991597 0 0 0 1 
2 18.559435521429773 75.40625 3.1749999999999998 -0 -0 -1 -1 0 0 0 1 -0 0.79374999999999929
1 -18.559435521429766 76.199999999999989 3.1749999999999998 3.7387418900187947e-16 -1 0 1 3.7387418900187947e-16 0 -0 0 1 
2 -18.559435521429769 75.40625 3.1749999999999998 -0 -0 -1 -1 0 0 0 1 -0 0.79374999999999585
1 -76.116201582856178 -37.93240316571238 3.1749999999999998 0.89442719099991597 -0.44721359549995798 0 0.44721359549995798 0.89442719099991597 0 -0 0 1 
2 -75.40625 -38.287378957140483 3.1749999999999998 -0 -0 -1 -1 0 0 0 1 -0 0.79374999999999585
1 -76.199999999999989 -75.40625 3.1749999999999998 1 3.7387418900187957e-16 -0 -3.7387418900187957e-16 1 0 0 0 1 
2 -75.40625 -75.406250000000014 3.1749999999999998 -0 -0 -1 -1 0 0 0 1 -0 0.79374999999999585
1 75.40625 -76.200000000000031 3.1749999999999998 9.2020142944480448e-17 1 -0 -1 9.2020142944480448e-17 0 0 0 1 
Triangulations 0

TShapes 202
Ve
1e-07
-4.1656 57.15 3.175
0 0

0101101
*
Ve
1e-07
-4.1656 57.15 -3.175
0 0

0101101
*
Ed
 1e-07 1 1 0
1  1 0 -0 6.35
2  1 1 0 -0 6.35
2  2 2 0 -0 6.35
4 CN 1 0 2 0
0

0101000
+202 0 -201 0 *
Ve
1e-07
4.1656 57.15 -3.175
0 0

0101101
*
Ed
 1e-07 1 1 0
1  2 0 3.14159265358979 6.28318530717959
2  3 1 0 3.14159265358979 6.28318530717959
4 C0 1 0 3 0
0

0101000
+201 0 -199 0 *
Ve
1e-07
4.1656 57.15 3.175
0 0

0101101
*
Ed
 1e-07 1 1 0
1  3 0 -0 6.35
2  4 1 0 -0 6.35
2  5 2 0 -0 6.35
4 CN 1 0 2 0
0

0101000
+197 0 -199 0 *
Ed
 1e-07 1 1 0
1  4 0 3.14159265358979 6.28318530717959
2  6 1 0 3.14159265358979 6.28318530717959
4 C0 1 0 4 0
0

0101000
+202 0 -197 0 *
Wi

0101100
+200 0 +198 0 -196 0 -195 0 *
Fa
0  1e-07 1 0

0111000
+194 0 *
Ve
1e-07
-4.1656 19.05 3.175
0 0

0101101
*
Ve
1e-07
-4.1656 19.05 -3.175
0 0

0101101
*
Ed
 1e-07 1 1 0
1  5 0 -0 6.35
2  7 5 0 -0 6.35
2  8 6 0 -0 6.35
4 CN 5 0 6 0
0

0101000
+192 0 -191 0 *
Ve
1e-07
4.1656 19.05 -3.175
0 0

0101101
*
Ed
 1e-07 1 1 0
1  6 0 3.14159265358979 6.28318530717959
2  9 5 0 3.14159265358979 6.28318530717959
4 C0 5 0 3 0
0

0101000
+191 0 -189 0 *
Ve
1e-07
4.1656 19.05 3.175
0 0

0101101
*
Ed
 1e-07 1 1 0
1  7 0 -0 6.35
2  10 5 0 -0 6.35
2  11 6 0 -0 6.35
4 CN 5 0 6 0
0

0101000
+187 0 -189 0 *
Ed
 1e-07 1 1 0
1  8 0 3.14159265358979 6.28318530717959
2  12 5 0 3.14159265358979 6.28318530717959
4 C0 5 0 4 0
0

0101000
+192 0 -187 0 *
Wi

0101100
+190 0 +188 0 -186 0 -185 0 *
Fa
0  1e-07 5 0

0111000
+184 0 *
Ve
1e-07
-4.1656 -19.05 3.175
0 0

0101101
*
Ve
1e-07
-4.1656 -19.05 -3.175
0 0

0101101
*
Ed
 1e-07 1 1 0
1  9 0 -0 6.35
2  13 7 0 -0 6.35
2  14 8 0 -0 6.35
4 CN 7 0 8 0
0

0101000
+182 0 -181 0 *
Ve
1e-07
4.1656 -19.05 -3.175
0 0

0101101
*
Ed
 1e-07 1 1 0
1  10 0 3.14159265358979 6.28318530717959
2  15 7 0 3.14159265358979 6.28318530717959
4 C0 7 0 3 0
0

0101000
+181 0 -179 0 *
Ve
1e-07
4.1656 -19.05 3.175
0 0

0101101
*
Ed
 1e-07 1 1 0
1  11 0 -0 6.35
2  16 7 0 -0 6.35
2  17 8 0 -0 6.35
4 CN 7 0 8 0
0

0101000
+177 0 -179 0 *
Ed
 1e-07 1 1 0
1  12 0 3.14159265358979 6.28318530717959
2  18 7 0 3.14159265358979 6.28318530717959
4 C0 7 0 4 0
0

0101000
+182 0 -177 0 *
Wi

0101100
+180 0 +178 0 -176 0 -175 0 *
Fa
0  1e-07 7 0

0111000
+174 0 *
Ve
1e-07
-23.2156 -57.15 3.175
0 0

0101101
*
Ve
1e-07
-23.2156 -57.15 -3.175
0 0

0101101
*
Ed
 1e-07 1 1 0
1  13 0 -0 6.35
2  19 9 0 -0 6.35
2  20 10 0 -0 6.35
4 CN 9 0 10 0
0

0101000
+172 0 -171 0 *
Ve
1e-07
-14.8844 -57.15 -3.175
0 0

0101101
*
Ed
 1e-07 1 1 0
1  14 0 3.14159265358979 6.28318530717959
2  21 9 0 3.14159265358979 6.28318530717959
4 C0 9 0 3 0
0

0101000
+171 0 -169 0 *
Ve
1e-07
-14.8844 -57.15 3.175
0 0

0101101
*
Ed
 1e-07 1 1 0
1  15 0 -0 6.35
2  22 9 0 -0 6.35
2  23 10 0 -0 6.35
4 CN 9 0 10 0
0

0101000
+167 0 -169 0 *
Ed
 1e-07 1 1 0
1  16 0 3.14159265358979 6.28318530717959
2  24 9 0 3.14159265358979 6.28318530717959
4 C0 9 0 4 0
0

0101000
+172 0 -167 0 *
Wi

0101100
+170 0 +168 0 -166 0 -165 0 *
Fa
0  1e-07 9 0

0111000
+164 0 *
Ve
1e-07
-61.3156 -57.15 3.175
0 0

0101101
*
Ve
1e-07
-61.3156 -57.15 -3.175
0 0

0101101
*
Ed
 1e-07 1 1 0
1  17 0 -0 6.35
2  25 11 0 -0 6.35
2  26 12 0 -0 6.35
4 CN 11 0 12 0
0

0101000
+162 0 -161 0 *
Ve
1e-07
-52.9844 -57.15 -3.175
0 0

0101101
*
Ed
 1e-07 1 1 0
1  18 0 3.14159265358979 6.28318530717959
2  27 11 0 3.14159265358979 6.28318530717959
4 C0 11 0 3 0
0

0101000
+161 0 -159 0 *
Ve
1e-07
-52.9844 -57.15 3.175
0 0

0101101
*
Ed
 1e-07 1 1 0
1  19 0 -0 6.35
2  28 11 0 -0 6.35
2  29 12 0 -0 6.35
4 CN 11 0 12 0
0

0101000
+157 0 -159 0 *
Ed
 1e-07 1 1 0
1  20 0 3.14159265358979 6.28318530717959
2  30 11 0 3.14159265358979 6.28318530717959
4 C0 11 0 4 0
0

0101000
+162 0 -157 0 *
Wi

0101100
+160 0 +158 0 -156 0 -155 0 *
Fa
0  1e-07 11 0

0111000
+154 0 *
Ve
1e-07
14.8844 -57.15 3.175
0 0

0101101
*
Ve
1e-07
14.8844 -57.15 -3.175
0 0

0101101
*
Ed
 1e-07 1 1 0
1  21 0 -0 6.35
2  31 13 0 -0 6.35
2  32 14 0 -0 6.35
4 CN 13 0 14 0
0

0101000
+152 0 -151 0 *
Ve
1e-07
23.2156 -57.15 -3.175
0 0

0101101
*
Ed
 1e-07 1 1 0
1  22 0 3.14159265358979 6.28318530717959
2  33 13 0 3.14159265358979 6.28318530717959
4 C0 13 0 3 0
0

0101000
+151 0 -149 0 *
Ve
1e-07
23.2156 -57.15 3.175
0 0

0101101
*
Ed
 1e-07 1 1 0
1  23 0 -0 6.35
2  34 13 0 -0 6.35
2  35 14 0 -0 6.35
4 CN 13 0 14 0
0

0101000
+147 0 -149 0 *
Ed
 1e-07 1 1 0
1  24 0 3.14159265358979 6.28318530717959
2  36 13 0 3.14159265358979 6.28318530717959
4 C0 13 0 4 0
0

0101000
+152 0 -147 0 *
Wi

0101100
+150 0 +148 0 -146 0 -145 0 *
Fa
0  1e-07 13 0

0111000
+144 0 *
Ve
1e-07
52.9844 -57.15 3.175
0 0

0101101
*
Ve
1e-07
52.9844 -57.15 -3.175
0 0

0101101
*
Ed
 1e-07 1 1 0
1  25 0 -0 6.35
2  37 15 0 -0 6.35
2  38 16 0 -0 6.35
4 CN 15 0 16 0
0

0101000
+142 0 -141 0 *
Ve
1e-07
61.3156 -57.15 -3.175
0 0

0101101
*
Ed
 1e-07 1 1 0
1  26 0 3.14159265358979 6.28318530717959
2  39 15 0 3.14159265358979 6.28318530717959
4 C0 15 0 3 0
0

0101000
+141 0 -139 0 *
Ve
1e-07
61.3156 -57.15 3.175
0 0

0101101
*
Ed
 1e-07 1 1 0
1  27 0 -0 6.35
2  40 15 0 -0 6.35
2  41 16 0 -0 6.35
4 CN 15 0 16 0
0

0101000
+137 0 -139 0 *
Ed
 1e-07 1 1 0
1  28 0 3.14159265358979 6.28318530717959
2  42 15 0 3.14159265358979 6.28318530717959
4 C0 15 0 4 0
0

0101000
+142 0 -137 0 *
Wi

0101100
+140 0 +138 0 -136 0 -135 0 *
Fa
0  1e-07 15 0

0111000
+134 0 *
Ed
 1e-07 1 1 0
1  29 0 0 3.14159265358979
2  43 6 0 0 3.14159265358979
4 C0 4 0 6 0
0

0101000
+187 0 -192 0 *
Wi

0101100
-185 0 -132 0 *
Ed
 1e-07 1 1 0
1  30 0 0 3.14159265358979
2  44 10 0 0 3.14159265358979
4 C0 4 0 10 0
0

0101000
+167 0 -172 0 *
Wi

0101100
-165 0 -130 0 *
Ed
 1e-07 1 1 0
1  31 0 0 3.14159265358979
2  45 14 0 0 3.14159265358979
4 C0 4 0 14 0
0

0101000
+147 0 -152 0 *
Wi

0101100
-145 0 -128 0 *
Ve
1e-07
75.40625 -76.2 3.175
0 0

0101101
*
Ve
1e-07
76.2 -75.40625 3.175
0 0

0101101
*
Ed
 1e-07 1 1 0
1  32 0 4.71238898038467 6.28318530717959
2  46 17 0 4.71238898038467 6.28318530717959
4 C0 4 0 17 0
0

0101000
+126 0 -125 0 *
Ve
1e-07
76.2 -38.2873789571405 3.175
0 0

0101101
*
Ed
 1e-07 1 1 0
1  33 0 -37.1188710428595 0
4 C0 4 0 18 0
0

0101000
+125 0 -123 0 *
Ve
1e-07
76.1162015828562 -37.9324031657124 3.175
0 0

0101101
*
Ed
 1e-07 1 1 0
1  34 0 0 0.463647609000806
2  47 19 0 0 0.463647609000806
4 C0 4 0 19 0
0

0101000
+123 0 -121 0 *
Ve
1e-07
19.269387104286 75.7612257914281 3.175
0 0

0101101
*
Ed
 1e-07 1 1 0
1  35 0 -127.113341478402 1.58882185807825e-15
4 C0 4 0 20 0
0

0101000
+121 0 -119 0 *
Ve
1e-07
18.5594355214298 76.2 3.175
0 0

0101101
*
Ed
 1e-07 1 1 0
1  36 0 0.463647609000802 1.5707963267949
2  48 21 0 0.463647609000802 1.5707963267949
4 C0 4 0 21 0
0

0101000
+119 0 -117 0 *
Ve
1e-07
-18.5594355214298 76.2 3.175
0 0

0101101
*
Ed
 1e-07 1 1 0
1  37 0 -37.1188710428595 -0
4 C0 4 0 22 0
0

0101000
+117 0 -115 0 *
Ve
1e-07
-19.269387104286 75.7612257914281 3.175
0 0

0101101
*
Ed
 1e-07 1 1 0
1  38 0 1.57079632679489 2.677945044589
2  49 23 0 1.57079632679489 2.677945044589
4 C0 4 0 23 0
0

0101000
+115 0 -113 0 *
Ve
1e-07
-76.1162015828562 -37.9324031657124 3.175
0 0

0101101
*
Ed
 1e-07 1 1 0
1  39 0 -127.113341478402 -0
4 C0 4 0 24 0
0

0101000
+113 0 -111 0 *
Ve
1e-07
-76.2 -38.2873789571405 3.175
0 0

0101101
*
Ed
 1e-07 1 1 0
1  40 0 2.67794504458897 3.14159265358979
2  50 25 0 2.67794504458897 3.14159265358979
4 C0 4 0 25 0
0

0101000
+111 0 -109 0 *
Ve
1e-07
-76.2 -75.40625 3.175
0 0

0101101
*
Ed
 1e-07 1 1 0
1  41 0 -37.1188710428595 0
4 C0 4 0 26 0
0

0101000
+109 0 -107 0 *
Ve
1e-07
-75.40625 -76.2 3.175
0 0

0101101
*
Ed
 1e-07 1 1 0
1  42 0 3.14159265358979 4.71238898038473
2  51 27 0 3.14159265358979 4.71238898038473
4 C0 4 0 27 0
0

0101000
+107 0 -105 0 *
Ed
 1e-07 1 1 0
1  43 0 -150.8125 0
4 C0 4 0 28 0
0

0101000
+105 0 -126 0 *
Wi

0101100
+124 0 +122 0 +120 0 +118 0 +116 0 +114 0 +112 0 +110 0 +108 0 +106 0 
+104 0 +103 0 *
Ed
 1e-07 1 1 0
1  44 0 0 3.14159265358979
2  52 16 0 0 3.14159265358979
4 C0 4 0 16 0
0

0101000
+137 0 -142 0 *
Wi

0101100
-135 0 -101 0 *
Ed
 1e-07 1 1 0
1  45 0 0 3.14159265358979
2  53 12 0 0 3.14159265358979
4 C0 4 0 12 0
0

0101000
+157 0 -162 0 *
Wi

0101100
-155 0 -99 0 *
Ed
 1e-07 1 1 0
1  46 0 0 3.14159265358979
2  54 8 0 0 3.14159265358979
4 C0 4 0 8 0
0

0101000
+177 0 -182 0 *
Wi

0101100
-175 0 -97 0 *
Ed
 1e-07 1 1 0
1  47 0 0 3.14159265358979
2  55 2 0 0 3.14159265358979
4 C0 4 0 2 0
0

0101000
+197 0 -202 0 *
Wi

0101100
-195 0 -95 0 *
Fa
0  1e-07 4 0

0111000
+131 0 +129 0 +127 0 +102 0 +100 0 +98 0 +96 0 +94 0 *
Ve
1e-07
75.40625 -76.2 -3.175
0 0

0101101
*
Ve
1e-07
76.2 -75.40625 -3.175
0 0

0101101
*
Ed
 1e-07 1 1 0
1  48 0 4.71238898038467 6.28318530717959
2  56 17 0 4.71238898038467 6.28318530717959
4 C0 3 0 17 0
0

0101000
+92 0 -91 0 *
Ve
1e-07
-75.40625 -76.2 -3.175
0 0

0101101
*
Ed
 1e-07 1 1 0
1  49 0 -150.8125 0
4 C0 3 0 28 0
0

0101000
+89 0 -92 0 *
Ve
1e-07
-76.2 -75.40625 -3.175
0 0

0101101
*
Ed
 1e-07 1 1 0
1  50 0 3.14159265358979 4.71238898038473
2  57 27 0 3.14159265358979 4.71238898038473
4 C0 3 0 27 0
0

0101000
+87 0 -89 0 *
Ve
1e-07
-76.2 -38.2873789571405 -3.175
0 0

0101101
*
Ed
 1e-07 1 1 0
1  51 0 -37.1188710428595 0
4 C0 3 0 26 0
0

0101000
+85 0 -87 0 *
Ve
1e-07
-76.1162015828562 -37.9324031657124 -3.175
0 0

0101101
*
Ed
 1e-07 1 1 0
1  52 0 2.67794504458897 3.14159265358979
2  58 25 0 2.67794504458897 3.14159265358979
4 C0 3 0 25 0
0

0101000
+83 0 -85 0 *
Ve
1e-07
-19.269387104286 75.7612257914281 -3.175
0 0

0101101
*
Ed
 1e-07 1 1 0
1  53 0 -127.113341478402 -0
4 C0 3 0 24 0
0

0101000
+81 0 -83 0 *
Ve
1e-07
-18.5594355214298 76.2 -3.175
0 0

0101101
*
Ed
 1e-07 1 1 0
1  54 0 1.57079632679489 2.677945044589
2  59 23 0 1.57079632679489 2.677945044589
4 C0 3 0 23 0
0

0101000
+79 0 -81 0 *
Ve
1e-07
18.5594355214298 76.2 -3.175
0 0

0101101
*
Ed
 1e-07 1 1 0
1  55 0 -37.1188710428595 -0
4 C0 3 0 22 0
0

0101000
+77 0 -79 0 *
Ve
1e-07
19.269387104286 75.7612257914281 -3.175
0 0

0101101
*
Ed
 1e-07 1 1 0
1  56 0 0.463647609000802 1.5707963267949
2  60 21 0 0.463647609000802 1.5707963267949
4 C0 3 0 21 0
0

0101000
+75 0 -77 0 *
Ve
1e-07
76.1162015828562 -37.9324031657124 -3.175
0 0

0101101
*
Ed
 1e-07 1 1 0
1  57 0 -127.113341478402 1.58882185807825e-15
4 C0 3 0 20 0
0

0101000
+73 0 -75 0 *
Ve
1e-07
76.2 -38.2873789571405 -3.175
0 0

0101101
*
Ed
 1e-07 1 1 0
1  58 0 0 0.463647609000806
2  61 19 0 0 0.463647609000806
4 C0 3 0 19 0
0

0101000
+71 0 -73 0 *
Ed
 1e-07 1 1 0
1  59 0 -37.1188710428595 0
4 C0 3 0 18 0
0

0101000
+91 0 -71 0 *
Wi

0101100
-90 0 -88 0 -86 0 -84 0 -82 0 -80 0 -78 0 -76 0 -74 0 -72 0 
-70 0 -69 0 *
Ed
 1e-07 1 1 0
1  60 0 0 3.14159265358979
2  62 16 0 0 3.14159265358979
4 C0 3 0 16 0
0

0101000
+139 0 -141 0 *
Wi

0101100
+138 0 +67 0 *
Ed
 1e-07 1 1 0
1  61 0 0 3.14159265358979
2  63 14 0 0 3.14159265358979
4 C0 3 0 14 0
0

0101000
+149 0 -151 0 *
Wi

0101100
+148 0 +65 0 *
Ed
 1e-07 1 1 0
1  62 0 0 3.14159265358979
2  64 12 0 0 3.14159265358979
4 C0 3 0 12 0
0

0101000
+159 0 -161 0 *
Wi

0101100
+158 0 +63 0 *
Ed
 1e-07 1 1 0
1  63 0 0 3.14159265358979
2  65 10 0 0 3.14159265358979
4 C0 3 0 10 0
0

0101000
+169 0 -171 0 *
Wi

0101100
+168 0 +61 0 *
Ed
 1e-07 1 1 0
1  64 0 0 3.14159265358979
2  66 8 0 0 3.14159265358979
4 C0 3 0 8 0
0

0101000
+179 0 -181 0 *
Wi

0101100
+178 0 +59 0 *
Ed
 1e-07 1 1 0
1  65 0 0 3.14159265358979
2  67 6 0 0 3.14159265358979
4 C0 3 0 6 0
0

0101000
+189 0 -191 0 *
Wi

0101100
+188 0 +57 0 *
Ed
 1e-07 1 1 0
1  66 0 0 3.14159265358979
2  68 2 0 0 3.14159265358979
4 C0 3 0 2 0
0

0101000
+199 0 -201 0 *
Wi

0101100
+198 0 +55 0 *
Fa
0  1e-07 3 0

0111000
-68 0 -66 0 -64 0 -62 0 -60 0 -58 0 -56 0 -54 0 *
Ed
 1e-07 1 1 0
1  67 0 -0 6.35
2  69 17 0 -0 6.35
4 G1 17 0 18 0
0

0101000
+125 0 -91 0 *
Ed
 1e-07 1 1 0
1  68 0 -0 6.35
2  70 17 0 -0 6.35
4 G1 17 0 28 0
0

0101000
+126 0 -92 0 *
Wi

0101100
+90 0 -52 0 -124 0 +51 0 *
Fa
0  1e-07 17 0

0111000
+50 0 *
Ed
 1e-07 1 1 0
1  69 0 -0 6.35
2  71 19 0 -0 6.35
4 G1 18 0 19 0
0

0101000
+123 0 -71 0 *
Wi

0101100
+69 0 -48 0 -122 0 +52 0 *
Fa
0  1e-07 18 0

0111000
-47 0 *
Ed
 1e-07 1 1 0
1  70 0 -0 6.35
2  72 19 0 -0 6.35
4 G1 19 0 20 0
0

0101000
+121 0 -73 0 *
Wi

0101100
+70 0 -45 0 -120 0 +48 0 *
Fa
0  1e-07 19 0

0111000
+44 0 *
Ed
 1e-07 1 1 0
1  71 0 -0 6.35
2  73 21 0 -0 6.35
4 G1 20 0 21 0
0

0101000
+119 0 -75 0 *
Wi

0101100
+72 0 -42 0 -118 0 +45 0 *
Fa
0  1e-07 20 0

0111000
-41 0 *
Ed
 1e-07 1 1 0
1  72 0 -0 6.35
2  74 21 0 -0 6.35
4 G1 21 0 22 0
0

0101000
+117 0 -77 0 *
Wi

0101100
+74 0 -39 0 -116 0 +42 0 *
Fa
0  1e-07 21 0

0111000
+38 0 *
Ed
 1e-07 1 1 0
1  73 0 -0 6.35
2  75 23 0 -0 6.35
4 G1 22 0 23 0
0

0101000
+115 0 -79 0 *
Wi

0101100
+76 0 -36 0 -114 0 +39 0 *
Fa
0  1e-07 22 0

0111000
-35 0 *
Ed
 1e-07 1 1 0
1  74 0 -0 6.35
2  76 23 0 -0 6.35
4 G1 23 0 24 0
0

0101000
+113 0 -81 0 *
Wi

0101100
+78 0 -33 0 -112 0 +36 0 *
Fa
0  1e-07 23 0

0111000
+32 0 *
Ed
 1e-07 1 1 0
1  75 0 -0 6.35
2  77 25 0 -0 6.35
4 G1 24 0 25 0
0

0101000
+111 0 -83 0 *
Wi

0101100
+80 0 -30 0 -110 0 +33 0 *
Fa
0  1e-07 24 0

0111000
-29 0 *
Ed
 1e-07 1 1 0
1  76 0 -0 6.35
2  78 25 0 -0 6.35
4 G1 25 0 26 0
0

0101000
+109 0 -85 0 *
Wi

0101100
+82 0 -27 0 -108 0 +30 0 *
Fa
0  1e-07 25 0

0111000
+26 0 *
Ed
 1e-07 1 1 0
1  77 0 -0 6.35
2  79 27 0 -0 6.35
4 G1 26 0 27 0
0

0101000
+107 0 -87 0 *
Wi

0101100
+84 0 -24 0 -106 0 +27 0 *
Fa
0  1e-07 26 0

0111000
-23 0 *
Ed
 1e-07 1 1 0
1  78 0 -0 6.35
2  80 27 0 -0 6.35
4 G1 27 0 28 0
0

0101000
+105 0 -89 0 *
Wi

0101100
+86 0 -21 0 -104 0 +24 0 *
Fa
0  1e-07 27 0

0111000
+20 0 *
Wi

0101100
+88 0 -51 0 -103 0 +21 0 *
Fa
0  1e-07 28 0

0111000
-18 0 *
Wi

0101100
+67 0 -140 0 -101 0 +136 0 *
Fa
0  1e-07 16 0

0111000
+16 0 *
Wi

0101100
+65 0 -150 0 -128 0 +146 0 *
Fa
0  1e-07 14 0

0111000
+14 0 *
Wi

0101100
+63 0 -160 0 -99 0 +156 0 *
Fa
0  1e-07 12 0

0111000
+12 0 *
Wi

0101100
+61 0 -170 0 -130 0 +166 0 *
Fa
0  1e-07 10 0

0111000
+10 0 *
Wi

0101100
+59 0 -180 0 -97 0 +176 0 *
Fa
0  1e-07 8 0

0111000
+8 0 *
Wi

0101100
+57 0 -190 0 -132 0 +186 0 *
Fa
0  1e-07 6 0

0111000
+6 0 *
Wi

0101100
+55 0 -200 0 -95 0 +196 0 *
Fa
0  1e-07 2 0

0111000
+4 0 *
Sh

0101100
-193 0 -183 0 -173 0 -163 0 -153 0 -143 0 -133 0 +93 0 -53 0 +49 0 
-46 0 +43 0 -40 0 +37 0 -34 0 +31 0 -28 0 +25 0 -22 0 +19 0 
-17 0 -15 0 -13 0 -11 0 -9 0 -7 0 -5 0 -3 0 *
So

0100000
+2 0 *

+1 0 