
CASCADE Topology V3, (c) Open Cascade
Locations 0
Curve2ds 48
1 6.2831853071795862 0 0 1 
1 0 0 0 1 
1 9.4247779607693793 6.3499999999999996 -1 0 
1 3.1415926535897931 0 0 1 
1 3.1415926535897931 0 0 1 
1 9.4247779607693793 0 -1 0 
1 6.2831853071795862 0 0 1 
1 0 0 0 1 
1 9.4247779607693793 6.3499999999999996 -1 0 
1 3.1415926535897931 0 0 1 
1 3.1415926535897931 0 0 1 
1 9.4247779607693793 0 -1 0 
1 6.2831853071795862 0 0 1 
1 0 0 0 1 
1 9.4247779607693793 6.3499999999999996 -1 0 
1 3.1415926535897931 0 0 1 
1 3.1415926535897931 0 0 1 
1 9.4247779607693793 0 -1 0 
1 6.2831853071795862 0 0 1 
1 0 0 0 1 
1 9.4247779607693793 6.3499999999999996 -1 0 
1 3.1415926535897931 0 0 1 
1 3.1415926535897931 0 0 1 
1 9.4247779607693793 0 -1 0 
1 3.1415926535897931 0 -1 0 
1 3.1415926535897931 0 -1 0 
1 9.4247779607693793 0 -1 0 
1 9.4247779607693793 0 -1 0 
1 3.1415926535897931 0 -1 0 
1 3.1415926535897931 0 -1 0 
1 3.1415926535897931 0 -1 0 
1 3.1415926535897931 0 -1 0 
1 9.4247779607693793 6.3499999999999996 -1 0 
1 3.1415926535897931 6.3499999999999996 -1 0 
1 3.1415926535897931 6.3499999999999996 -1 0 
1 9.4247779607693793 6.3499999999999996 -1 0 
1 3.1415926535897931 6.3499999999999996 -1 0 
1 3.1415926535897931 6.3499999999999996 -1 0 
1 3.1415926535897931 6.3499999999999996 -1 0 
1 3.1415926535897931 6.3499999999999996 -1 0 
1 4.7123889803846897 0 0 1 
1 6.2831853071795862 0 0 1 
1 4.7123889803846897 0 0 1 
1 3.1415926535897931 0 0 1 
1 3.1415926535897931 0 0 1 
1 1.5707963267948966 0 0 1 
1 1.5707963267948966 0 0 1 
1 0 0 0 1 
Curves 48
1 -23.215600000000002 19.050000000000001 3.1749999999999998 -0 -0 -1 
2 -19.050000000000001 19.050000000000001 -3.1749999999999998 0 0 1 1 0 -0 -0 1 0 4.1655999999999995
1 -14.884400000000001 19.050000000000001 3.1749999999999998 -0 -0 -1 
2 -19.050000000000001 19.050000000000001 3.1749999999999998 0 0 1 1 0 -0 -0 1 0 4.1655999999999995
1 14.884399999999998 19.050000000000001 3.1749999999999998 -0 -0 -1 
2 19.050000000000001 19.050000000000001 -3.1749999999999998 0 0 1 1 0 -0 -0 1 0 4.1656000000000022
1 23.215600000000002 19.050000000000001 3.1749999999999998 -0 -0 -1 
2 19.050000000000001 19.050000000000001 3.1749999999999998 0 0 1 1 0 -0 -0 1 0 4.1656000000000022
1 14.884399999999998 -19.050000000000001 3.1749999999999998 -0 -0 -1 
2 19.050000000000001 -19.050000000000001 -3.1749999999999998 0 0 1 1 0 -0 -0 1 0 4.1656000000000022
1 23.215600000000002 -19.050000000000001 3.1749999999999998 -0 -0 -1 
2 19.050000000000001 -19.050000000000001 3.1749999999999998 0 0 1 1 0 -0 -0 1 0 4.1656000000000022
1 -23.215600000000002 -19.050000000000001 3.1749999999999998 -0 -0 -1 
2 -19.050000000000001 -19.050000000000001 -3.1749999999999998 0 0 1 1 0 -0 -0 1 0 4.1655999999999995
1 -14.884400000000001 -19.050000000000001 3.1749999999999998 -0 -0 -1 
2 -19.050000000000001 -19.050000000000001 3.1749999999999998 0 0 1 1 0 -0 -0 1 0 4.1655999999999995
2 19.050000000000001 19.050000000000001 3.1749999999999998 0 0 1 1 0 -0 -0 1 0 4.1656000000000022
2 -19.050000000000001 -19.050000000000001 3.1749999999999998 0 0 1 1 0 -0 -0 1 0 4.1655999999999995
2 -37.306249999999991 -37.306249999999999 3.1749999999999998 0 0 1 1 0 -0 -0 1 0 0.79375000000000273
1 37.306250000000006 -38.099999999999994 3.1749999999999998 1 9.2999080635379179e-17 -0 
2 37.306250000000006 -37.306249999999991 3.1749999999999998 0 0 1 1 0 -0 -0 1 0 0.79375000000000273
1 38.100000000000009 37.306249999999991 3.1749999999999998 -0 1 -0 
2 37.306250000000006 37.306249999999991 3.1749999999999998 0 0 1 1 0 -0 -0 1 0 0.79375000000000273
1 -37.306250000000006 38.099999999999987 3.1749999999999998 -1 -9.2999080635379154e-17 -0 
2 -37.306250000000006 37.306249999999984 3.1749999999999998 0 0 1 1 0 -0 -0 1 0 0.79375000000000273
1 -38.099999999999994 -37.306249999999999 3.1749999999999998 1.8599816127075838e-16 -1 -0 
2 19.050000000000001 -19.050000000000001 3.1749999999999998 0 0 1 1 0 -0 -0 1 0 4.1656000000000022
2 -19.050000000000001 19.050000000000001 3.1749999999999998 0 0 1 1 0 -0 -0 1 0 4.1655999999999995
2 -37.306249999999991 -37.306249999999999 -3.1749999999999998 0 0 1 1 0 -0 -0 1 0 0.79375000000000273
1 -38.099999999999994 -37.306249999999999 -3.1749999999999998 1.8599816127075838e-16 -1 -0 
2 -37.306250000000006 37.306249999999984 -3.1749999999999998 0 0 1 1 0 -0 -0 1 0 0.79375000000000273
1 -37.306250000000006 38.099999999999987 -3.1749999999999998 -1 -9.2999080635379154e-17 -0 
2 37.306250000000006 37.306249999999991 -3.1749999999999998 0 0 1 1 0 -0 -0 1 0 0.79375000000000273
1 38.100000000000009 37.306249999999991 -3.1749999999999998 -0 1 -0 
2 37.306250000000006 -37.306249999999991 -3.1749999999999998 0 0 1 1 0 -0 -0 1 0 0.79375000000000273
1 37.306250000000006 -38.099999999999994 -3.1749999999999998 1 9.2999080635379179e-17 -0 
2 -19.050000000000001 -19.050000000000001 -3.1749999999999998 0 0 1 1 0 -0 -0 1 0 4.1655999999999995
2 19.050000000000001 -19.050000000000001 -3.1749999999999998 0 0 1 1 0 -0 -0 1 0 4.1656000000000022
2 19.050000000000001 19.050000000000001 -3.1749999999999998 0 0 1 1 0 -0 -0 1 0 4.1656000000000022
2 -19.050000000000001 19.050000000000001 -3.1749999999999998 0 0 1 1 0 -0 -0 1 0 4.1655999999999995
1 -37.306249999999991 -38.100000000000001 3.1749999999999998 -0 -0 -1 
1 -38.099999999999994 -37.306249999999999 3.1749999999999998 -0 -0 -1 
1 37.306250000000006 -38.099999999999994 3.1749999999999998 -0 -0 -1 
1 38.100000000000009 -37.306249999999991 3.1749999999999998 -0 -0 -1 
1 38.100000000000009 37.306249999999991 3.1749999999999998 -0 -0 -1 
1 37.306250000000006 38.099999999999994 3.1749999999999998 -0 -0 -1 
1 -37.306250000000006 38.099999999999987 3.1749999999999998 -0 -0 -1 
1 -38.100000000000009 37.306249999999984 3.1749999999999998 -0 -0 -1 
Polygon3D 0
PolygonOnTriangulations 0
Surfaces 18
2 -19.050000000000001 19.050000000000001 3.1749999999999998 -0 -0 -1 -1 0 0 0 1 -0 4.1656000000000022
2 -19.050000000000001 19.050000000000001 3.1749999999999998 -0 -0 -1 -1 0 0 0 1 -0 4.1656000000000022
1 -37.306249999999991 -37.306249999999999 -3.1749999999999998 0 0 1 1 0 -0 -0 1 0 
1 -37.306249999999991 -37.306249999999999 3.1749999999999998 0 0 1 1 0 -0 -0 1 0 
2 19.050000000000001 19.050000000000001 3.1749999999999998 -0 -0 -1 -1 0 0 0 1 -0 4.1656000000000022
2 19.050000000000001 19.050000000000001 3.1749999999999998 -0 -0 -1 -1 0 0 0 1 -0 4.1656000000000022
2 19.050000000000001 -19.050000000000001 3.1749999999999998 -0 -0 -1 -1 0 0 0 1 -0 4.1656000000000022
2 19.050000000000001 -19.050000000000001 3.1749999999999998 -0 -0 -1 -1 0 0 0 1 -0 4.1656000000000022
2 -19.050000000000001 -19.050000000000001 3.1749999999999998 -0 -0 -1 -1 0 0 0 1 -0 4.1656000000000022
2 -19.050000000000001 -19.050000000000001 3.1749999999999998 -0 -0 -1 -1 0 0 0 1 -0 4.1656000000000022
2 -37.306249999999991 -37.306249999999999 3.1749999999999998 -0 -0 -1 -1 0 0 0 1 -0 0.79375000000000273
1 37.306250000000006 -38.099999999999994 3.1749999999999998 -9.2999080635379154e-17 1 0 -1 -9.2999080635379154e-17 0 0 0 1 
2 37.306250000000006 -37.306249999999991 3.1749999999999998 -0 -0 -1 -1 0 0 0 1 -0 0.79375000000000273
1 38.100000000000009 37.306249999999991 3.1749999999999998 -1 0 0 0 0 1 0 1 -0 
2 37.306250000000006 37.306249999999991 3.1749999999999998 -0 -0 -1 -1 0 0 0 1 -0 0.79375000000000273
1 -37.306250000000006 38.099999999999987 3.1749999999999998 9.2999080635379154e-17 -1 0 1 9.2999080635379154e-17 0 -0 0 1 
2 -37.306250000000006 37.306249999999984 3.1749999999999998 -0 -0 -1 -1 0 0 0 1 -0 0.79375000000000273
1 -38.099999999999994 -37.306249999999999 3.1749999999999998 1 1.8599816127075841e-16 -0 -1.8599816127075841e-16 1 0 0 0 1 
Triangulations 0

TShapes 126
Ve
1e-07
-23.2156 19.05 3.175
0 0

0101101
*
Ve
1e-07
-23.2156 19.05 -3.175
0 0

0101101
*
Ed
 1e-07 1 1 0
1  1 0 -0 6.35
2  1 1 0 -0 6.35
2  2 2 0 -0 6.35
4 CN 1 0 2 0
0

0101000
+126 0 -125 0 *
Ve
1e-07
-14.8844 19.05 -3.175
0 0

0101101
*
Ed
 1e-07 1 1 0
1  2 0 3.14159265358979 6.28318530717959
2  3 1 0 3.14159265358979 6.28318530717959
4 C0 1 0 3 0
0

0101000
+125 0 -123 0 *
Ve
1e-07
-14.8844 19.05 3.175
0 0

0101101
*
Ed
 1e-07 1 1 0
1  3 0 -0 6.35
2  4 1 0 -0 6.35
2  5 2 0 -0 6.35
4 CN 1 0 2 0
0

0101000
+121 0 -123 0 *
Ed
 1e-07 1 1 0
1  4 0 3.14159265358979 6.28318530717959
2  6 1 0 3.14159265358979 6.28318530717959
4 C0 1 0 4 0
0

0101000
+126 0 -121 0 *
Wi

0101100
+124 0 +122 0 -120 0 -119 0 *
Fa
0  1e-07 1 0

0111000
+118 0 *
Ve
1e-07
14.8844 19.05 3.175
0 0

0101101
*
Ve
1e-07
14.8844 19.05 -3.175
0 0

0101101
*
Ed
 1e-07 1 1 0
1  5 0 -0 6.35
2  7 5 0 -0 6.35
2  8 6 0 -0 6.35
4 CN 5 0 6 0
0

0101000
+116 0 -115 0 *
Ve
1e-07
23.2156 19.05 -3.175
0 0

0101101
*
Ed
 1e-07 1 1 0
1  6 0 3.14159265358979 6.28318530717959
2  9 5 0 3.14159265358979 6.28318530717959
4 C0 5 0 3 0
0

0101000
+115 0 -113 0 *
Ve
1e-07
23.2156 19.05 3.175
0 0

0101101
*
Ed
 1e-07 1 1 0
1  7 0 -0 6.35
2  10 5 0 -0 6.35
2  11 6 0 -0 6.35
4 CN 5 0 6 0
0

0101000
+111 0 -113 0 *
Ed
 1e-07 1 1 0
1  8 0 3.14159265358979 6.28318530717959
2  12 5 0 3.14159265358979 6.28318530717959
4 C0 5 0 4 0
0

0101000
+116 0 -111 0 *
Wi

0101100
+114 0 +112 0 -110 0 -109 0 *
Fa
0  1e-07 5 0

0111000
+108 0 *
Ve
1e-07
14.8844 -19.05 3.175
0 0

0101101
*
Ve
1e-07
14.8844 -19.05 -3.175
0 0

0101101
*
Ed
 1e-07 1 1 0
1  9 0 -0 6.35
2  13 7 0 -0 6.35
2  14 8 0 -0 6.35
4 CN 7 0 8 0
0

0101000
+106 0 -105 0 *
Ve
1e-07
23.2156 -19.05 -3.175
0 0

0101101
*
Ed
 1e-07 1 1 0
1  10 0 3.14159265358979 6.28318530717959
2  15 7 0 3.14159265358979 6.28318530717959
4 C0 7 0 3 0
0

0101000
+105 0 -103 0 *
Ve
1e-07
23.2156 -19.05 3.175
0 0

0101101
*
Ed
 1e-07 1 1 0
1  11 0 -0 6.35
2  16 7 0 -0 6.35
2  17 8 0 -0 6.35
4 CN 7 0 8 0
0

0101000
+101 0 -103 0 *
Ed
 1e-07 1 1 0
1  12 0 3.14159265358979 6.28318530717959
2  18 7 0 3.14159265358979 6.28318530717959
4 C0 7 0 4 0
0

0101000
+106 0 -101 0 *
Wi

0101100
+104 0 +102 0 -100 0 -99 0 *
Fa
0  1e-07 7 0

0111000
+98 0 *
Ve
1e-07
-23.2156 -19.05 3.175
0 0

0101101
*
Ve
1e-07
-23.2156 -19.05 -3.175
0 0

0101101
*
Ed
 1e-07 1 1 0
1  13 0 -0 6.35
2  19 9 0 -0 6.35
2  20 10 0 -0 6.35
4 CN 9 0 10 0
0

0101000
+96 0 -95 0 *
Ve
1e-07
-14.8844 -19.05 -3.175
0 0

0101101
*
Ed
 1e-07 1 1 0
1  14 0 3.14159265358979 6.28318530717959
2  21 9 0 3.14159265358979 6.28318530717959
4 C0 9 0 3 0
0

0101000
+95 0 -93 0 *
Ve
1e-07
-14.8844 -19.05 3.175
0 0

0101101
*
Ed
 1e-07 1 1 0
1  15 0 -0 6.35
2  22 9 0 -0 6.35
2  23 10 0 -0 6.35
4 CN 9 0 10 0
0

0101000
+91 0 -93 0 *
Ed
 1e-07 1 1 0
1  16 0 3.14159265358979 6.28318530717959
2  24 9 0 3.14159265358979 6.28318530717959
4 C0 9 0 4 0
0

0101000
+96 0 -91 0 *
Wi

0101100
+94 0 +92 0 -90 0 -89 0 *
Fa
0  1e-07 9 0

0111000
+88 0 *
Ed
 1e-07 1 1 0
1  17 0 0 3.14159265358979
2  25 6 0 0 3.14159265358979
4 C0 4 0 6 0
0

0101000
+111 0 -116 0 *
Wi

0101100
-109 0 -86 0 *
Ed
 1e-07 1 1 0
1  18 0 0 3.14159265358979
2  26 10 0 0 3.14159265358979
4 C0 4 0 10 0
0

0101000
+91 0 -96 0 *
Wi

0101100
-89 0 -84 0 *
Ve
1e-07
-38.1 -37.30625 3.175
0 0

0101101
*
Ve
1e-07
-37.30625 -38.1 3.175
0 0

0101101
*
Ed
 1e-07 1 1 0
1  19 0 3.14159265358979 4.71238898038469
2  27 11 0 3.14159265358979 4.71238898038469
4 C0 4 0 11 0
0

0101000
+82 0 -81 0 *
Ve
1e-07
37.30625 -38.1 3.175
0 0

0101101
*
Ed
 1e-07 1 1 0
1  20 0 -74.6125 0
4 C0 4 0 12 0
0

0101000
+81 0 -79 0 *
Ve
1e-07
38.1 -37.30625 3.175
0 0

0101101
*
Ed
 1e-07 1 1 0
1  21 0 4.71238898038469 6.28318530717959
2  28 13 0 4.71238898038469 6.28318530717959
4 C0 4 0 13 0
0

0101000
+79 0 -77 0 *
Ve
1e-07
38.1 37.30625 3.175
0 0

0101101
*
Ed
 1e-07 1 1 0
1  22 0 -74.6125 0
4 C0 4 0 14 0
0

0101000
+77 0 -75 0 *
Ve
1e-07
37.30625 38.1 3.175
0 0

0101101
*
Ed
 1e-07 1 1 0
1  23 0 0 1.5707963267949
2  29 15 0 0 1.5707963267949
4 C0 4 0 15 0
0

0101000
+75 0 -73 0 *
Ve
1e-07
-37.30625 38.1 3.175
0 0

0101101
*
Ed
 1e-07 1 1 0
1  24 0 -74.6125 -0
4 C0 4 0 16 0
0

0101000
+73 0 -71 0 *
Ve
1e-07
-38.1 37.30625 3.175
0 0

0101101
*
Ed
 1e-07 1 1 0
1  25 0 1.5707963267949 3.14159265358979
2  30 17 0 1.5707963267949 3.14159265358979
4 C0 4 0 17 0
0

0101000
+71 0 -69 0 *
Ed
 1e-07 1 1 0
1  26 0 -74.6125 0
4 C0 4 0 18 0
0

0101000
+69 0 -82 0 *
Wi

0101100
+80 0 +78 0 +76 0 +74 0 +72 0 +70 0 +68 0 +67 0 *
Ed
 1e-07 1 1 0
1  27 0 0 3.14159265358979
2  31 8 0 0 3.14159265358979
4 C0 4 0 8 0
0

0101000
+101 0 -106 0 *
Wi

0101100
-99 0 -65 0 *
Ed
 1e-07 1 1 0
1  28 0 0 3.14159265358979
2  32 2 0 0 3.14159265358979
4 C0 4 0 2 0
0

0101000
+121 0 -126 0 *
Wi

0101100
-119 0 -63 0 *
Fa
0  1e-07 4 0

0111000
+85 0 +83 0 +66 0 +64 0 +62 0 *
Ve
1e-07
-38.1 -37.30625 -3.175
0 0

0101101
*
Ve
1e-07
-37.30625 -38.1 -3.175
0 0

0101101
*
Ed
 1e-07 1 1 0
1  29 0 3.14159265358979 4.71238898038469
2  33 11 0 3.14159265358979 4.71238898038469
4 C0 3 0 11 0
0

0101000
+60 0 -59 0 *
Ve
1e-07
-38.1 37.30625 -3.175
0 0

0101101
*
Ed
 1e-07 1 1 0
1  30 0 -74.6125 0
4 C0 3 0 18 0
0

0101000
+57 0 -60 0 *
Ve
1e-07
-37.30625 38.1 -3.175
0 0

0101101
*
Ed
 1e-07 1 1 0
1  31 0 1.5707963267949 3.14159265358979
2  34 17 0 1.5707963267949 3.14159265358979
4 C0 3 0 17 0
0

0101000
+55 0 -57 0 *
Ve
1e-07
37.30625 38.1 -3.175
0 0

0101101
*
Ed
 1e-07 1 1 0
1  32 0 -74.6125 -0
4 C0 3 0 16 0
0

0101000
+53 0 -55 0 *
Ve
1e-07
38.1 37.30625 -3.175
0 0

0101101
*
Ed
 1e-07 1 1 0
1  33 0 0 1.5707963267949
2  35 15 0 0 1.5707963267949
4 C0 3 0 15 0
0

0101000
+51 0 -53 0 *
Ve
1e-07
38.1 -37.30625 -3.175
0 0

0101101
*
Ed
 1e-07 1 1 0
1  34 0 -74.6125 0
4 C0 3 0 14 0
0

0101000
+49 0 -51 0 *
Ve
1e-07
37.30625 -38.1 -3.175
0 0

0101101
*
Ed
 1e-07 1 1 0
1  35 0 4.71238898038469 6.28318530717959
2  36 13 0 4.71238898038469 6.28318530717959
4 C0 3 0 13 0
0

0101000
+47 0 -49 0 *
Ed
 1e-07 1 1 0
1  36 0 -74.6125 0
4 C0 3 0 12 0
0

0101000
+59 0 -47 0 *
Wi

0101100
-58 0 -56 0 -54 0 -52 0 -50 0 -48 0 -46 0 -45 0 *
Ed
 1e-07 1 1 0
1  37 0 0 3.14159265358979
2  37 10 0 0 3.14159265358979
4 C0 3 0 10 0
0

0101000
+93 0 -95 0 *
Wi

0101100
+92 0 +43 0 *
Ed
 1e-07 1 1 0
1  38 0 0 3.14159265358979
2  38 8 0 0 3.14159265358979
4 C0 3 0 8 0
0

0101000
+103 0 -105 0 *
Wi

0101100
+102 0 +41 0 *
Ed
 1e-07 1 1 0
1  39 0 0 3.14159265358979
2  39 6 0 0 3.14159265358979
4 C0 3 0 6 0
0

0101000
+113 0 -115 0 *
Wi

0101100
+112 0 +39 0 *
Ed
 1e-07 1 1 0
1  40 0 0 3.14159265358979
2  40 2 0 0 3.14159265358979
4 C0 3 0 2 0
0

0101000
+123 0 -125 0 *
Wi

0101100
+122 0 +37 0 *
Fa
0  1e-07 3 0

0111000
-44 0 -42 0 -40 0 -38 0 -36 0 *
Ed
 1e-07 1 1 0
1  41 0 -0 6.35
2  41 11 0 -0 6.35
4 G1 11 0 12 0
0

0101000
+81 0 -59 0 *
Ed
 1e-07 1 1 0
1  42 0 -0 6.35
2  42 11 0 -0 6.35
4 G1 11 0 18 0
0

0101000
+82 0 -60 0 *
Wi

0101100
+58 0 -34 0 -80 0 +33 0 *
Fa
0  1e-07 11 0

0111000
+32 0 *
Ed
 1e-07 1 1 0
1  43 0 -0 6.35
2  43 13 0 -0 6.35
4 G1 12 0 13 0
0

0101000
+79 0 -47 0 *
Wi

0101100
+45 0 -30 0 -78 0 +34 0 *
Fa
0  1e-07 12 0

0111000
-29 0 *
Ed
 1e-07 1 1 0
1  44 0 -0 6.35
2  44 13 0 -0 6.35
4 G1 13 0 14 0
0

0101000
+77 0 -49 0 *
Wi

0101100
+46 0 -27 0 -76 0 +30 0 *
Fa
0  1e-07 13 0

0111000
+26 0 *
Ed
 1e-07 1 1 0
1  45 0 -0 6.35
2  45 15 0 -0 6.35
4 G1 14 0 15 0
0

0101000
+75 0 -51 0 *
Wi

0101100
+48 0 -24 0 -74 0 +27 0 *
Fa
0  1e-07 14 0

0111000
-23 0 *
Ed
 1e-07 1 1 0
1  46 0 -0 6.35
2  46 15 0 -0 6.35
4 G1 15 0 16 0
0

0101000
+73 0 -53 0 *
Wi

0101100
+50 0 -21 0 -72 0 +24 0 *
Fa
0  1e-07 15 0

0111000
+20 0 *
Ed
 1e-07 1 1 0
1  47 0 -0 6.35
2  47 17 0 -0 6.35
4 G1 16 0 17 0
0

0101000
+71 0 -55 0 *
Wi

0101100
+52 0 -18 0 -70 0 +21 0 *
Fa
0  1e-07 16 0

0111000
-17 0 *
Ed
 1e-07 1 1 0
1  48 0 -0 6.35
2  48 17 0 -0 6.35
4 G1 17 0 18 0
0

0101000
+69 0 -57 0 *
Wi

0101100
+54 0 -15 0 -68 0 +18 0 *
Fa
0  1e-07 17 0

0111000
+14 0 *
Wi

0101100
+56 0 -33 0 -67 0 +15 0 *
Fa
0  1e-07 18 0

0111000
-12 0 *
Wi

0101100
+43 0 -94 0 -84 0 +90 0 *
Fa
0  1e-07 10 0

0111000
+10 0 *
Wi

0101100
+41 0 -104 0 -65 0 +100 0 *
Fa
0  1e-07 8 0

0111000
+8 0 *
Wi

0101100
+39 0 -114 0 -86 0 +110 0 *
Fa
0  1e-07 6 0

0111000
+6 0 *
Wi

0101100
+37 0 -124 0 -63 0 +120 0 *
Fa
0  1e-07 2 0

0111000
+4 0 *
Sh

0101100
-117 0 -107 0 -97 0 -87 0 +61 0 -35 0 +31 0 -28 0 +25 0 -22 0 
+19 0 -16 0 +13 0 -11 0 -9 0 -7 0 -5 0 -3 0 *
So

0100000
+2 0 *

+1 0 