
CASCADE Topology V3, (c) Open Cascade
Locations 0
Curve2ds 76
1 6.2831853071795862 0 0 1 
1 0 0 0 1 
1 9.4247779607693793 6.3499999999999996 -1 0 
1 3.1415926535897931 0 0 1 
1 3.1415926535897931 0 0 1 
1 9.4247779607693793 0 -1 0 
1 6.2831853071795862 0 0 1 
1 0 0 0 1 
1 9.4247779607693793 6.3499999999999996 -1 0 
1 3.1415926535897931 0 0 1 
1 3.1415926535897931 0 0 1 
1 9.4247779607693793 0 -1 0 
1 6.2831853071795862 0 0 1 
1 0 0 0 1 
1 9.4247779607693793 6.3499999999999996 -1 0 
1 3.1415926535897931 0 0 1 
1 3.1415926535897931 0 0 1 
1 9.4247779607693793 0 -1 0 
1 6.2831853071795862 0 0 1 
1 0 0 0 1 
1 9.4247779607693793 6.3499999999999996 -1 0 
1 3.1415926535897931 0 0 1 
1 3.1415926535897931 0 0 1 
1 9.4247779607693793 0 -1 0 
1 6.2831853071795862 0 0 1 
1 0 0 0 1 
1 9.4247779607693793 6.3499999999999996 -1 0 
1 3.1415926535897931 0 0 1 
1 3.1415926535897931 0 0 1 
1 9.4247779607693793 0 -1 0 
1 6.2831853071795862 0 0 1 
1 0 0 0 1 
1 9.4247779607693793 6.3499999999999996 -1 0 
1 3.1415926535897931 0 0 1 
1 3.1415926535897931 0 0 1 
1 9.4247779607693793 0 -1 0 
1 6.2831853071795862 0 0 1 
1 0 0 0 1 
1 9.4247779607693793 6.3499999999999996 -1 0 
1 3.1415926535897931 0 0 1 
1 3.1415926535897931 0 0 1 
1 9.4247779607693793 0 -1 0 
1 6.2831853071795845 0 -1 0 
1 6.2831853071795862 0 -1 0 
1 6.2831853071795862 0 -1 0 
1 6.2831853071795862 0 -1 0 
1 6.2831853071795862 0 -1 0 
1 3.1415926535897931 0 -1 0 
1 3.1415926535897931 0 -1 0 
1 3.1415926535897931 0 -1 0 
1 3.1415926535897931 0 -1 0 
1 3.1415926535897931 0 -1 0 
1 3.1415926535897931 0 -1 0 
1 3.1415926535897931 0 -1 0 
1 3.1415926535897931 6.3499999999999996 -1 0 
1 3.1415926535897931 6.3499999999999996 -1 0 
1 3.1415926535897931 6.3499999999999996 -1 0 
1 6.2831853071795845 6.3499999999999996 -1 0 
1 6.2831853071795862 6.3499999999999996 -1 0 
1 6.2831853071795862 6.3499999999999996 -1 0 
1 6.2831853071795862 6.3499999999999996 -1 0 
1 6.2831853071795862 6.3499999999999996 -1 0 
1 3.1415926535897931 6.3499999999999996 -1 0 
1 3.1415926535897931 6.3499999999999996 -1 0 
1 3.1415926535897931 6.3499999999999996 -1 0 
1 3.1415926535897931 6.3499999999999996 -1 0 
1 1.5707963267948966 0 0 1 
1 2.3561944901923368 0 0 1 
1 1.5707963267948966 0 0 1 
1 0 0 0 1 
1 6.2831853071795862 0 0 1 
1 4.7123889803846897 0 0 1 
1 4.7123889803846897 0 0 1 
1 3.1415926535897931 0 0 1 
1 3.1415926535897931 0 0 1 
1 2.3561944901923528 0 0 1 
Curves 72
1 -32.740599999999993 85.725000000000023 3.1749999999999998 -0 -0 -1 
2 -28.574999999999992 85.725000000000023 -3.1749999999999998 0 0 1 1 0 -0 -0 1 0 4.1656000000000022
1 -24.409399999999991 85.725000000000023 3.1749999999999998 -0 -0 -1 
2 -28.574999999999992 85.725000000000023 3.1749999999999998 0 0 1 1 0 -0 -0 1 0 4.1656000000000022
1 81.559400000000011 -28.575000000000003 3.1749999999999998 -0 -0 -1 
2 85.725000000000023 -28.575000000000003 -3.1749999999999998 0 0 1 1 0 -0 -0 1 0 4.1656000000000057
1 89.89060000000002 -28.575000000000003 3.1749999999999998 -0 -0 -1 
2 85.725000000000023 -28.575000000000003 3.1749999999999998 0 0 1 1 0 -0 -0 1 0 4.1656000000000057
1 -32.740600000000008 47.625000000000014 3.1749999999999998 -0 -0 -1 
2 -28.575000000000003 47.625000000000014 -3.1749999999999998 0 0 1 1 0 -0 -0 1 0 4.1656000000000022
1 -24.409400000000005 47.625000000000014 3.1749999999999998 -0 -0 -1 
2 -28.575000000000003 47.625000000000014 3.1749999999999998 0 0 1 1 0 -0 -0 1 0 4.1656000000000022
1 -32.740599999999993 9.5250000000000021 3.1749999999999998 -0 -0 -1 
2 -28.574999999999992 9.5250000000000021 -3.1749999999999998 0 0 1 1 0 -0 -0 1 0 4.1656000000000022
1 -24.409399999999991 9.5250000000000021 3.1749999999999998 -0 -0 -1 
2 -28.574999999999992 9.5250000000000021 3.1749999999999998 0 0 1 1 0 -0 -0 1 0 4.1656000000000022
1 -32.740599999999993 -28.575000000000003 3.1749999999999998 -0 -0 -1 
2 -28.574999999999992 -28.575000000000003 -3.1749999999999998 0 0 1 1 0 -0 -0 1 0 4.1656000000000022
1 -24.409399999999991 -28.575000000000003 3.1749999999999998 -0 -0 -1 
2 -28.574999999999992 -28.575000000000003 3.1749999999999998 0 0 1 1 0 -0 -0 1 0 4.1656000000000022
1 5.3594000000000026 -28.574999999999999 3.1749999999999998 -0 -0 -1 
2 9.525000000000011 -28.574999999999999 -3.1749999999999998 0 0 1 1 0 -0 -0 1 0 4.1656000000000066
1 13.690600000000018 -28.574999999999999 3.1749999999999998 -0 -0 -1 
2 9.525000000000011 -28.574999999999999 3.1749999999999998 0 0 1 1 0 -0 -0 1 0 4.1656000000000066
1 43.459400000000016 -28.574999999999989 3.1749999999999998 -0 -0 -1 
2 47.625000000000014 -28.574999999999989 -3.1749999999999998 0 0 1 1 0 -0 -0 1 0 4.1655999999999986
1 51.790600000000012 -28.574999999999989 3.1749999999999998 -0 -0 -1 
2 47.625000000000014 -28.574999999999989 3.1749999999999998 0 0 1 1 0 -0 -0 1 0 4.1655999999999986
2 -9.853782015133639 103.98125000000002 3.1749999999999998 0 0 1 -1 0 0 0 -1 0 0.79374999999998019
1 -46.83124999999999 104.77499999999999 3.1749999999999998 -1 3.7530389624011507e-16 -0 
2 -46.83124999999999 103.98125000000002 3.1749999999999998 0 0 1 -1 0 0 0 -1 0 0.79374999999999585
1 -47.625 -46.831250000000018 3.1749999999999998 -4.6010071472240218e-17 -1 -0 
2 -46.83124999999999 -46.831250000000018 3.1749999999999998 0 0 1 -1 0 0 0 -1 0 0.79375000000000961
1 103.98125000000002 -47.625 3.1749999999999998 1 1.8404028588896087e-16 -0 
2 103.98125000000002 -46.831249999999997 3.1749999999999998 0 0 1 -1 0 0 0 -1 0 0.79374999999998197
1 104.77499999999999 -9.8537820151336817 3.1749999999999998 3.7530389624011547e-16 1 -0 
2 103.98125000000002 -9.8537820151336817 3.1749999999999998 0 0 1 -1 0 0 0 -1 0 0.79374999999999585
1 -9.2925160075668192 104.54251600756685 3.1749999999999998 -0.70710678118654735 0.70710678118654757 -0 
2 47.625000000000014 -28.574999999999989 3.1749999999999998 0 0 1 1 0 -0 -0 1 0 4.1655999999999986
2 9.525000000000011 -28.574999999999999 3.1749999999999998 0 0 1 1 0 -0 -0 1 0 4.1656000000000066
2 -28.574999999999992 -28.575000000000003 3.1749999999999998 0 0 1 1 0 -0 -0 1 0 4.1656000000000022
2 -28.574999999999992 9.5250000000000021 3.1749999999999998 0 0 1 1 0 -0 -0 1 0 4.1656000000000022
2 -28.575000000000003 47.625000000000014 3.1749999999999998 0 0 1 1 0 -0 -0 1 0 4.1656000000000022
2 85.725000000000023 -28.575000000000003 3.1749999999999998 0 0 1 1 0 -0 -0 1 0 4.1656000000000057
2 -28.574999999999992 85.725000000000023 3.1749999999999998 0 0 1 1 0 -0 -0 1 0 4.1656000000000022
2 85.725000000000023 -28.575000000000003 -3.1749999999999998 0 0 1 1 0 -0 -0 1 0 4.1656000000000057
2 -28.574999999999992 9.5250000000000021 -3.1749999999999998 0 0 1 1 0 -0 -0 1 0 4.1656000000000022
2 9.525000000000011 -28.574999999999999 -3.1749999999999998 0 0 1 1 0 -0 -0 1 0 4.1656000000000066
2 -9.853782015133639 103.98125000000002 -3.1749999999999998 0 0 1 -1 0 0 0 -1 0 0.79374999999998019
1 -9.2925160075668192 104.54251600756685 -3.1749999999999998 -0.70710678118654735 0.70710678118654757 -0 
2 103.98125000000002 -9.8537820151336817 -3.1749999999999998 0 0 1 -1 0 0 0 -1 0 0.79374999999999585
1 104.77499999999999 -9.8537820151336817 -3.1749999999999998 3.7530389624011547e-16 1 -0 
2 103.98125000000002 -46.831249999999997 -3.1749999999999998 0 0 1 -1 0 0 0 -1 0 0.79374999999998197
1 103.98125000000002 -47.625 -3.1749999999999998 1 1.8404028588896087e-16 -0 
2 -46.83124999999999 -46.831250000000018 -3.1749999999999998 0 0 1 -1 0 0 0 -1 0 0.79375000000000961
1 -47.625 -46.831250000000018 -3.1749999999999998 -4.6010071472240218e-17 -1 -0 
2 -46.83124999999999 103.98125000000002 -3.1749999999999998 0 0 1 -1 0 0 0 -1 0 0.79374999999999585
1 -46.83124999999999 104.77499999999999 -3.1749999999999998 -1 3.7530389624011507e-16 -0 
2 47.625000000000014 -28.574999999999989 -3.1749999999999998 0 0 1 1 0 -0 -0 1 0 4.1655999999999986
2 -28.574999999999992 -28.575000000000003 -3.1749999999999998 0 0 1 1 0 -0 -0 1 0 4.1656000000000022
2 -28.575000000000003 47.625000000000014 -3.1749999999999998 0 0 1 1 0 -0 -0 1 0 4.1656000000000022
2 -28.574999999999992 85.725000000000023 -3.1749999999999998 0 0 1 1 0 -0 -0 1 0 4.1656000000000022
1 -9.853782015133639 104.77499999999999 3.1749999999999998 -0 -0 -1 
1 -9.2925160075668192 104.54251600756685 3.1749999999999998 -0 -0 -1 
1 -46.83124999999999 104.77499999999999 3.1749999999999998 -0 -0 -1 
1 -47.624999999999986 103.98125000000002 3.1749999999999998 -0 -0 -1 
1 -47.625 -46.831250000000018 3.1749999999999998 -0 -0 -1 
1 -46.83124999999999 -47.625000000000028 3.1749999999999998 -0 -0 -1 
1 103.98125000000002 -47.625 3.1749999999999998 -0 -0 -1 
1 104.77499999999999 -46.831249999999997 3.1749999999999998 -0 -0 -1 
1 104.77499999999999 -9.8537820151336817 3.1749999999999998 -0 -0 -1 
1 104.54251600756685 -9.2925160075668618 3.1749999999999998 -0 -0 -1 
Polygon3D 0
PolygonOnTriangulations 0
Surfaces 26
2 -28.574999999999992 85.725000000000023 3.1749999999999998 -0 -0 -1 -1 0 0 0 1 -0 4.1656000000000022
2 -28.574999999999992 85.725000000000023 3.1749999999999998 -0 -0 -1 -1 0 0 0 1 -0 4.1656000000000022
1 -9.853782015133639 103.98125000000002 -3.1749999999999998 -0 0 -1 -1 0 0 0 1 0 
1 -9.853782015133639 103.98125000000002 3.1749999999999998 -0 0 -1 -1 0 0 0 1 0 
2 85.725000000000023 -28.575000000000003 3.1749999999999998 -0 -0 -1 -1 0 0 0 1 -0 4.1656000000000057
2 85.725000000000023 -28.575000000000003 3.1749999999999998 -0 -0 -1 -1 0 0 0 1 -0 4.1656000000000057
2 -28.575000000000003 47.625000000000014 3.1749999999999998 -0 -0 -1 -1 0 0 0 1 -0 4.1656000000000022
2 -28.575000000000003 47.625000000000014 3.1749999999999998 -0 -0 -1 -1 0 0 0 1 -0 4.1656000000000022
2 -28.574999999999992 9.5250000000000021 3.1749999999999998 -0 -0 -1 -1 0 0 0 1 -0 4.1656000000000022
2 -28.574999999999992 9.5250000000000021 3.1749999999999998 -0 -0 -1 -1 0 0 0 1 -0 4.1656000000000022
2 -28.574999999999992 -28.575000000000003 3.1749999999999998 -0 -0 -1 -1 0 0 0 1 -0 4.1656000000000022
2 -28.574999999999992 -28.575000000000003 3.1749999999999998 -0 -0 -1 -1 0 0 0 1 -0 4.1656000000000022
2 9.525000000000011 -28.574999999999999 3.1749999999999998 -0 -0 -1 -1 0 0 0 1 -0 4.1656000000000075
2 9.525000000000011 -28.574999999999999 3.1749999999999998 -0 -0 -1 -1 0 0 0 1 -0 4.1656000000000075
2 47.625000000000014 -28.574999999999989 3.1749999999999998 -0 -0 -1 -1 0 0 0 1 -0 4.1655999999999986
2 47.625000000000014 -28.574999999999989 3.1749999999999998 -0 -0 -1 -1 0 0 0 1 -0 4.1655999999999986
2 -9.853782015133639 103.98125000000002 3.1749999999999998 -0 -0 -1 -1 0 0 0 1 -0 0.79374999999998019
1 -46.83124999999999 104.77499999999999 3.1749999999999998 -3.7530389624011502e-16 -1 0 1 -3.7530389624011502e-16 0 0 0 1 
2 -46.83124999999999 103.98125000000002 3.1749999999999998 -0 -0 -1 -1 0 0 0 1 -0 0.79374999999999585
1 -47.625 -46.831250000000018 3.1749999999999998 1 -4.6010071472240212e-17 0 4.6010071472240212e-17 1 0 -0 0 1 
2 -46.83124999999999 -46.831250000000018 3.1749999999999998 -0 -0 -1 -1 0 0 0 1 -0 0.79375000000000961
1 103.98125000000002 -47.625 3.1749999999999998 -1.8404028588896085e-16 1 0 -1 -1.8404028588896085e-16 0 0 0 1 
2 103.98125000000002 -46.831249999999997 3.1749999999999998 -0 -0 -1 -1 0 0 0 1 -0 0.79374999999998197
1 104.77499999999999 -9.8537820151336817 3.1749999999999998 -1 3.7530389624011547e-16 0 -3.7530389624011547e-16 -1 0 0 0 1 
2 103.98125000000002 -9.8537820151336817 3.1749999999999998 -0 -0 -1 -1 0 0 0 1 -0 0.79374999999999585
1 -9.2925160075668192 104.54251600756685 3.1749999999999998 -0.70710678118654768 -0.70710678118654735 0 0.70710678118654735 -0.70710678118654768 0 0 0 1 
Triangulations 0

TShapes 188
Ve
1e-07
-32.7406 85.725 3.175
0 0

0101101
*
Ve
1e-07
-32.7406 85.725 -3.175
0 0

0101101
*
Ed
 1e-07 1 1 0
1  1 0 -0 6.35
2  1 1 0 -0 6.35
2  2 2 0 -0 6.35
4 CN 1 0 2 0
0

0101000
+188 0 -187 0 *
Ve
1e-07
-24.4094 85.725 -3.175
0 0

0101101
*
Ed
 1e-07 1 1 0
1  2 0 3.14159265358979 6.28318530717959
2  3 1 0 3.14159265358979 6.28318530717959
4 C0 1 0 3 0
0

0101000
+187 0 -185 0 *
Ve
1e-07
-24.4094 85.725 3.175
0 0

0101101
*
Ed
 1e-07 1 1 0
1  3 0 -0 6.35
2  4 1 0 -0 6.35
2  5 2 0 -0 6.35
4 CN 1 0 2 0
0

0101000
+183 0 -185 0 *
Ed
 1e-07 1 1 0
1  4 0 3.14159265358979 6.28318530717959
2  6 1 0 3.14159265358979 6.28318530717959
4 C0 1 0 4 0
0

0101000
+188 0 -183 0 *
Wi

0101100
+186 0 +184 0 -182 0 -181 0 *
Fa
0  1e-07 1 0

0111000
+180 0 *
Ve
1e-07
81.5594 -28.575 3.175
0 0

0101101
*
Ve
1e-07
81.5594 -28.575 -3.175
0 0

0101101
*
Ed
 1e-07 1 1 0
1  5 0 -0 6.35
2  7 5 0 -0 6.35
2  8 6 0 -0 6.35
4 CN 5 0 6 0
0

0101000
+178 0 -177 0 *
Ve
1e-07
89.8906 -28.575 -3.175
0 0

0101101
*
Ed
 1e-07 1 1 0
1  6 0 3.14159265358979 6.28318530717959
2  9 5 0 3.14159265358979 6.28318530717959
4 C0 5 0 3 0
0

0101000
+177 0 -175 0 *
Ve
1e-07
89.8906 -28.575 3.175
0 0

0101101
*
Ed
 1e-07 1 1 0
1  7 0 -0 6.35
2  10 5 0 -0 6.35
2  11 6 0 -0 6.35
4 CN 5 0 6 0
0

0101000
+173 0 -175 0 *
Ed
 1e-07 1 1 0
1  8 0 3.14159265358979 6.28318530717959
2  12 5 0 3.14159265358979 6.28318530717959
4 C0 5 0 4 0
0

0101000
+178 0 -173 0 *
Wi

0101100
+176 0 +174 0 -172 0 -171 0 *
Fa
0  1e-07 5 0

0111000
+170 0 *
Ve
1e-07
-32.7406 47.625 3.175
0 0

0101101
*
Ve
1e-07
-32.7406 47.625 -3.175
0 0

0101101
*
Ed
 1e-07 1 1 0
1  9 0 -0 6.35
2  13 7 0 -0 6.35
2  14 8 0 -0 6.35
4 CN 7 0 8 0
0

0101000
+168 0 -167 0 *
Ve
1e-07
-24.4094 47.625 -3.175
0 0

0101101
*
Ed
 1e-07 1 1 0
1  10 0 3.14159265358979 6.28318530717959
2  15 7 0 3.14159265358979 6.28318530717959
4 C0 7 0 3 0
0

0101000
+167 0 -165 0 *
Ve
1e-07
-24.4094 47.625 3.175
0 0

0101101
*
Ed
 1e-07 1 1 0
1  11 0 -0 6.35
2  16 7 0 -0 6.35
2  17 8 0 -0 6.35
4 CN 7 0 8 0
0

0101000
+163 0 -165 0 *
Ed
 1e-07 1 1 0
1  12 0 3.14159265358979 6.28318530717959
2  18 7 0 3.14159265358979 6.28318530717959
4 C0 7 0 4 0
0

0101000
+168 0 -163 0 *
Wi

0101100
+166 0 +164 0 -162 0 -161 0 *
Fa
0  1e-07 7 0

0111000
+160 0 *
Ve
1e-07
-32.7406 9.525 3.175
0 0

0101101
*
Ve
1e-07
-32.7406 9.525 -3.175
0 0

0101101
*
Ed
 1e-07 1 1 0
1  13 0 -0 6.35
2  19 9 0 -0 6.35
2  20 10 0 -0 6.35
4 CN 9 0 10 0
0

0101000
+158 0 -157 0 *
Ve
1e-07
-24.4094 9.525 -3.175
0 0

0101101
*
Ed
 1e-07 1 1 0
1  14 0 3.14159265358979 6.28318530717959
2  21 9 0 3.14159265358979 6.28318530717959
4 C0 9 0 3 0
0

0101000
+157 0 -155 0 *
Ve
1e-07
-24.4094 9.525 3.175
0 0

0101101
*
Ed
 1e-07 1 1 0
1  15 0 -0 6.35
2  22 9 0 -0 6.35
2  23 10 0 -0 6.35
4 CN 9 0 10 0
0

0101000
+153 0 -155 0 *
Ed
 1e-07 1 1 0
1  16 0 3.14159265358979 6.28318530717959
2  24 9 0 3.14159265358979 6.28318530717959
4 C0 9 0 4 0
0

0101000
+158 0 -153 0 *
Wi

0101100
+156 0 +154 0 -152 0 -151 0 *
Fa
0  1e-07 9 0

0111000
+150 0 *
Ve
1e-07
-32.7406 -28.575 3.175
0 0

0101101
*
Ve
1e-07
-32.7406 -28.575 -3.175
0 0

0101101
*
Ed
 1e-07 1 1 0
1  17 0 -0 6.35
2  25 11 0 -0 6.35
2  26 12 0 -0 6.35
4 CN 11 0 12 0
0

0101000
+148 0 -147 0 *
Ve
1e-07
-24.4094 -28.575 -3.175
0 0

0101101
*
Ed
 1e-07 1 1 0
1  18 0 3.14159265358979 6.28318530717959
2  27 11 0 3.14159265358979 6.28318530717959
4 C0 11 0 3 0
0

0101000
+147 0 -145 0 *
Ve
1e-07
-24.4094 -28.575 3.175
0 0

0101101
*
Ed
 1e-07 1 1 0
1  19 0 -0 6.35
2  28 11 0 -0 6.35
2  29 12 0 -0 6.35
4 CN 11 0 12 0
0

0101000
+143 0 -145 0 *
Ed
 1e-07 1 1 0
1  20 0 3.14159265358979 6.28318530717959
2  30 11 0 3.14159265358979 6.28318530717959
4 C0 11 0 4 0
0

0101000
+148 0 -143 0 *
Wi

0101100
+146 0 +144 0 -142 0 -141 0 *
Fa
0  1e-07 11 0

0111000
+140 0 *
Ve
1e-07
5.3594 -28.575 3.175
0 0

0101101
*
Ve
1e-07
5.3594 -28.575 -3.175
0 0

0101101
*
Ed
 1e-07 1 1 0
1  21 0 -0 6.35
2  31 13 0 -0 6.35
2  32 14 0 -0 6.35
4 CN 13 0 14 0
0

0101000
+138 0 -137 0 *
Ve
1e-07
13.6906 -28.575 -3.175
0 0

0101101
*
Ed
 1e-07 1 1 0
1  22 0 3.14159265358979 6.28318530717959
2  33 13 0 3.14159265358979 6.28318530717959
4 C0 13 0 3 0
0

0101000
+137 0 -135 0 *
Ve
1e-07
13.6906 -28.575 3.175
0 0

0101101
*
Ed
 1e-07 1 1 0
1  23 0 -0 6.35
2  34 13 0 -0 6.35
2  35 14 0 -0 6.35
4 CN 13 0 14 0
0

0101000
+133 0 -135 0 *
Ed
 1e-07 1 1 0
1  24 0 3.14159265358979 6.28318530717959
2  36 13 0 3.14159265358979 6.28318530717959
4 C0 13 0 4 0
0

0101000
+138 0 -133 0 *
Wi

0101100
+136 0 +134 0 -132 0 -131 0 *
Fa
0  1e-07 13 0

0111000
+130 0 *
Ve
1e-07
43.4594 -28.575 3.175
0 0

0101101
*
Ve
1e-07
43.4594 -28.575 -3.175
0 0

0101101
*
Ed
 1e-07 1 1 0
1  25 0 -0 6.35
2  37 15 0 -0 6.35
2  38 16 0 -0 6.35
4 CN 15 0 16 0
0

0101000
+128 0 -127 0 *
Ve
1e-07
51.7906 -28.575 -3.175
0 0

0101101
*
Ed
 1e-07 1 1 0
1  26 0 3.14159265358979 6.28318530717959
2  39 15 0 3.14159265358979 6.28318530717959
4 C0 15 0 3 0
0

0101000
+127 0 -125 0 *
Ve
1e-07
51.7906 -28.575 3.175
0 0

0101101
*
Ed
 1e-07 1 1 0
1  27 0 -0 6.35
2  40 15 0 -0 6.35
2  41 16 0 -0 6.35
4 CN 15 0 16 0
0

0101000
+123 0 -125 0 *
Ed
 1e-07 1 1 0
1  28 0 3.14159265358979 6.28318530717959
2  42 15 0 3.14159265358979 6.28318530717959
4 C0 15 0 4 0
0

0101000
+128 0 -123 0 *
Wi

0101100
+126 0 +124 0 -122 0 -121 0 *
Fa
0  1e-07 15 0

0111000
+120 0 *
Ve
1e-07
-9.29251600756682 104.542516007567 3.175
0 0

0101101
*
Ve
1e-07
-9.85378201513364 104.775 3.175
0 0

0101101
*
Ed
 1e-07 1 1 0
1  29 0 3.92699081698725 4.71238898038469
2  43 17 0 3.92699081698725 4.71238898038469
4 C0 4 0 17 0
0

0101000
+118 0 -117 0 *
Ve
1e-07
-46.83125 104.775 3.175
0 0

0101101
*
Ed
 1e-07 1 1 0
1  30 0 -36.9774679848664 0
4 C0 4 0 18 0
0

0101000
+117 0 -115 0 *
Ve
1e-07
-47.625 103.98125 3.175
0 0

0101101
*
Ed
 1e-07 1 1 0
1  31 0 4.71238898038469 6.28318530717959
2  44 19 0 4.71238898038469 6.28318530717959
4 C0 4 0 19 0
0

0101000
+115 0 -113 0 *
Ve
1e-07
-47.625 -46.83125 3.175
0 0

0101101
*
Ed
 1e-07 1 1 0
1  32 0 -150.8125 -0
4 C0 4 0 20 0
0

0101000
+113 0 -111 0 *
Ve
1e-07
-46.83125 -47.625 3.175
0 0

0101101
*
Ed
 1e-07 1 1 0
1  33 0 0 1.5707963267949
2  45 21 0 0 1.5707963267949
4 C0 4 0 21 0
0

0101000
+111 0 -109 0 *
Ve
1e-07
103.98125 -47.625 3.175
0 0

0101101
*
Ed
 1e-07 1 1 0
1  34 0 -150.8125 0
4 C0 4 0 22 0
0

0101000
+109 0 -107 0 *
Ve
1e-07
104.775 -46.83125 3.175
0 0

0101101
*
Ed
 1e-07 1 1 0
1  35 0 1.5707963267949 3.14159265358979
2  46 23 0 1.5707963267949 3.14159265358979
4 C0 4 0 23 0
0

0101000
+107 0 -105 0 *
Ve
1e-07
104.775 -9.85378201513368 3.175
0 0

0101101
*
Ed
 1e-07 1 1 0
1  36 0 -36.9774679848663 0
4 C0 4 0 24 0
0

0101000
+105 0 -103 0 *
Ve
1e-07
104.542516007567 -9.29251600756686 3.175
0 0

0101101
*
Ed
 1e-07 1 1 0
1  37 0 3.14159265358979 3.92699081698723
2  47 25 0 3.14159265358979 3.92699081698723
4 C0 4 0 25 0
0

0101000
+103 0 -101 0 *
Ed
 1e-07 1 1 0
1  38 0 -160.987046148978 0
4 C0 4 0 26 0
0

0101000
+101 0 -118 0 *
Wi

0101100
+116 0 +114 0 +112 0 +110 0 +108 0 +106 0 +104 0 +102 0 +100 0 +99 0 
*
Ed
 1e-07 1 1 0
1  39 0 0 3.14159265358979
2  48 16 0 0 3.14159265358979
4 C0 4 0 16 0
0

0101000
+123 0 -128 0 *
Wi

0101100
-121 0 -97 0 *
Ed
 1e-07 1 1 0
1  40 0 0 3.14159265358979
2  49 14 0 0 3.14159265358979
4 C0 4 0 14 0
0

0101000
+133 0 -138 0 *
Wi

0101100
-131 0 -95 0 *
Ed
 1e-07 1 1 0
1  41 0 0 3.14159265358979
2  50 12 0 0 3.14159265358979
4 C0 4 0 12 0
0

0101000
+143 0 -148 0 *
Wi

0101100
-141 0 -93 0 *
Ed
 1e-07 1 1 0
1  42 0 0 3.14159265358979
2  51 10 0 0 3.14159265358979
4 C0 4 0 10 0
0

0101000
+153 0 -158 0 *
Wi

0101100
-151 0 -91 0 *
Ed
 1e-07 1 1 0
1  43 0 0 3.14159265358979
2  52 8 0 0 3.14159265358979
4 C0 4 0 8 0
0

0101000
+163 0 -168 0 *
Wi

0101100
-161 0 -89 0 *
Ed
 1e-07 1 1 0
1  44 0 0 3.14159265358979
2  53 6 0 0 3.14159265358979
4 C0 4 0 6 0
0

0101000
+173 0 -178 0 *
Wi

0101100
-171 0 -87 0 *
Ed
 1e-07 1 1 0
1  45 0 0 3.14159265358979
2  54 2 0 0 3.14159265358979
4 C0 4 0 2 0
0

0101000
+183 0 -188 0 *
Wi

0101100
-181 0 -85 0 *
Fa
0  1e-07 4 0

0111000
-98 0 -96 0 -94 0 -92 0 -90 0 -88 0 -86 0 -84 0 *
Ed
 1e-07 1 1 0
1  46 0 0 3.14159265358979
2  55 6 0 0 3.14159265358979
4 C0 3 0 6 0
0

0101000
+175 0 -177 0 *
Wi

0101100
+174 0 +82 0 *
Ed
 1e-07 1 1 0
1  47 0 0 3.14159265358979
2  56 10 0 0 3.14159265358979
4 C0 3 0 10 0
0

0101000
+155 0 -157 0 *
Wi

0101100
+154 0 +80 0 *
Ed
 1e-07 1 1 0
1  48 0 0 3.14159265358979
2  57 14 0 0 3.14159265358979
4 C0 3 0 14 0
0

0101000
+135 0 -137 0 *
Wi

0101100
+134 0 +78 0 *
Ve
1e-07
-9.29251600756682 104.542516007567 -3.175
0 0

0101101
*
Ve
1e-07
-9.85378201513364 104.775 -3.175
0 0

0101101
*
Ed
 1e-07 1 1 0
1  49 0 3.92699081698725 4.71238898038469
2  58 17 0 3.92699081698725 4.71238898038469
4 C0 3 0 17 0
0

0101000
+76 0 -75 0 *
Ve
1e-07
104.542516007567 -9.29251600756686 -3.175
0 0

0101101
*
Ed
 1e-07 1 1 0
1  50 0 -160.987046148978 0
4 C0 3 0 26 0
0

0101000
+73 0 -76 0 *
Ve
1e-07
104.775 -9.85378201513368 -3.175
0 0

0101101
*
Ed
 1e-07 1 1 0
1  51 0 3.14159265358979 3.92699081698723
2  59 25 0 3.14159265358979 3.92699081698723
4 C0 3 0 25 0
0

0101000
+71 0 -73 0 *
Ve
1e-07
104.775 -46.83125 -3.175
0 0

0101101
*
Ed
 1e-07 1 1 0
1  52 0 -36.9774679848663 0
4 C0 3 0 24 0
0

0101000
+69 0 -71 0 *
Ve
1e-07
103.98125 -47.625 -3.175
0 0

0101101
*
Ed
 1e-07 1 1 0
1  53 0 1.5707963267949 3.14159265358979
2  60 23 0 1.5707963267949 3.14159265358979
4 C0 3 0 23 0
0

0101000
+67 0 -69 0 *
Ve
1e-07
-46.83125 -47.625 -3.175
0 0

0101101
*
Ed
 1e-07 1 1 0
1  54 0 -150.8125 0
4 C0 3 0 22 0
0

0101000
+65 0 -67 0 *
Ve
1e-07
-47.625 -46.83125 -3.175
0 0

0101101
*
Ed
 1e-07 1 1 0
1  55 0 0 1.5707963267949
2  61 21 0 0 1.5707963267949
4 C0 3 0 21 0
0

0101000
+63 0 -65 0 *
Ve
1e-07
-47.625 103.98125 -3.175
0 0

0101101
*
Ed
 1e-07 1 1 0
1  56 0 -150.8125 -0
4 C0 3 0 20 0
0

0101000
+61 0 -63 0 *
Ve
1e-07
-46.83125 104.775 -3.175
0 0

0101101
*
Ed
 1e-07 1 1 0
1  57 0 4.71238898038469 6.28318530717959
2  62 19 0 4.71238898038469 6.28318530717959
4 C0 3 0 19 0
0

0101000
+59 0 -61 0 *
Ed
 1e-07 1 1 0
1  58 0 -36.9774679848664 0
4 C0 3 0 18 0
0

0101000
+75 0 -59 0 *
Wi

0101100
-74 0 -72 0 -70 0 -68 0 -66 0 -64 0 -62 0 -60 0 -58 0 -57 0 
*
Ed
 1e-07 1 1 0
1  59 0 0 3.14159265358979
2  63 16 0 0 3.14159265358979
4 C0 3 0 16 0
0

0101000
+125 0 -127 0 *
Wi

0101100
+124 0 +55 0 *
Ed
 1e-07 1 1 0
1  60 0 0 3.14159265358979
2  64 12 0 0 3.14159265358979
4 C0 3 0 12 0
0

0101000
+145 0 -147 0 *
Wi

0101100
+144 0 +53 0 *
Ed
 1e-07 1 1 0
1  61 0 0 3.14159265358979
2  65 8 0 0 3.14159265358979
4 C0 3 0 8 0
0

0101000
+165 0 -167 0 *
Wi

0101100
+164 0 +51 0 *
Ed
 1e-07 1 1 0
1  62 0 0 3.14159265358979
2  66 2 0 0 3.14159265358979
4 C0 3 0 2 0
0

0101000
+185 0 -187 0 *
Wi

0101100
+184 0 +49 0 *
Fa
0  1e-07 3 0

0111000
+81 0 +79 0 +77 0 +56 0 +54 0 +52 0 +50 0 +48 0 *
Ed
 1e-07 1 1 0
1  63 0 -0 6.35
2  67 17 0 -0 6.35
4 G1 17 0 18 0
0

0101000
+117 0 -75 0 *
Ed
 1e-07 1 1 0
1  64 0 -0 6.35
2  68 17 0 -0 6.35
4 G1 17 0 26 0
0

0101000
+118 0 -76 0 *
Wi

0101100
+74 0 -46 0 -116 0 +45 0 *
Fa
0  1e-07 17 0

0111000
+44 0 *
Ed
 1e-07 1 1 0
1  65 0 -0 6.35
2  69 19 0 -0 6.35
4 G1 18 0 19 0
0

0101000
+115 0 -59 0 *
Wi

0101100
+57 0 -42 0 -114 0 +46 0 *
Fa
0  1e-07 18 0

0111000
-41 0 *
Ed
 1e-07 1 1 0
1  66 0 -0 6.35
2  70 19 0 -0 6.35
4 G1 19 0 20 0
0

0101000
+113 0 -61 0 *
Wi

0101100
+58 0 -39 0 -112 0 +42 0 *
Fa
0  1e-07 19 0

0111000
+38 0 *
Ed
 1e-07 1 1 0
1  67 0 -0 6.35
2  71 21 0 -0 6.35
4 G1 20 0 21 0
0

0101000
+111 0 -63 0 *
Wi

0101100
+60 0 -36 0 -110 0 +39 0 *
Fa
0  1e-07 20 0

0111000
-35 0 *
Ed
 1e-07 1 1 0
1  68 0 -0 6.35
2  72 21 0 -0 6.35
4 G1 21 0 22 0
0

0101000
+109 0 -65 0 *
Wi

0101100
+62 0 -33 0 -108 0 +36 0 *
Fa
0  1e-07 21 0

0111000
+32 0 *
Ed
 1e-07 1 1 0
1  69 0 -0 6.35
2  73 23 0 -0 6.35
4 G1 22 0 23 0
0

0101000
+107 0 -67 0 *
Wi

0101100
+64 0 -30 0 -106 0 +33 0 *
Fa
0  1e-07 22 0

0111000
-29 0 *
Ed
 1e-07 1 1 0
1  70 0 -0 6.35
2  74 23 0 -0 6.35
4 G1 23 0 24 0
0

0101000
+105 0 -69 0 *
Wi

0101100
+66 0 -27 0 -104 0 +30 0 *
Fa
0  1e-07 23 0

0111000
+26 0 *
Ed
 1e-07 1 1 0
1  71 0 -0 6.35
2  75 25 0 -0 6.35
4 G1 24 0 25 0
0

0101000
+103 0 -71 0 *
Wi

0101100
+68 0 -24 0 -102 0 +27 0 *
Fa
0  1e-07 24 0

0111000
-23 0 *
Ed
 1e-07 1 1 0
1  72 0 -0 6.35
2  76 25 0 -0 6.35
4 G1 25 0 26 0
0

0101000
+101 0 -73 0 *
Wi

0101100
+70 0 -21 0 -100 0 +24 0 *
Fa
0  1e-07 25 0

0111000
+20 0 *
Wi

0101100
+72 0 -45 0 -99 0 +21 0 *
Fa
0  1e-07 26 0

0111000
-18 0 *
Wi

0101100
+55 0 -126 0 -97 0 +122 0 *
Fa
0  1e-07 16 0

0111000
+16 0 *
Wi

0101100
+78 0 -136 0 -95 0 +132 0 *
Fa
0  1e-07 14 0

0111000
+14 0 *
Wi

0101100
+53 0 -146 0 -93 0 +142 0 *
Fa
0  1e-07 12 0

0111000
+12 0 *
Wi

0101100
+80 0 -156 0 -91 0 +152 0 *
Fa
0  1e-07 10 0

0111000
+10 0 *
Wi

0101100
+51 0 -166 0 -89 0 +162 0 *
Fa
0  1e-07 8 0

0111000
+8 0 *
Wi

0101100
+82 0 -176 0 -87 0 +172 0 *
Fa
0  1e-07 6 0

0111000
+6 0 *
Wi

0101100
+49 0 -186 0 -85 0 +182 0 *
Fa
0  1e-07 2 0

0111000
+4 0 *
Sh

0101100
-179 0 -169 0 -159 0 -149 0 -139 0 -129 0 -119 0 -83 0 +47 0 +43 0 
-40 0 +37 0 -34 0 +31 0 -28 0 +25 0 -22 0 +19 0 -17 0 -15 0 
-13 0 -11 0 -9 0 -7 0 -5 0 -3 0 *
So

0100000
+2 0 *

+1 0 