
CASCADE Topology V3, (c) Open Cascade
Locations 0
Curve2ds 40
1 6.2831853071795862 0 0 1 
1 0 0 0 1 
1 9.4247779607693793 6.3499999999999996 -1 0 
1 3.1415926535897931 0 0 1 
1 3.1415926535897931 0 0 1 
1 0 0 1 0 
1 6.2831853071795862 0 0 1 
1 0 0 0 1 
1 9.4247779607693793 6.3499999999999996 -1 0 
1 3.1415926535897931 0 0 1 
1 3.1415926535897931 0 0 1 
1 0 0 1 0 
1 6.2831853071795862 0 0 1 
1 0 0 0 1 
1 9.4247779607693793 6.3499999999999996 -1 0 
1 3.1415926535897931 0 0 1 
1 3.1415926535897931 0 0 1 
1 0 0 1 0 
1 6.2831853071795862 0 0 1 
1 0 0 0 1 
1 9.4247779607693793 6.3499999999999996 -1 0 
1 3.1415926535897931 0 0 1 
1 3.1415926535897931 0 0 1 
1 0 0 1 0 
1 6.2831853071795862 0 0 1 
1 0 0 0 1 
1 9.4247779607693793 6.3499999999999996 -1 0 
1 3.1415926535897931 0 0 1 
1 3.1415926535897931 0 0 1 
1 0 0 1 0 
1 0 0 1 0 
1 0 0 1 0 
1 0 0 1 0 
1 0 0 1 0 
1 0 0 1 0 
1 3.1415926535897931 6.3499999999999996 -1 0 
1 3.1415926535897931 6.3499999999999996 -1 0 
1 3.1415926535897931 6.3499999999999996 -1 0 
1 3.1415926535897931 6.3499999999999996 -1 0 
1 3.1415926535897931 6.3499999999999996 -1 0 
Curves 48
1 4.1655999999999995 -38.100000000000001 -3.1749999999999998 -0 -0 1 
2 0 -38.100000000000001 3.1749999999999998 0 0 -1 -1 0 0 0 1 0 4.1655999999999995
1 -4.1655999999999995 -38.100000000000001 -3.1749999999999998 -0 -0 1 
2 0 -38.100000000000001 -3.1749999999999998 0 0 1 1 0 -0 -0 1 0 4.1655999999999995
1 4.1655999999999995 38.100000000000001 -3.1749999999999998 -0 -0 1 
2 0 38.100000000000001 3.1749999999999998 0 0 -1 -1 0 0 0 1 0 4.1655999999999995
1 -4.1655999999999995 38.100000000000001 -3.1749999999999998 -0 -0 1 
2 0 38.100000000000001 -3.1749999999999998 0 0 1 1 0 -0 -0 1 0 4.1655999999999995
1 42.265599999999999 -38.100000000000001 -3.1749999999999998 -0 -0 1 
2 38.100000000000001 -38.100000000000001 3.1749999999999998 0 0 -1 -1 0 0 0 1 0 4.1655999999999986
1 33.934399999999997 -38.100000000000001 -3.1749999999999998 -0 -0 1 
2 38.100000000000001 -38.100000000000001 -3.1749999999999998 0 0 1 1 0 -0 -0 1 0 4.1655999999999986
1 -33.934399999999997 -38.100000000000001 -3.1749999999999998 -0 -0 1 
2 -38.100000000000001 -38.100000000000001 3.1749999999999998 0 0 -1 -1 0 0 0 1 0 4.1655999999999986
1 -42.265599999999999 -38.100000000000001 -3.1749999999999998 -0 -0 1 
2 -38.100000000000001 -38.100000000000001 -3.1749999999999998 0 0 1 1 0 -0 -0 1 0 4.1655999999999986
1 4.1655999999999995 0 -3.1749999999999998 -0 -0 1 
2 0 0 3.1749999999999998 0 0 -1 -1 0 0 0 1 0 4.1655999999999995
1 -4.1655999999999995 5.101388706528214e-16 -3.1749999999999998 -0 -0 1 
2 0 0 -3.1749999999999998 0 0 1 1 0 -0 -0 1 0 4.1655999999999995
1 -57.150000000000006 -57.150000000000006 -3.1749999999999998 0 0 1 
1 -57.150000000000006 -57.150000000000006 3.1749999999999998 -0 -1 -0 
1 -57.150000000000006 -19.049999999999997 -3.1749999999999998 0 0 1 
1 -57.150000000000006 -57.150000000000006 -3.1749999999999998 -0 -1 -0 
1 -57.150000000000006 -19.049999999999997 3.1749999999999998 -0.44721359549995809 -0.89442719099991574 -0 
1 -19.049999999999997 57.149999999999999 -3.1749999999999998 0 0 1 
1 -57.150000000000006 -19.049999999999997 -3.1749999999999998 -0.44721359549995809 -0.89442719099991574 -0 
1 -19.049999999999997 57.149999999999999 3.1749999999999998 -1 -3.6424639915523559e-16 -0 
1 19.049999999999958 57.150000000000006 -3.1749999999999998 0 0 1 
1 -19.049999999999997 57.149999999999999 -3.1749999999999998 -1 -3.6424639915523559e-16 -0 
1 57.149999999999963 -19.049999999999997 3.1749999999999998 -0.44721359549995793 0.89442719099991586 0 
1 57.149999999999963 -19.049999999999997 -3.1749999999999998 0 0 1 
1 57.149999999999963 -19.049999999999997 -3.1749999999999998 -0.44721359549995793 0.89442719099991586 0 
1 57.150000000000034 -57.149999999999977 3.1749999999999998 -1.8212319957761767e-15 1 0 
1 57.150000000000034 -57.149999999999977 -3.1749999999999998 0 0 1 
1 57.150000000000034 -57.149999999999977 -3.1749999999999998 -1.8212319957761767e-15 1 0 
1 57.150000000000034 -57.149999999999977 3.1749999999999998 1 2.4283093277015663e-16 -0 
1 57.150000000000034 -57.149999999999977 -3.1749999999999998 1 2.4283093277015663e-16 -0 
2 0 -38.100000000000001 -3.1749999999999998 0 0 1 1 0 -0 -0 1 0 4.1655999999999995
2 0 38.100000000000001 -3.1749999999999998 0 0 1 1 0 -0 -0 1 0 4.1655999999999995
2 38.100000000000001 -38.100000000000001 -3.1749999999999998 0 0 1 1 0 -0 -0 1 0 4.1655999999999986
2 -38.100000000000001 -38.100000000000001 -3.1749999999999998 0 0 1 1 0 -0 -0 1 0 4.1655999999999986
2 0 0 -3.1749999999999998 0 0 1 1 0 -0 -0 1 0 4.1655999999999995
2 0 -38.100000000000001 3.1749999999999998 0 0 -1 -1 0 0 0 1 0 4.1655999999999995
2 0 38.100000000000001 3.1749999999999998 0 0 -1 -1 0 0 0 1 0 4.1655999999999995
2 38.100000000000001 -38.100000000000001 3.1749999999999998 0 0 -1 -1 0 0 0 1 0 4.1655999999999986
2 -38.100000000000001 -38.100000000000001 3.1749999999999998 0 0 -1 -1 0 0 0 1 0 4.1655999999999986
2 0 0 3.1749999999999998 0 0 -1 -1 0 0 0 1 0 4.1655999999999995
Polygon3D 0
PolygonOnTriangulations 0
Surfaces 18
2 0 -38.100000000000001 -3.1749999999999998 -0 -0 1 1 0 0 -0 1 0 4.1655999999999995
2 0 -38.100000000000001 -3.1749999999999998 -0 -0 1 1 0 0 -0 1 0 4.1655999999999995
1 0 0 3.1749999999999998 0 0 -1 -1 0 -0 0 1 0 
1 0 0 -3.1749999999999998 0 0 -1 -1 0 -0 0 1 0 
2 0 38.100000000000001 -3.1749999999999998 -0 -0 1 1 0 0 -0 1 0 4.1655999999999995
2 0 38.100000000000001 -3.1749999999999998 -0 -0 1 1 0 0 -0 1 0 4.1655999999999995
2 38.100000000000001 -38.100000000000001 -3.1749999999999998 -0 -0 1 1 0 0 -0 1 0 4.1655999999999986
2 38.100000000000001 -38.100000000000001 -3.1749999999999998 -0 -0 1 1 0 0 -0 1 0 4.1655999999999986
2 -38.100000000000001 -38.100000000000001 -3.1749999999999998 -0 -0 1 1 0 0 -0 1 0 4.1655999999999986
2 -38.100000000000001 -38.100000000000001 -3.1749999999999998 -0 -0 1 1 0 0 -0 1 0 4.1655999999999986
2 0 0 -3.1749999999999998 -0 -0 1 1 0 0 -0 1 0 4.1655999999999995
2 0 0 -3.1749999999999998 -0 -0 1 1 0 0 -0 1 0 4.1655999999999995
1 -57.150000000000006 -57.150000000000006 -3.1749999999999998 -1 0 0 0 0 1 0 1 -0 
1 57.150000000000034 -57.149999999999977 -3.1749999999999998 2.4283093277015663e-16 -1 0 1 2.4283093277015663e-16 0 -0 0 1 
1 -57.150000000000006 -19.049999999999997 -3.1749999999999998 -0.89442719099991586 0.44721359549995815 0 -0.44721359549995815 -0.89442719099991586 0 0 0 1 
1 -19.049999999999997 57.149999999999999 -3.1749999999999998 -3.6424639915523554e-16 1 0 -1 -3.6424639915523554e-16 0 0 0 1 
1 57.149999999999963 -19.049999999999997 -3.1749999999999998 0.89442719099991597 0.44721359549995798 -0 -0.44721359549995798 0.89442719099991597 0 0 0 1 
1 57.150000000000034 -57.149999999999977 -3.1749999999999998 1 1.8212319957761767e-15 -0 -1.8212319957761767e-15 1 0 0 0 1 
Triangulations 0

TShapes 128
Ve
1e-07
4.1656 -38.1 -3.175
0 0

0101101
*
Ve
1e-07
4.1656 -38.1 3.175
0 0

0101101
*
Ed
 1e-07 1 1 0
1  1 0 0 6.35
2  1 1 0 0 6.35
2  2 2 0 0 6.35
4 CN 1 0 2 0
0

0101000
+128 0 -127 0 *
Ve
1e-07
-4.1656 -38.1 3.175
0 0

0101101
*
Ed
 1e-07 1 1 0
1  2 0 3.14159265358979 6.28318530717959
2  3 1 0 3.14159265358979 6.28318530717959
4 C0 1 0 3 0
0

0101000
+127 0 -125 0 *
Ve
1e-07
-4.1656 -38.1 -3.175
0 0

0101101
*
Ed
 1e-07 1 1 0
1  3 0 0 6.35
2  4 1 0 0 6.35
2  5 2 0 0 6.35
4 CN 1 0 2 0
0

0101000
+123 0 -125 0 *
Ed
 1e-07 1 1 0
1  4 0 3.14159265358979 6.28318530717959
2  6 1 0 3.14159265358979 6.28318530717959
4 C0 1 0 4 0
0

0101000
+123 0 -128 0 *
Wi

0101100
+126 0 +124 0 -122 0 +121 0 *
Fa
0  1e-07 1 0

0111000
+120 0 *
Ve
1e-07
4.1656 38.1 -3.175
0 0

0101101
*
Ve
1e-07
4.1656 38.1 3.175
0 0

0101101
*
Ed
 1e-07 1 1 0
1  5 0 0 6.35
2  7 5 0 0 6.35
2  8 6 0 0 6.35
4 CN 5 0 6 0
0

0101000
+118 0 -117 0 *
Ve
1e-07
-4.1656 38.1 3.175
0 0

0101101
*
Ed
 1e-07 1 1 0
1  6 0 3.14159265358979 6.28318530717959
2  9 5 0 3.14159265358979 6.28318530717959
4 C0 5 0 3 0
0

0101000
+117 0 -115 0 *
Ve
1e-07
-4.1656 38.1 -3.175
0 0

0101101
*
Ed
 1e-07 1 1 0
1  7 0 0 6.35
2  10 5 0 0 6.35
2  11 6 0 0 6.35
4 CN 5 0 6 0
0

0101000
+113 0 -115 0 *
Ed
 1e-07 1 1 0
1  8 0 3.14159265358979 6.28318530717959
2  12 5 0 3.14159265358979 6.28318530717959
4 C0 5 0 4 0
0

0101000
+113 0 -118 0 *
Wi

0101100
+116 0 +114 0 -112 0 +111 0 *
Fa
0  1e-07 5 0

0111000
+110 0 *
Ve
1e-07
42.2656 -38.1 -3.175
0 0

0101101
*
Ve
1e-07
42.2656 -38.1 3.175
0 0

0101101
*
Ed
 1e-07 1 1 0
1  9 0 0 6.35
2  13 7 0 0 6.35
2  14 8 0 0 6.35
4 CN 7 0 8 0
0

0101000
+108 0 -107 0 *
Ve
1e-07
33.9344 -38.1 3.175
0 0

0101101
*
Ed
 1e-07 1 1 0
1  10 0 3.14159265358979 6.28318530717959
2  15 7 0 3.14159265358979 6.28318530717959
4 C0 7 0 3 0
0

0101000
+107 0 -105 0 *
Ve
1e-07
33.9344 -38.1 -3.175
0 0

0101101
*
Ed
 1e-07 1 1 0
1  11 0 0 6.35
2  16 7 0 0 6.35
2  17 8 0 0 6.35
4 CN 7 0 8 0
0

0101000
+103 0 -105 0 *
Ed
 1e-07 1 1 0
1  12 0 3.14159265358979 6.28318530717959
2  18 7 0 3.14159265358979 6.28318530717959
4 C0 7 0 4 0
0

0101000
+103 0 -108 0 *
Wi

0101100
+106 0 +104 0 -102 0 +101 0 *
Fa
0  1e-07 7 0

0111000
+100 0 *
Ve
1e-07
-33.9344 -38.1 -3.175
0 0

0101101
*
Ve
1e-07
-33.9344 -38.1 3.175
0 0

0101101
*
Ed
 1e-07 1 1 0
1  13 0 0 6.35
2  19 9 0 0 6.35
2  20 10 0 0 6.35
4 CN 9 0 10 0
0

0101000
+98 0 -97 0 *
Ve
1e-07
-42.2656 -38.1 3.175
0 0

0101101
*
Ed
 1e-07 1 1 0
1  14 0 3.14159265358979 6.28318530717959
2  21 9 0 3.14159265358979 6.28318530717959
4 C0 9 0 3 0
0

0101000
+97 0 -95 0 *
Ve
1e-07
-42.2656 -38.1 -3.175
0 0

0101101
*
Ed
 1e-07 1 1 0
1  15 0 0 6.35
2  22 9 0 0 6.35
2  23 10 0 0 6.35
4 CN 9 0 10 0
0

0101000
+93 0 -95 0 *
Ed
 1e-07 1 1 0
1  16 0 3.14159265358979 6.28318530717959
2  24 9 0 3.14159265358979 6.28318530717959
4 C0 9 0 4 0
0

0101000
+93 0 -98 0 *
Wi

0101100
+96 0 +94 0 -92 0 +91 0 *
Fa
0  1e-07 9 0

0111000
+90 0 *
Ve
1e-07
4.1656 0 -3.175
0 0

0101101
*
Ve
1e-07
4.1656 0 3.175
0 0

0101101
*
Ed
 1e-07 1 1 0
1  17 0 0 6.35
2  25 11 0 0 6.35
2  26 12 0 0 6.35
4 CN 11 0 12 0
0

0101000
+88 0 -87 0 *
Ve
1e-07
-4.1656 5.10138870652821e-16 3.175
0 0

0101101
*
Ed
 1e-07 1 1 0
1  18 0 3.14159265358979 6.28318530717959
2  27 11 0 3.14159265358979 6.28318530717959
4 C0 11 0 3 0
0

0101000
+87 0 -85 0 *
Ve
1e-07
-4.1656 5.10138870652821e-16 -3.175
0 0

0101101
*
Ed
 1e-07 1 1 0
1  19 0 0 6.35
2  28 11 0 0 6.35
2  29 12 0 0 6.35
4 CN 11 0 12 0
0

0101000
+83 0 -85 0 *
Ed
 1e-07 1 1 0
1  20 0 3.14159265358979 6.28318530717959
2  30 11 0 3.14159265358979 6.28318530717959
4 C0 11 0 4 0
0

0101000
+83 0 -88 0 *
Wi

0101100
+86 0 +84 0 -82 0 +81 0 *
Fa
0  1e-07 11 0

0111000
+80 0 *
Ve
1e-07
-57.15 -57.15 -3.175
0 0

0101101
*
Ve
1e-07
-57.15 -57.15 3.175
0 0

0101101
*
Ed
 1e-07 1 1 0
1  21 0 0 6.35
4 C0 13 0 14 0
0

0101000
+78 0 -77 0 *
Ve
1e-07
-57.15 -19.05 3.175
0 0

0101101
*
Ed
 1e-07 1 1 0
1  22 0 -38.1 -0
4 C0 13 0 3 0
0

0101000
+75 0 -77 0 *
Ve
1e-07
-57.15 -19.05 -3.175
0 0

0101101
*
Ed
 1e-07 1 1 0
1  23 0 0 6.35
4 C0 13 0 15 0
0

0101000
+73 0 -75 0 *
Ed
 1e-07 1 1 0
1  24 0 -38.1 -0
4 C0 13 0 4 0
0

0101000
+73 0 -78 0 *
Wi

0101100
+76 0 -74 0 -72 0 +71 0 *
Fa
0  1e-07 13 0

0111000
+70 0 *
Ve
1e-07
-19.05 57.15 3.175
0 0

0101101
*
Ed
 1e-07 1 1 0
1  25 0 -85.194189942742 -0
4 C0 15 0 3 0
0

0101000
+68 0 -75 0 *
Ve
1e-07
-19.05 57.15 -3.175
0 0

0101101
*
Ed
 1e-07 1 1 0
1  26 0 0 6.35
4 C0 15 0 16 0
0

0101000
+66 0 -68 0 *
Ed
 1e-07 1 1 0
1  27 0 -85.194189942742 -0
4 C0 15 0 4 0
0

0101000
+66 0 -73 0 *
Wi

0101100
+72 0 -67 0 -65 0 +64 0 *
Fa
0  1e-07 15 0

0111000
+63 0 *
Ve
1e-07
19.05 57.15 3.175
0 0

0101101
*
Ed
 1e-07 1 1 0
1  28 0 -38.1 -0
4 C0 16 0 3 0
0

0101000
+61 0 -68 0 *
Ve
1e-07
19.05 57.15 -3.175
0 0

0101101
*
Ed
 1e-07 1 1 0
1  29 0 0 6.35
4 C0 16 0 17 0
0

0101000
+59 0 -61 0 *
Ed
 1e-07 1 1 0
1  30 0 -38.1 -0
4 C0 16 0 4 0
0

0101000
+59 0 -66 0 *
Wi

0101100
+65 0 -60 0 -58 0 +57 0 *
Fa
0  1e-07 16 0

0111000
+56 0 *
Ve
1e-07
57.15 -19.05 3.175
0 0

0101101
*
Ed
 1e-07 1 1 0
1  31 0 0 85.194189942742
4 C0 17 0 3 0
0

0101000
+54 0 -61 0 *
Ve
1e-07
57.15 -19.05 -3.175
0 0

0101101
*
Ed
 1e-07 1 1 0
1  32 0 0 6.35
4 C0 17 0 18 0
0

0101000
+52 0 -54 0 *
Ed
 1e-07 1 1 0
1  33 0 0 85.194189942742
4 C0 17 0 4 0
0

0101000
+52 0 -59 0 *
Wi

0101100
+58 0 -53 0 -51 0 +50 0 *
Fa
0  1e-07 17 0

0111000
+49 0 *
Ve
1e-07
57.15 -57.15 3.175
0 0

0101101
*
Ed
 1e-07 1 1 0
1  34 0 0 38.1
4 C0 18 0 3 0
0

0101000
+47 0 -54 0 *
Ve
1e-07
57.15 -57.15 -3.175
0 0

0101101
*
Ed
 1e-07 1 1 0
1  35 0 0 6.35
4 C0 18 0 14 0
0

0101000
+45 0 -47 0 *
Ed
 1e-07 1 1 0
1  36 0 0 38.1
4 C0 18 0 4 0
0

0101000
+45 0 -52 0 *
Wi

0101100
+51 0 -46 0 -44 0 +43 0 *
Fa
0  1e-07 18 0

0111000
+42 0 *
Ed
 1e-07 1 1 0
1  37 0 -114.3 0
4 C0 14 0 3 0
0

0101000
+77 0 -47 0 *
Ed
 1e-07 1 1 0
1  38 0 -114.3 0
4 C0 14 0 4 0
0

0101000
+78 0 -45 0 *
Wi

0101100
+44 0 -40 0 -76 0 +39 0 *
Fa
0  1e-07 14 0

0111000
+38 0 *
Ed
 1e-07 1 1 0
1  39 0 0 3.14159265358979
2  31 2 0 0 3.14159265358979
4 C0 4 0 2 0
0

0101000
+128 0 -123 0 *
Wi

0101100
+36 0 +121 0 *
Ed
 1e-07 1 1 0
1  40 0 0 3.14159265358979
2  32 6 0 0 3.14159265358979
4 C0 4 0 6 0
0

0101000
+118 0 -113 0 *
Wi

0101100
+34 0 +111 0 *
Ed
 1e-07 1 1 0
1  41 0 0 3.14159265358979
2  33 8 0 0 3.14159265358979
4 C0 4 0 8 0
0

0101000
+108 0 -103 0 *
Wi

0101100
+32 0 +101 0 *
Ed
 1e-07 1 1 0
1  42 0 0 3.14159265358979
2  34 10 0 0 3.14159265358979
4 C0 4 0 10 0
0

0101000
+98 0 -93 0 *
Wi

0101100
+30 0 +91 0 *
Ed
 1e-07 1 1 0
1  43 0 0 3.14159265358979
2  35 12 0 0 3.14159265358979
4 C0 4 0 12 0
0

0101000
+88 0 -83 0 *
Wi

0101100
+28 0 +81 0 *
Wi

0101100
-71 0 -64 0 -57 0 -50 0 -43 0 -39 0 *
Fa
0  1e-07 4 0

0111000
+35 0 +33 0 +31 0 +29 0 +27 0 +26 0 *
Ed
 1e-07 1 1 0
1  44 0 0 3.14159265358979
2  36 2 0 0 3.14159265358979
4 C0 3 0 2 0
0

0101000
+125 0 -127 0 *
Wi

0101100
+124 0 +24 0 *
Ed
 1e-07 1 1 0
1  45 0 0 3.14159265358979
2  37 6 0 0 3.14159265358979
4 C0 3 0 6 0
0

0101000
+115 0 -117 0 *
Wi

0101100
+114 0 +22 0 *
Ed
 1e-07 1 1 0
1  46 0 0 3.14159265358979
2  38 8 0 0 3.14159265358979
4 C0 3 0 8 0
0

0101000
+105 0 -107 0 *
Wi

0101100
+104 0 +20 0 *
Ed
 1e-07 1 1 0
1  47 0 0 3.14159265358979
2  39 10 0 0 3.14159265358979
4 C0 3 0 10 0
0

0101000
+95 0 -97 0 *
Wi

0101100
+94 0 +18 0 *
Ed
 1e-07 1 1 0
1  48 0 0 3.14159265358979
2  40 12 0 0 3.14159265358979
4 C0 3 0 12 0
0

0101000
+85 0 -87 0 *
Wi

0101100
+84 0 +16 0 *
Wi

0101100
+74 0 +40 0 +46 0 +53 0 +60 0 +67 0 *
Fa
0  1e-07 3 0

0111000
-23 0 -21 0 -19 0 -17 0 -15 0 -14 0 *
Wi

0101100
+16 0 -86 0 +28 0 +82 0 *
Fa
0  1e-07 12 0

0111000
+12 0 *
Wi

0101100
+18 0 -96 0 +30 0 +92 0 *
Fa
0  1e-07 10 0

0111000
+10 0 *
Wi

0101100
+20 0 -106 0 +32 0 +102 0 *
Fa
0  1e-07 8 0

0111000
+8 0 *
Wi

0101100
+22 0 -116 0 +34 0 +112 0 *
Fa
0  1e-07 6 0

0111000
+6 0 *
Wi

0101100
+24 0 -126 0 +36 0 +122 0 *
Fa
0  1e-07 2 0

0111000
+4 0 *
Sh

0101100
-119 0 -109 0 -99 0 -89 0 -79 0 +69 0 +62 0 +55 0 +48 0 +41 0 
+37 0 +25 0 -13 0 -11 0 -9 0 -7 0 -5 0 -3 0 *
So

0100000
+2 0 *

+1 0 