
CASCADE Topology V3, (c) Open Cascade
Locations 0
Curve2ds 16
1 6.2831853071795862 0 0 1 
1 0 0 0 1 
1 0 6.3500000000000014 1 0 
1 3.1415926535897931 0 0 1 
1 3.1415926535897931 0 0 1 
1 0 0 1 0 
1 6.2831853071795862 0 0 1 
1 0 0 0 1 
1 3.1415926535897931 6.3500000000000014 1 0 
1 3.1415926535897931 0 0 1 
1 3.1415926535897931 0 0 1 
1 3.1415926535897931 0 1 0 
1 0 0 1 0 
1 -3.1415926535897931 0 1 0 
1 0 6.3500000000000014 1 0 
1 -3.1415926535897931 6.3500000000000014 1 0 
Curves 24
1 -14.884400000000001 -6.9388939039072284e-15 -3.1750000000000007 -0 -0 1 
2 -19.050000000000001 -6.9388939039072284e-15 3.1750000000000007 0 0 1 1 0 -0 -0 1 0 4.1655999999999995
1 -23.215600000000002 -6.4287550332544063e-15 -3.1750000000000007 -0 -0 1 
2 -19.050000000000001 -6.9388939039072284e-15 -3.1750000000000007 0 0 1 1 0 -0 -0 1 0 4.1655999999999995
1 23.215600000000002 -6.9388939039072284e-15 -3.1750000000000007 -0 -0 1 
2 19.050000000000001 -6.9388939039072284e-15 3.1750000000000007 0 0 1 -1 0 0 0 -1 0 4.1655999999999995
1 14.884400000000001 -6.4287550332544063e-15 -3.1750000000000007 -0 -0 1 
2 19.050000000000001 -6.9388939039072284e-15 -3.1750000000000007 0 0 1 -1 0 0 0 -1 0 4.1655999999999995
1 38.099999999999973 -19.049999999999997 -3.1750000000000007 0 0 1 
1 38.099999999999973 -19.049999999999997 3.1750000000000007 -1 -9.1061599788808823e-17 0 
1 -38.099999999999994 -19.050000000000004 -3.1750000000000007 0 0 1 
1 38.099999999999973 -19.049999999999997 -3.1750000000000007 -1 -9.1061599788808823e-17 0 
1 -38.099999999999994 19.050000000000001 3.1750000000000007 0 -1 0 
1 -38.099999999999994 19.050000000000001 -3.1750000000000007 0 0 1 
1 -38.099999999999994 19.050000000000001 -3.1750000000000007 0 -1 0 
1 38.099999999999966 19.050000000000011 3.1750000000000007 -1 -1.3659239968321323e-16 0 
1 38.099999999999966 19.050000000000011 -3.1750000000000007 0 0 1 
1 38.099999999999966 19.050000000000011 -3.1750000000000007 -1 -1.3659239968321323e-16 0 
1 38.099999999999966 19.050000000000011 3.1750000000000007 1.821231995776175e-16 -1 0 
1 38.099999999999966 19.050000000000011 -3.1750000000000007 1.821231995776175e-16 -1 0 
2 -19.050000000000001 -6.9388939039072284e-15 -3.1750000000000007 0 0 1 1 0 -0 -0 1 0 4.1655999999999995
2 19.050000000000001 -6.9388939039072284e-15 -3.1750000000000007 0 0 1 -1 0 0 0 -1 0 4.1655999999999995
2 -19.050000000000001 -6.9388939039072284e-15 3.1750000000000007 0 0 1 1 0 -0 -0 1 0 4.1655999999999995
2 19.050000000000001 -6.9388939039072284e-15 3.1750000000000007 0 0 1 -1 0 0 0 -1 0 4.1655999999999995
Polygon3D 0
PolygonOnTriangulations 0
Surfaces 10
2 -19.050000000000001 -6.9388939039072284e-15 -3.1750000000000007 -0 -0 1 1 0 0 -0 1 0 4.1655999999999995
2 -19.050000000000001 -6.9388939039072284e-15 -3.1750000000000007 -0 -0 1 1 0 0 -0 1 0 4.1655999999999995
1 0 0 3.1750000000000007 0 0 1 1 0 -0 -0 1 0 
1 0 0 -3.1750000000000007 0 0 1 1 0 -0 -0 1 0 
2 19.050000000000001 -6.9388939039072284e-15 -3.1750000000000007 -0 -0 1 1 0 0 -0 1 0 4.1656000000000022
2 19.050000000000001 -6.9388939039072284e-15 -3.1750000000000007 -0 -0 1 1 0 0 -0 1 0 4.1656000000000022
1 38.099999999999973 -19.049999999999997 -3.1750000000000007 -9.1061599788808836e-17 1 0 -1 -9.1061599788808836e-17 0 0 0 1 
1 38.099999999999966 19.050000000000011 -3.1750000000000007 -1 -1.8212319957761755e-16 0 1.8212319957761755e-16 -1 0 0 0 1 
1 -38.099999999999994 19.050000000000001 -3.1750000000000007 -1 0 0 0 0 1 0 1 -0 
1 38.099999999999966 19.050000000000011 -3.1750000000000007 -1.3659239968321321e-16 1 0 -1 -1.3659239968321321e-16 0 0 0 1 
Triangulations 0

TShapes 66
Ve
1e-07
-14.8844 -6.93889390390723e-15 -3.175
0 0

0101101
*
Ve
1e-07
-14.8844 -6.93889390390723e-15 3.175
0 0

0101101
*
Ed
 1e-07 1 1 0
1  1 0 0 6.35
2  1 1 0 0 6.35
2  2 2 0 0 6.35
4 CN 1 0 2 0
0

0101000
+66 0 -65 0 *
Ve
1e-07
-23.2156 -6.42875503325441e-15 3.175
0 0

0101101
*
Ed
 1e-07 1 1 0
1  2 0 3.14159265358979 6.28318530717959
2  3 1 0 3.14159265358979 6.28318530717959
4 C0 1 0 3 0
0

0101000
+63 0 -65 0 *
Ve
1e-07
-23.2156 -6.42875503325441e-15 -3.175
0 0

0101101
*
Ed
 1e-07 1 1 0
1  3 0 0 6.35
2  4 1 0 0 6.35
2  5 2 0 0 6.35
4 CN 1 0 2 0
0

0101000
+61 0 -63 0 *
Ed
 1e-07 1 1 0
1  4 0 3.14159265358979 6.28318530717959
2  6 1 0 3.14159265358979 6.28318530717959
4 C0 1 0 4 0
0

0101000
+61 0 -66 0 *
Wi

0101100
+64 0 -62 0 -60 0 +59 0 *
Fa
0  1e-07 1 0

0111000
+58 0 *
Ve
1e-07
23.2156 -6.93889390390723e-15 -3.175
0 0

0101101
*
Ve
1e-07
23.2156 -6.93889390390723e-15 3.175
0 0

0101101
*
Ed
 1e-07 1 1 0
1  5 0 0 6.35
2  7 5 0 0 6.35
2  8 6 0 0 6.35
4 CN 5 0 6 0
0

0101000
+56 0 -55 0 *
Ve
1e-07
14.8844 -6.42875503325441e-15 3.175
0 0

0101101
*
Ed
 1e-07 1 1 0
1  6 0 0 3.14159265358979
2  9 5 0 0 3.14159265358979
4 C0 5 0 3 0
0

0101000
+53 0 -55 0 *
Ve
1e-07
14.8844 -6.42875503325441e-15 -3.175
0 0

0101101
*
Ed
 1e-07 1 1 0
1  7 0 0 6.35
2  10 5 0 0 6.35
2  11 6 0 0 6.35
4 CN 5 0 6 0
0

0101000
+51 0 -53 0 *
Ed
 1e-07 1 1 0
1  8 0 0 3.14159265358979
2  12 5 0 0 3.14159265358979
4 C0 5 0 4 0
0

0101000
+51 0 -56 0 *
Wi

0101100
+54 0 -52 0 -50 0 +49 0 *
Fa
0  1e-07 5 0

0111000
+48 0 *
Ve
1e-07
38.1 -19.05 -3.175
0 0

0101101
*
Ve
1e-07
38.1 -19.05 3.175
0 0

0101101
*
Ed
 1e-07 1 1 0
1  9 0 0 6.35
4 C0 7 0 8 0
0

0101000
+46 0 -45 0 *
Ve
1e-07
-38.1 -19.05 3.175
0 0

0101101
*
Ed
 1e-07 1 1 0
1  10 0 0 76.2
4 C0 7 0 3 0
0

0101000
+45 0 -43 0 *
Ve
1e-07
-38.1 -19.05 -3.175
0 0

0101101
*
Ed
 1e-07 1 1 0
1  11 0 0 6.35
4 C0 7 0 9 0
0

0101000
+41 0 -43 0 *
Ed
 1e-07 1 1 0
1  12 0 0 76.2
4 C0 7 0 4 0
0

0101000
+46 0 -41 0 *
Wi

0101100
+44 0 +42 0 -40 0 -39 0 *
Fa
0  1e-07 7 0

0111000
-38 0 *
Ve
1e-07
-38.1 19.05 3.175
0 0

0101101
*
Ed
 1e-07 1 1 0
1  13 0 0 38.1
4 C0 9 0 3 0
0

0101000
+36 0 -43 0 *
Ve
1e-07
-38.1 19.05 -3.175
0 0

0101101
*
Ed
 1e-07 1 1 0
1  14 0 0 6.35
4 C0 9 0 10 0
0

0101000
+34 0 -36 0 *
Ed
 1e-07 1 1 0
1  15 0 0 38.1
4 C0 9 0 4 0
0

0101000
+34 0 -41 0 *
Wi

0101100
+40 0 -35 0 -33 0 +32 0 *
Fa
0  1e-07 9 0

0111000
+31 0 *
Ve
1e-07
38.1 19.05 3.175
0 0

0101101
*
Ed
 1e-07 1 1 0
1  16 0 0 76.2
4 C0 10 0 3 0
0

0101000
+29 0 -36 0 *
Ve
1e-07
38.1 19.05 -3.175
0 0

0101101
*
Ed
 1e-07 1 1 0
1  17 0 0 6.35
4 C0 10 0 8 0
0

0101000
+27 0 -29 0 *
Ed
 1e-07 1 1 0
1  18 0 0 76.2
4 C0 10 0 4 0
0

0101000
+27 0 -34 0 *
Wi

0101100
+33 0 -28 0 -26 0 +25 0 *
Fa
0  1e-07 10 0

0111000
+24 0 *
Ed
 1e-07 1 1 0
1  19 0 0 38.1
4 C0 8 0 3 0
0

0101000
+29 0 -45 0 *
Ed
 1e-07 1 1 0
1  20 0 0 38.1
4 C0 8 0 4 0
0

0101000
+27 0 -46 0 *
Wi

0101100
+26 0 +22 0 -44 0 -21 0 *
Fa
0  1e-07 8 0

0111000
-20 0 *
Ed
 1e-07 1 1 0
1  21 0 0 3.14159265358979
2  13 2 0 0 3.14159265358979
4 C0 4 0 2 0
0

0101000
+66 0 -61 0 *
Wi

0101100
+18 0 +59 0 *
Ed
 1e-07 1 1 0
1  22 0 3.14159265358979 6.28318530717959
2  14 6 0 3.14159265358979 6.28318530717959
4 C0 4 0 6 0
0

0101000
+56 0 -51 0 *
Wi

0101100
+16 0 +49 0 *
Wi

0101100
+39 0 -32 0 -25 0 +21 0 *
Fa
0  1e-07 4 0

0111000
-17 0 -15 0 -14 0 *
Ed
 1e-07 1 1 0
1  23 0 0 3.14159265358979
2  15 2 0 0 3.14159265358979
4 C0 3 0 2 0
0

0101000
+65 0 -63 0 *
Wi

0101100
-12 0 -62 0 *
Ed
 1e-07 1 1 0
1  24 0 3.14159265358979 6.28318530717959
2  16 6 0 3.14159265358979 6.28318530717959
4 C0 3 0 6 0
0

0101000
+55 0 -53 0 *
Wi

0101100
-10 0 -52 0 *
Wi

0101100
-42 0 -22 0 +28 0 +35 0 *
Fa
0  1e-07 3 0

0111000
+11 0 +9 0 +8 0 *
Wi

0101100
-10 0 -54 0 +16 0 +50 0 *
Fa
0  1e-07 6 0

0111000
+6 0 *
Wi

0101100
-12 0 -64 0 +18 0 +60 0 *
Fa
0  1e-07 2 0

0111000
+4 0 *
Sh

0101100
-57 0 -47 0 -37 0 +30 0 +23 0 -19 0 -13 0 +7 0 -5 0 -3 0 
*
So

0100000
+2 0 *

+1 0 